<svg id="svg" version="1.1" width="400" height="400" viewBox="0 0 400 400" xmlns="http://www.w3.org/2000/svg" xmlns:xlink="http://www.w3.org/1999/xlink" ><g id="svgg"><path id="path0" d="M219.467 29.222 C 217.780 29.567,214.480 30.206,212.133 30.643 C 209.787 31.080,203.427 32.277,198.000 33.305 C 192.573 34.332,182.973 36.145,176.667 37.333 C 170.360 38.522,161.060 40.275,156.000 41.230 C 150.940 42.184,144.940 43.311,142.667 43.733 C 140.393 44.156,134.993 45.177,130.667 46.001 C 126.340 46.826,121.600 47.723,120.133 47.995 C 115.788 48.800,107.040 50.447,88.933 53.870 C 79.547 55.644,69.947 57.455,67.600 57.893 C 60.068 59.301,55.299 60.200,44.400 62.265 C 38.533 63.377,31.213 64.757,28.133 65.331 C 25.053 65.906,21.903 66.511,21.133 66.677 L 19.733 66.978 19.733 200.004 C 19.733 326.466,19.756 333.038,20.200 333.169 C 20.673 333.309,21.931 333.552,29.333 334.935 C 31.607 335.360,34.727 335.947,36.267 336.240 C 49.109 338.678,55.397 339.867,58.933 340.527 C 64.544 341.575,70.254 342.649,78.667 344.241 C 82.553 344.976,87.353 345.879,89.333 346.247 C 91.313 346.615,96.473 347.587,100.800 348.407 C 105.127 349.226,109.567 350.061,110.667 350.262 C 111.767 350.463,114.947 351.061,117.733 351.591 C 124.617 352.899,134.825 354.829,145.867 356.908 C 150.927 357.862,160.227 359.615,166.533 360.806 C 172.840 361.996,179.860 363.314,182.133 363.735 C 186.071 364.463,188.739 364.968,201.867 367.467 C 205.020 368.068,209.460 368.905,211.733 369.329 C 214.007 369.752,217.187 370.357,218.800 370.673 C 220.413 370.990,222.303 371.313,223.000 371.392 L 224.267 371.535 224.267 348.034 C 224.267 329.410,224.336 324.534,224.600 324.536 C 224.783 324.538,226.253 324.769,227.867 325.051 C 291.771 336.212,371.806 322.962,379.776 299.902 C 380.226 298.601,380.250 293.533,380.258 197.545 L 380.267 96.558 379.656 94.875 C 375.639 83.809,355.458 74.743,322.800 69.333 C 317.479 68.452,306.490 67.264,297.600 66.610 C 291.257 66.143,263.143 66.143,256.800 66.610 C 244.950 67.482,227.910 69.580,224.733 70.559 C 224.292 70.695,224.267 69.576,224.267 49.618 L 224.267 28.533 223.400 28.564 C 222.923 28.581,221.153 28.877,219.467 29.222 M288.933 76.539 C 368.147 80.373,397.455 108.948,338.133 124.510 C 319.637 129.362,274.815 132.672,252.400 130.841 C 234.048 129.342,227.013 128.067,224.600 125.803 L 224.000 125.240 224.000 102.921 L 224.000 80.601 226.467 80.150 C 243.515 77.031,268.846 75.566,288.933 76.539 M369.600 151.714 L 369.600 177.828 368.600 178.665 C 352.519 192.130,240.459 200.453,225.095 189.323 L 224.000 188.530 224.000 162.103 C 224.000 137.040,224.024 135.686,224.467 135.867 C 254.475 148.107,332.023 143.121,366.933 126.706 C 368.180 126.120,369.290 125.631,369.400 125.620 C 369.510 125.609,369.600 137.351,369.600 151.714 M130.647 154.467 C 133.203 162.570,136.400 172.680,137.752 176.933 C 139.104 181.187,141.251 187.967,142.522 192.000 C 143.793 196.033,145.298 200.773,145.866 202.533 C 146.434 204.293,147.996 209.213,149.337 213.467 C 152.132 222.332,155.313 232.375,160.136 247.556 C 161.992 253.399,163.464 258.225,163.408 258.281 C 163.352 258.336,160.793 258.206,157.720 257.991 C 154.647 257.776,148.790 257.367,144.704 257.082 C 140.618 256.797,137.248 256.527,137.215 256.482 C 137.183 256.437,136.849 255.260,136.473 253.867 C 136.098 252.473,134.623 247.133,133.196 242.000 C 131.770 236.867,130.480 232.187,130.331 231.600 C 130.182 231.013,129.979 230.442,129.880 230.330 C 129.632 230.050,95.428 228.727,95.194 228.989 C 95.091 229.105,93.595 234.480,91.870 240.933 C 90.145 247.387,88.631 252.778,88.505 252.915 C 88.294 253.144,84.551 252.938,70.864 251.945 C 67.246 251.682,66.679 251.581,66.791 251.220 C 67.389 249.299,95.612 155.403,97.656 148.533 C 99.923 140.915,99.718 141.333,101.188 141.333 C 102.331 141.333,115.102 140.465,120.400 140.028 C 121.867 139.907,123.727 139.791,124.533 139.770 L 126.000 139.733 130.647 154.467 M111.622 163.111 C 111.334 166.283,110.660 169.164,107.484 180.800 C 105.862 186.740,103.443 195.598,102.109 200.486 C 100.774 205.373,99.724 209.406,99.774 209.449 C 100.075 209.702,124.533 209.851,124.533 209.599 C 124.533 209.347,121.620 198.686,118.668 188.133 C 114.567 173.476,113.297 168.483,112.908 165.492 C 112.220 160.200,111.933 159.670,111.622 163.111 M369.600 214.377 L 369.600 239.955 368.387 241.022 C 353.164 254.422,242.311 263.019,225.073 252.137 L 224.000 251.460 224.000 225.168 C 224.000 200.234,224.024 198.886,224.467 199.066 C 254.682 211.319,337.033 205.763,367.867 189.390 C 368.453 189.078,369.083 188.818,369.267 188.812 C 369.531 188.802,369.600 194.087,369.600 214.377 M369.600 270.077 C 369.600 292.935,369.703 292.252,365.600 296.637 C 348.127 315.310,277.511 324.167,226.933 314.028 L 224.133 313.467 224.065 287.504 C 224.001 262.841,224.021 261.551,224.465 261.732 C 254.306 273.831,335.517 268.394,367.067 252.185 C 368.093 251.658,369.083 251.220,369.267 251.213 C 369.530 251.203,369.600 255.146,369.600 270.077 " stroke="none" fill="#0c243c" fill-rule="evenodd"></path><path id="path1" d="" stroke="none" fill="#d49c9c" fill-rule="evenodd"></path><path id="path2" d="" stroke="none" fill="#10243c" fill-rule="evenodd"></path><path id="path3" d="" stroke="none" fill="#3c646c" fill-rule="evenodd"></path><path id="path4" d="" stroke="none" fill="#40246c" fill-rule="evenodd"></path></g></svg>