<svg xmlns="http://www.w3.org/2000/svg" width="817.67" height="547.496" viewBox="0 0 817.67 547.496"><defs><style>.a{fill:#f2f2f2;}.b{fill:none;stroke:#3f3d56;stroke-miterlimit:10;}.c{fill:#ff6484;}.d{fill:#ffc1c7;}.e{fill:#3f3d56;}.f{fill:#2f2e41;}.g{opacity:0.1;}</style></defs><ellipse class="a" cx="108.108" cy="17.346" rx="108.108" ry="17.346" transform="translate(27.027 512.805)"/><ellipse class="b" cx="108.108" cy="17.346" rx="108.108" ry="17.346" transform="translate(35.498 502.72)"/><rect class="c" width="325.132" height="193.627" rx="22.84" transform="translate(65.752 22.283)"/><rect class="a" width="325.132" height="193.627" rx="22.84" transform="translate(492.539 177.185)"/><rect class="b" width="325.132" height="193.627" rx="22.84" transform="translate(40.742 0.5)"/><rect class="b" width="325.132" height="193.627" rx="22.84" transform="translate(467.528 155.402)"/><path class="b" d="M90.22,565.957a18.542,18.542,0,0,0-15.982,11.175c-4,9.66,1.149,21.008,8.874,28.052s17.647,11.071,26.663,16.364c12.109,7.109,22.991,16.977,29.05,29.644s6.7,28.358-.419,40.46c-6.61,11.232-18.631,17.955-30.095,24.155" transform="translate(-71.761 -198.407)"/><ellipse class="c" cx="14.119" cy="6.858" rx="14.119" ry="6.858" transform="translate(14.522 361.534)"/><ellipse class="c" cx="14.119" cy="6.858" rx="14.119" ry="6.858" transform="translate(25.817 406.713)"/><ellipse class="c" cx="14.119" cy="6.858" rx="14.119" ry="6.858" transform="translate(0 413.974)"/><ellipse class="c" cx="14.119" cy="6.858" rx="14.119" ry="6.858" transform="translate(40.339 451.893)"/><ellipse class="c" cx="14.119" cy="6.858" rx="14.119" ry="6.858" transform="translate(68.576 451.893)"/><path class="d" d="M324.408,381.227s1.614,12.1-2.42,16.942S311.5,435.281,311.5,435.281v19.363s25.01-36.305,29.851-50.827,0-25.817,0-25.817Z" transform="translate(-117.873 -162.09)"/><path class="e" d="M320.442,308l.341.384a51.167,51.167,0,0,1,9.646,15.964c5.3,14.064,16.681,48.733,12.6,52.229-5.647,4.841-21.783,8.068-22.59,7.261S303.5,333.01,303.5,333.01Z" transform="translate(-116.327 -148.565)"/><path class="e" d="M291.234,731.261s19.363,4.034,20.169,0a32.282,32.282,0,0,1,2.42-7.261s17.55.731,12.968,16.117a6.432,6.432,0,0,1-2.817,3.632c-4.18,2.558-14.025,8.59-19.026,11.716-3.759,2.349-9.16.594-13.015-1.282a6.959,6.959,0,0,1-3.759-7.628Z" transform="translate(-113.34 -228.945)"/><path class="e" d="M214.3,734.261s-19.363,4.034-20.169,0a32.277,32.277,0,0,0-2.42-7.261s-17.516.73-12.981,16.073a6.531,6.531,0,0,0,2.868,3.7c4.2,2.571,14,8.576,18.987,11.692,4.116,2.573,10.2.223,14.07-1.817a5.613,5.613,0,0,0,2.909-6.063Z" transform="translate(-92.074 -229.524)"/><path class="d" d="M188.427,394.227s-1.614,12.1,2.42,16.942,10.488,23.4,10.488,23.4v19.363s-25.01-22.59-29.851-37.112,0-25.817,0-25.817Z" transform="translate(-90.403 -164.602)"/><circle class="d" cx="20.169" cy="20.169" r="20.169" transform="translate(134.329 90.052)"/><path class="d" d="M274.885,256.227s-5.647,25.817,0,29.044-33.885,0-33.885,0,8.875-21.783,4.841-29.044S274.885,256.227,274.885,256.227Z" transform="translate(-104.251 -137.937)"/><path class="f" d="M285,469.828s7.261,10.488,4.841,42.759S285,578.743,285,578.743s17.749,101.654,12.1,104.074-24.2,4.841-26.624,2.42-13.715-96.813-13.715-96.813l-10.488-77.451L230.143,599.72s-8.875,86.325-15.329,90.359c-4.614,2.884-13.763.82-18.605-.591a4.212,4.212,0,0,1-3.045-4.227c.592-13.575,3.247-67.151,9.549-100.063,7.261-37.919-7.261-113.756,5.647-115.369S285,469.828,285,469.828Z" transform="translate(-95.007 -179.695)"/><path class="e" d="M227.146,285.878s3.227-14.522,15.329-12.908,20.169.807,22.59,8.875S293.3,296.367,293.3,296.367s6.454.807,5.647,11.295-16.942,49.214-16.942,49.214.807,32.271,4.841,46.793,4.034,32.271-4.841,36.305-64.542,18.556-77.451.807c0,0-7.261-25.817-2.42-36.305s-.807-51.634-.807-51.634L186,318.956s4.841-16.136,18.556-20.976a82.128,82.128,0,0,0,22.59-12.1Z" transform="translate(-93.624 -141.772)"/><path class="e" d="M188.922,321l-6.454,7.261s-19.363,47.6-13.715,52.441,21.783,8.068,22.59,7.261,14.522-41.953,14.522-41.953Z" transform="translate(-90.092 -151.076)"/><path class="f" d="M280.087,227.213s-3.227,2.42-4.034,8.068-5.761-3.218-6.914,8.476-20.516,19.761-27.777,14.114-19.363-41.146-2.42-46.793,33.885-4.841,37.112.807S280.087,227.213,280.087,227.213Z" transform="translate(-102.193 -129.092)"/><path class="g" d="M267.907,243.756c1.153-11.694,6.107-2.829,6.914-8.476s4.034-8.068,4.034-8.068-.807-9.681-4.034-15.329c-1.544-2.7-6.232-4.293-12.554-4.6,8.721-.4,15.477,1.247,17.394,4.6,3.227,5.647,4.034,15.329,4.034,15.329s-3.227,2.42-4.034,8.068-5.761-3.218-6.914,8.476c-.978,9.914-15.041,17.217-23.725,15.771C257.3,258.391,267.1,251.973,267.907,243.756Z" transform="translate(-105.801 -129.092)"/></svg>