<svg xmlns="http://www.w3.org/2000/svg" width="391.583" height="279.891" viewBox="0 0 391.583 279.891"><defs><style>.a{fill:#f2f2f2;}.b{fill:#3f3d56;}.c{opacity:0.1;}.d,.e{fill:#ff6484;}.d{opacity:0.3;}.f{fill:#a0616a;}.g{fill:#2f2e41;}.h{fill:#575a89;}.i{fill:#a8a8a8;}.j{opacity:0.2;}</style></defs><g transform="translate(0 0)"><path class="a" d="M159.247,628.76c0,15.787-9.385,21.3-20.962,21.3s-20.962-5.512-20.962-21.3,20.962-35.87,20.962-35.87S159.247,612.974,159.247,628.76Z" transform="translate(-117.324 -394.983)"/><path class="b" d="M37.449,542.646l.215-13.212L46.6,513.089l-8.9,14.272.1-5.941,6.158-11.826-6.132,10.253h0l.174-10.685,6.594-9.414-6.566,7.734.108-19.591-.681,25.936.056-1.07L30.8,502.5l6.6,12.315-.625,11.933-.018-.317-7.729-10.8,7.705,11.917-.078,1.492-.014.022.006.122-1.585,30.275h2.117l.254-15.637,7.686-11.888Z" transform="translate(-17.251 -289.985)"/><path class="a" d="M358.578,135.935a127.416,127.416,0,0,1,20.246,179.052c-43.853,55.034-177.413,90.6-179.051,20.246-1.649-70.8-38.082-137.15-20.246-179.052C207.086,91.433,303.543,92.082,358.578,135.935Z" transform="translate(-151.38 -104.999)"/><ellipse class="b" cx="58.412" cy="9.735" rx="58.412" ry="9.735" transform="translate(2.577 260.42)"/><ellipse class="b" cx="28.765" cy="4.794" rx="28.765" ry="4.794" transform="translate(330.938 262.097)"/><rect class="b" width="333.434" height="180.103" transform="translate(58.149 64.903)"/><rect class="b" width="333.434" height="16.631" transform="translate(58.149 50.3)"/><rect class="c" width="333.434" height="2.028" transform="translate(58.149 64.903)"/><rect class="d" width="65.713" height="70.175" transform="translate(77.417 93.501)"/><rect class="e" width="65.713" height="70.175" transform="translate(81.879 88.633)"/><rect class="d" width="50.519" height="53.95" transform="translate(318.365 92.375)"/><rect class="e" width="50.519" height="53.95" transform="translate(321.796 88.633)"/><rect class="d" width="50.519" height="53.95" transform="translate(318.365 167.327)"/><rect class="e" width="50.519" height="53.95" transform="translate(321.796 163.584)"/><rect class="e" width="125.342" height="4.868" transform="translate(170.714 88.633)"/><rect class="e" width="125.342" height="4.868" transform="translate(170.714 102.83)"/><rect class="e" width="125.342" height="4.868" transform="translate(170.714 117.028)"/><rect class="e" width="125.342" height="4.868" transform="translate(170.714 131.225)"/><rect class="e" width="125.342" height="4.868" transform="translate(170.714 145.422)"/><rect class="e" width="125.342" height="4.868" transform="translate(170.714 159.62)"/><rect class="e" width="125.342" height="4.868" transform="translate(170.714 173.817)"/><rect class="e" width="125.342" height="4.868" transform="translate(170.714 188.014)"/><rect class="e" width="125.342" height="4.868" transform="translate(170.714 202.211)"/><rect class="e" width="125.342" height="4.868" transform="translate(170.714 216.409)"/><circle class="f" cx="8.721" cy="8.721" r="8.721" transform="translate(42.526 109.474)"/><path class="f" d="M227.321,406.5s0,9.234-1.539,10.26,12.312,2.052,12.312,2.052v-11.8Z" transform="translate(-181.716 -284.199)"/><path class="f" d="M188.015,527.707s9.747,11.286,11.8,11.286,4.1-7.7,4.1-7.7l-9.747-7.182Z" transform="translate(-159.34 -354.106)"/><path class="f" d="M308.163,374.621l1.539-10.773s1.026-14.877,4.1-11.286,1.026,11.8,1.026,11.8,1.539,11.8,0,13.338S308.163,374.621,308.163,374.621Z" transform="translate(-230.752 -251.808)"/><path class="g" d="M242.043,546.917l-27.7-2.565s-3.591,16.929-2.565,23.6,1.539,25.651,1.539,25.651,1.026,34.372,2.565,36.424,6.669,1.539,8.208,2.565,4.1-2.052,4.1-2.565-3.078-.513-1.539-3.591-4.1-11.8-2.565-15.9,4.1-9.747,2.565-11.8,1.026-28.216,1.026-28.216S240.5,588.984,240.5,597.192s-1.026,27.19-1.539,29.242-1.026,2.565,0,4.1,2.052,3.078,1.539,3.591,9.234,0,9.234-3.078-.513-3.078.513-5.643,1.539-33.346,1.539-33.346Z" transform="translate(-173.353 -366.134)"/><path class="h" d="M198.9,422.939l-1.539,3.078s-16.416,5.13-16.929,15.9l13.851,23.086s1.026,1.539.513,2.565-1.026.513-.513,2.052.513,1.026.513,2.052-1.539.513,0,1.026-.513,0,5.13,1.539,22.573,1.026,22.573,1.026l-3.078-29.755,3.078-6.156-4.1-12.312s-2.565-.513-4.1.513-3.591-1.026-3.591-1.026S208.13,422.939,198.9,422.939Z" transform="translate(-154.83 -293.97)"/><path class="h" d="M267.692,416.6l2.565-.513s10.26-3.078,10.773-5.643,3.078-5.643,3.078-5.643,8.208-2.052,7.7,4.617-2.565,8.721-3.591,9.747S275.9,428.4,273.848,428.4,267.692,416.6,267.692,416.6Z" transform="translate(-206.697 -283.011)"/><path class="h" d="M177.815,464.675l-1.026,2.052-.513,18.469s-3.078,2.052-1.539,3.078,5.13,5.643,6.156,5.643,6.669-2.565,6.669-3.591-1.026-10.26-1.026-10.26Z" transform="translate(-151.192 -318.777)"/><path class="g" d="M228.143,755.558s0,5.13-.513,6.156-1.539,6.156,1.539,6.156a12.448,12.448,0,0,0,5.13-1.026s0-3.078,1.539-3.591,5.13-4.617,3.591-5.643a25.3,25.3,0,0,0-4.617-2.052Z" transform="translate(-182.539 -491.667)"/><path class="g" d="M282.129,757.372s-3.078,7.182,0,7.7,7.182,0,7.7-1.026,1.539-2.052,2.565-1.539,9.747-5.643,6.669-6.669a8.883,8.883,0,0,0-5.643,0l-3.078-1.539Z" transform="translate(-214.465 -490.915)"/><path class="g" d="M229.143,388.774a1.054,1.054,0,0,0,.417-.115,1.079,1.079,0,0,0,.389-.673L231,384.273c.4-1.408,1.036-3.054,2.469-3.351a2.329,2.329,0,0,0,.865-.23,1.5,1.5,0,0,0,.47-1.158l.449-4.8a8.774,8.774,0,0,0-.216-3.868,5.67,5.67,0,0,0-4.389-3.33,12.341,12.341,0,0,0-5.68.592c-2.792.837-5.684,2.277-6.9,4.927a10.5,10.5,0,0,0-.652,4.969,12.434,12.434,0,0,0,1.135,5.048,15.13,15.13,0,0,0,1.538,2.26c.866,1.121,1.928,3.312,3.361,3.731C225.066,389.538,227.505,388.986,229.143,388.774Z" transform="translate(-176.793 -260.966)"/><path class="g" d="M947.429,688.571c0,15.426,9.677,27.909,21.637,27.909" transform="translate(-610.708 -451.852)"/><path class="e" d="M1000.77,716.02c0-15.6,10.8-28.222,24.146-28.222" transform="translate(-642.411 -451.393)"/><path class="e" d="M966.755,692.018c0,14.653,6.171,26.51,13.8,26.51" transform="translate(-622.194 -453.901)"/><path class="g" d="M1000.77,704.534c0-19.932,12.483-36.062,27.909-36.062" transform="translate(-642.411 -439.906)"/><path class="i" d="M989.548,755.428s3.068-.094,3.993-.753,4.72-1.445,4.95-.389,4.611,5.253,1.147,5.281-8.049-.54-8.972-1.1S989.548,755.428,989.548,755.428Z" transform="translate(-635.741 -490.604)"/><path class="j" d="M999.7,761.623c-3.464.028-8.049-.54-8.972-1.1-.7-.428-.983-1.965-1.077-2.673l-.1,0s.194,2.475,1.117,3.037,5.508,1.13,8.972,1.1c1-.008,1.345-.364,1.326-.891C1000.823,761.419,1000.442,761.617,999.7,761.623Z" transform="translate(-635.739 -493.028)"/></g></svg>