<svg xmlns="http://www.w3.org/2000/svg" width="112.563" height="107.175" viewBox="0 0 112.563 107.175"><defs><style>.a{fill:#27d4f8;fill-rule:evenodd;opacity:0.25;}</style></defs><path class="a" d="M36.992,143.931a9.578,9.578,0,0,0,9.579,9.58H77.706a9.578,9.578,0,0,0,9.58-9.58V105.611a9.577,9.577,0,0,0-9.58-9.58H62.33a4.788,4.788,0,0,1-4.79-4.79,4.74,4.74,0,0,1,.215-1.461,38.517,38.517,0,0,1,23.662-25l.047-.048a9.581,9.581,0,0,0-7.4-17.676l-.433.169a57.535,57.535,0,0,0-36.641,53.6Zm62.269,0a9.578,9.578,0,0,0,9.58,9.58h31.135a9.578,9.578,0,0,0,9.579-9.58V105.611a9.577,9.577,0,0,0-9.579-9.58H124.6a4.788,4.788,0,0,1-4.789-4.79,4.565,4.565,0,0,1,.214-1.461,38.52,38.52,0,0,1,23.662-25l.047-.048a9.581,9.581,0,0,0-7.4-17.676l-.433.169a57.534,57.534,0,0,0-36.642,53.6Z" transform="translate(-36.992 -46.336)"/></svg>