<svg xmlns="http://www.w3.org/2000/svg" xmlns:xlink="http://www.w3.org/1999/xlink" width="534.755" height="345.437" viewBox="0 0 534.755 345.437"><defs><style>.a{opacity:0.2;}.b{fill:#3f3d56;}.c{fill:#ff6484;}.d,.o{opacity:0.1;}.e{fill:url(#a);}.f{fill:#fff;}.g{fill:#d7d9e1;}.h{fill:#ededf4;}.i{fill:#fa5959;}.i,.j,.k{opacity:0.8;}.j{fill:#fed253;}.k{fill:#8ccf4d;}.l{fill:url(#b);}.m{fill:url(#c);}.n{fill:#fbbebe;}.p{fill:#65617d;}.q{fill:url(#d);}.r{opacity:0.05;}.s{fill:#ffcdd3;}.t{fill:#dce6f2;}.u{fill:#2d293d;}.v{fill:url(#e);}.w{fill:#a1616a;}.x{fill:#464353;}</style><linearGradient id="a" x1="0.5" y1="1" x2="0.5" gradientUnits="objectBoundingBox"><stop offset="0" stop-color="gray" stop-opacity="0.251"/><stop offset="0.54" stop-color="gray" stop-opacity="0.122"/><stop offset="1" stop-color="gray" stop-opacity="0.102"/></linearGradient><linearGradient id="b" x1="-17.87" y1="168.19" x2="-17.87" y2="167.19" xlink:href="#a"/><linearGradient id="c" y2="-0.001" xlink:href="#a"/><linearGradient id="d" x1="-1.948" y1="1.001" x2="-1.948" y2="0" xlink:href="#a"/><linearGradient id="e" x1="2.68" y1="0.777" x2="2.68" y2="-0.153" xlink:href="#a"/></defs><g transform="translate(-0.102 -0.095)"><g class="a" transform="translate(452.699 219.104)"><path class="b" d="M1013.042,789.444a8.361,8.361,0,0,1-.793,1.223q-3.958-2.79-8.05-5.466c.055-.115.115-.234.179-.353a7.67,7.67,0,0,1,2.749-2.983,4.6,4.6,0,0,1,4.582-.394,4.661,4.661,0,0,1,2.263,4.018A7.721,7.721,0,0,1,1013.042,789.444Z" transform="translate(-1004.2 -675.675)"/><ellipse class="b" cx="6.419" cy="4.902" rx="6.419" ry="4.902" transform="translate(0.857 107.948) rotate(-62.09)"/><ellipse class="b" cx="6.419" cy="4.902" rx="6.419" ry="4.902" transform="translate(4.532 101.016) rotate(-62.09)"/><ellipse class="b" cx="6.419" cy="4.902" rx="6.419" ry="4.902" transform="translate(8.204 94.078) rotate(-62.09)"/><ellipse class="b" cx="6.419" cy="4.902" rx="6.419" ry="4.902" transform="translate(11.88 87.142) rotate(-62.09)"/><path class="c" d="M1032.977,578.763a23.8,23.8,0,0,1-.357-3.207l12.37,4.16-12.37-6.414a23.55,23.55,0,0,1,8.352-16.7l11.985,17.323-9.305-19.275a23.494,23.494,0,1,1,21.992,41.395,23.467,23.467,0,0,1,.367,5.04l-18.853-.151,18.565,3.056a23.513,23.513,0,0,1-13.672,17.726,23.494,23.494,0,1,1-32.635-17.286,23.5,23.5,0,0,1,13.594-25.657Z" transform="translate(-1004.868 -551.083)"/><path class="d" d="M1063.218,672.633a23.427,23.427,0,0,1-11.239,10.483,23.494,23.494,0,1,1-32.635-17.286C1018.433,660.826,1064.455,670.3,1063.218,672.633Z" transform="translate(-1004.83 -612.478)"/></g><g class="a" transform="translate(425.431 2.828)"><path class="b" d="M973.565,481.615a14.211,14.211,0,0,1-1.031,2.121q-6.927-3.688-14.024-7.175c.064-.2.137-.4.215-.6a12.517,12.517,0,0,1,3.8-5.342,6.91,6.91,0,0,1,11.761,4.462A12.466,12.466,0,0,1,973.565,481.615Z" transform="translate(-952.175 -290.15)"/><ellipse class="b" cx="10.396" cy="7.94" rx="10.396" ry="7.94" transform="matrix(0.356, -0.935, 0.935, 0.356, 7.382, 183.669)"/><ellipse class="b" cx="10.396" cy="7.94" rx="10.396" ry="7.94" transform="matrix(0.356, -0.935, 0.935, 0.356, 11.901, 171.795)"/><ellipse class="b" cx="10.396" cy="7.94" rx="10.396" ry="7.94" transform="matrix(0.356, -0.935, 0.935, 0.356, 16.422, 159.918)"/><ellipse class="b" cx="10.396" cy="7.94" rx="10.396" ry="7.94" transform="matrix(0.356, -0.935, 0.935, 0.356, 20.941, 148.044)"/><path class="c" d="M979.878,128.346a38.129,38.129,0,0,1-1.214-5.118l20.718,4.22-21.149-7.871a38.078,38.078,0,0,1,10.038-28.406l22.706,25.414L992.193,87.474A38.027,38.027,0,1,1,1035.76,149.6a38.259,38.259,0,0,1,1.585,8.027l-30.316,3.514,30.436,1.214a38.059,38.059,0,0,1-18.437,31.2,38.027,38.027,0,1,1-55.9-21.268,38.027,38.027,0,0,1,16.732-43.956Z" transform="translate(-944.688 -79.03)"/><path class="d" d="M1034.99,280.266a37.858,37.858,0,0,1-15.971,19.069,38.027,38.027,0,1,1-55.9-21.268C960.68,270.219,1036.51,276.276,1034.99,280.266Z" transform="translate(-944.683 -184.809)"/></g><g class="a" transform="translate(0.102 0.095)"><path class="b" d="M194.08,566.008a17.252,17.252,0,0,0,.916,2.657q8.705-3.34,17.607-6.414c-.05-.243-.1-.49-.165-.742a14.872,14.872,0,0,0-3.7-6.872c-2.373-2.437-5.448-3.629-8.4-2.9s-5.131,3.207-6.116,6.437A14.881,14.881,0,0,0,194.08,566.008Z" transform="translate(-112.4 -332.312)"/><ellipse class="b" cx="9.443" cy="12.361" rx="9.443" ry="12.361" transform="translate(75.187 206.999) rotate(-13.72)"/><ellipse class="b" cx="9.443" cy="12.361" rx="9.443" ry="12.361" transform="translate(71.601 192.319) rotate(-13.72)"/><ellipse class="b" cx="9.443" cy="12.361" rx="9.443" ry="12.361" transform="translate(68.026 177.642) rotate(-13.72)"/><ellipse class="b" cx="9.443" cy="12.361" rx="9.443" ry="12.361" transform="translate(64.441 162.967) rotate(-13.72)"/><path class="c" d="M102.7,136.994a44.53,44.53,0,0,0,2.19-5.86l-25.066,1.92,26.115-6.171a45.271,45.271,0,0,0-7.656-35.017l-30.55,26.683L94.2,86.968a45.23,45.23,0,1,0-60.569,66.891,45.358,45.358,0,0,0-3.056,9.232l35.255,8.623-36.094-3.061a45.257,45.257,0,0,0,17.149,39.539,45.23,45.23,0,1,0,69.072-16.856A45.234,45.234,0,0,0,102.668,137Z" transform="translate(-16.342 -73.065)"/><path class="d" d="M47.986,311.18a45.037,45.037,0,0,0,16.036,24.878A45.23,45.23,0,1,0,133.094,319.2C137.162,310.278,46.79,306.246,47.986,311.18Z" transform="translate(-33.482 -200.931)"/></g><path class="e" d="M542.962,186.69H99.124a3.959,3.959,0,0,0-3.954,3.963V462.292a7.986,7.986,0,0,0,7.972,8h435.8a7.986,7.986,0,0,0,7.972-8V190.653A3.959,3.959,0,0,0,542.962,186.69Z" transform="translate(-58.952 -134.537)"/><path class="f" d="M547.331,223.5V480.638a7.908,7.908,0,0,1-7.9,7.908H107.158a7.908,7.908,0,0,1-7.908-7.908V223.5Z" transform="translate(-61.163 -154.482)"/><path class="g" d="M158.316,216.69V484.856H107.158a7.908,7.908,0,0,1-7.908-7.908V216.713Z" transform="translate(-61.163 -150.792)"/><path class="h" d="M547.331,193.922v11.427H99.25V193.922A3.922,3.922,0,0,1,103.172,190H543.409a3.922,3.922,0,0,1,3.922,3.922Z" transform="translate(-61.163 -136.33)"/><circle class="i" cx="1.833" cy="1.833" r="1.833" transform="translate(43.356 59.392)"/><circle class="j" cx="1.833" cy="1.833" r="1.833" transform="translate(48.396 59.392)"/><circle class="k" cx="1.833" cy="1.833" r="1.833" transform="translate(53.436 59.392)"/><rect class="h" width="43.067" height="4.582" transform="translate(170.459 91.551)"/><rect class="h" width="241.909" height="4.582" transform="translate(170.459 104.837)"/><rect class="h" width="241.909" height="4.582" transform="translate(170.459 118.124)"/><rect class="h" width="241.909" height="4.582" transform="translate(170.459 131.41)"/><rect class="h" width="241.909" height="4.582" transform="translate(170.459 144.697)"/><rect class="h" width="43.067" height="4.582" transform="translate(44.007 91.551)"/><rect class="h" width="43.067" height="4.582" transform="translate(44.007 104.837)"/><rect class="h" width="43.067" height="4.582" transform="translate(44.007 118.124)"/><rect class="h" width="43.067" height="4.582" transform="translate(44.007 131.41)"/><rect class="h" width="43.067" height="4.582" transform="translate(44.007 144.697)"/><rect class="l" width="1.833" height="2.749" transform="translate(288.202 45.281) rotate(90)"/><path class="b" d="M921.2,700.263a.861.861,0,0,0-.458-.678.88.88,0,0,0-1.168.49l-4.22,8.875-.948,34.935h1.521l.568-34.857,4.637-8.215A.879.879,0,0,0,921.2,700.263Z" transform="translate(-502.849 -412.405)"/><path class="m" d="M989.4,712.809a.674.674,0,0,1-.073.087,1.223,1.223,0,0,1-.522.261h0a5.1,5.1,0,0,1-1.177.2h-.119a4.882,4.882,0,0,1-.683,0,3.615,3.615,0,0,0-.5-.032h0a3.5,3.5,0,0,0-.71.174,6.089,6.089,0,0,1-1.576.224h-2.282c-1.026,0-2.043.192-3.07.206h-.33a4.847,4.847,0,0,1-2.831-.848,1.072,1.072,0,0,1-.371-.426,1.229,1.229,0,0,1-.069-.563,1.329,1.329,0,0,1,.344-.944,1.474,1.474,0,0,1,.545-.266l1.045-.33,1.118-.334.073-.023.211-.06.133-.046a2.164,2.164,0,0,0,.458-.215,1.54,1.54,0,0,0,.458-.458c0-.037.046-.073.064-.11v-.087c-.032-.238-.06-.458-.1-.715a2.818,2.818,0,0,1-1.4-.793,4.527,4.527,0,0,1-.82-1.1,23.3,23.3,0,0,1-1.068-2.827,25.46,25.46,0,0,0-2.121-4.073c-.729-1.214-1.457-2.428-2.291-3.574-.55-.756-1.141-1.484-1.686-2.245a19.842,19.842,0,0,1-3.239-7.083,9.82,9.82,0,0,0-.394-1.439,15.091,15.091,0,0,0-1.375-2.176,7.141,7.141,0,0,1-1-2.575c-.1-.522-.257-1.081-.774-1.136h0l-.055.11a24.622,24.622,0,0,1-3.8,5.919,6.339,6.339,0,0,0-.71.816,8.321,8.321,0,0,0-.458.875,5.771,5.771,0,0,1-1.008,1.475,3.4,3.4,0,0,1-.4.339,2.228,2.228,0,0,1-.628.312h0a1.8,1.8,0,0,1-.27.064.3.3,0,0,1,0,.064c0,.028,0,.05,0,.073a8.961,8.961,0,0,1-.348,4.545.456.456,0,0,1-.046.133c-.078.215-.165.422-.257.628-.234.5-.509.985-.724,1.5-.037.087-.073.174-.105.261-.765,2.034-.577,4.3-.669,6.488a7.032,7.032,0,0,1-.169,1.42c-.128.527-.334,1.072-.458,1.613a2.747,2.747,0,0,0,0,1.246h-.046c-.206.078-.412.147-.619.211v.027c.078.426.147.852.22,1.274a1.878,1.878,0,0,0,.394,1.017,1.916,1.916,0,0,1,.183.2c.151.234,0,.545.046.825.041.394.408.729.348,1.123a.733.733,0,0,1-.458.527,1.291,1.291,0,0,1-.293.1h-.06l-.344.041a15.893,15.893,0,0,1-4.247.041c-.279-.046-.554-.11-.834-.133a5.876,5.876,0,0,0-1.063.046,52.45,52.45,0,0,1-7.821.151,2.211,2.211,0,0,1-1.833-.728,2.14,2.14,0,0,1-.037-1.649,1.712,1.712,0,0,1,.229-.577.43.43,0,0,1,.041-.055,1.972,1.972,0,0,1,1.571-.458l1.833.055a1.646,1.646,0,0,0,.541-.046,5.659,5.659,0,0,0,.811-.458c.353-.169.8-.183,1.049-.458l.032-.041a1.456,1.456,0,0,0,.128-.2l.027-.037h0a.153.153,0,0,0,0-.037c.234-.307.646-.408.976-.6a.658.658,0,0,0,.142-.1l.037-.032a3.944,3.944,0,0,1-.916-.916.982.982,0,0,1-.211-.367.555.555,0,0,1,.023-.312.457.457,0,0,1,.032-.069c.128-.257.394-.486.541-.747v-.023a1.178,1.178,0,0,0-.06-1.278c.151-2.5.838-4.939.994-7.441.06-.994.032-1.993.078-2.987s.156-1.966.266-2.941c.252-2.236.857-4.426.774-6.671a4.112,4.112,0,0,1,0-.628v-.041a3.756,3.756,0,0,1,.426-1.315,10.166,10.166,0,0,1,.916-1.315c1.168-1.517,2.57-3.033,2.987-4.907a10.6,10.6,0,0,1,1.164-2.717,4.774,4.774,0,0,1,1.013-1.425,4.3,4.3,0,0,0,.673-.577,5.3,5.3,0,0,0,.5-1.439,6.673,6.673,0,0,0,.316-.733.448.448,0,0,1,0-.078,4.975,4.975,0,0,0,.064-.783v-.22h0a7.964,7.964,0,0,1,.651-2.172l.115-.261a8.092,8.092,0,0,1-2.291-1.979,4.521,4.521,0,0,1-.55-.834,10.082,10.082,0,0,1-.664-2.511c-.458-2.03-1.452-3.94-1.59-6.011a6.793,6.793,0,0,0-.22-1.883,4,4,0,0,0-.215-.458c-.037-.064-.069-.128-.1-.193a.362.362,0,0,1-.037-.073l-.1-.188-.156.119a113.849,113.849,0,0,1-12.192,8.334l-.367.215a1.342,1.342,0,0,0-.458.394l-.041.073h0c-.087.179-.11.385-.183.573a1.549,1.549,0,0,1-1.058.843,3.267,3.267,0,0,1-2.4-.312c-.092-.046-.183-.1-.27-.151a3.04,3.04,0,0,1-.3.147,2.97,2.97,0,0,1-.4.151,8.342,8.342,0,0,1-2.341.211,7.121,7.121,0,0,0-2.332.257,5.871,5.871,0,0,1-1.5.458h-.179a2.7,2.7,0,0,1-.848-.252l-.156-.069c-.078-.041-.156-.078-.234-.128a1.234,1.234,0,0,1-.229-.179.838.838,0,0,1-.215-.362.613.613,0,0,1,0-.3.179.179,0,0,1,.064-.115.188.188,0,0,1,.11-.027,3.439,3.439,0,0,1,.651.055,2.138,2.138,0,0,0,.38,0h.069a.811.811,0,0,0,.577-.321.3.3,0,0,0,.05-.092h0a.4.4,0,0,0,.037-.169.13.13,0,0,0,0-.041c-.078-.037-.16-.073-.234-.115l-.115-.069h-.023a1.113,1.113,0,0,1-.2-.16.609.609,0,0,1-.1-.119.719.719,0,0,1-.115-.229h0a1.091,1.091,0,0,0-.458,0c-.206.055-.417.179-.623.22a.518.518,0,0,1-.312,0c-.3-.105-.4-.458-.458-.774a.338.338,0,0,0-.037-.183h0a1.039,1.039,0,0,1,0-.357,1.3,1.3,0,0,1,.5-.651l.623-.522.046-.037a1.581,1.581,0,0,1-.028-.156.916.916,0,0,1,0-.353,1.311,1.311,0,0,1,.5-.651l1.374-1.159a1.614,1.614,0,0,1,.875-.458c.5-.032.916.38,1.274.71a2.818,2.818,0,0,0,1.668.8,2.416,2.416,0,0,0,.884-.119l.16-.055c-.032-.069-.069-.137-.1-.211s-.11-.234-.16-.348a3.8,3.8,0,0,0,2.153-1.031c.614-.531,1.141-1.159,1.759-1.681s1.434-.994,2.112-1.539c1.576-1.278,2.625-3.157,4.311-4.284a5.621,5.621,0,0,0,1.659-1.292c.124-.179.215-.385.344-.564a5.97,5.97,0,0,1,1.668-1.223,8.248,8.248,0,0,0,1.535-1.53c.33-.4.664-.8.976-1.2.293-.541.536-1.1.843-1.64a8.153,8.153,0,0,1,.916-1.269c.078-.151.156-.3.243-.458s.147-.252.225-.371.115-.169.174-.252c-.174-.307-.339-.573-.417-.683l-.037-.055a5.933,5.933,0,0,0-.536-.5q-.3-.05-.591-.124a5.539,5.539,0,0,1-4.073-5.351h0a5.5,5.5,0,0,1,.6-2.5c.078-.156.165-.3.257-.458a2.44,2.44,0,0,1-.252-.105.972.972,0,0,1-.353-.289.843.843,0,0,1-.147-.371,1.864,1.864,0,0,1,.137-.916,4.12,4.12,0,0,1,.174-.412s0,0,0-.023a5.287,5.287,0,0,1,4.467-2.831,8.04,8.04,0,0,1,5.388,2.144,7.251,7.251,0,0,1,1.315,1.223,7.789,7.789,0,0,1,1.269,3.958,6.01,6.01,0,0,1,0,1.315,3.122,3.122,0,0,1-.092.458c-.028.092-.06.179-.092.266a1.867,1.867,0,0,1-.087.193h0a1.336,1.336,0,0,1-.1.179V632l-.027.041.05.11a1.008,1.008,0,0,0,.05.1h0c.385.032.733.083,1.118.115a2.369,2.369,0,0,1,.541.082,3.692,3.692,0,0,1,.985.614c.793.559,1.764.82,2.538,1.4a9.916,9.916,0,0,1,2.4,3.514c.916,1.686,2.4,3.12,3.051,4.925l.893,2.451a37.615,37.615,0,0,0,1.956,4.719c1.1,2.1,2.593,4,3.478,6.194a.976.976,0,0,0,.458.513,40.17,40.17,0,0,1,3.207,5.351,10.346,10.346,0,0,1,1.09,3.1,7.371,7.371,0,0,1-.238,2.9,13.311,13.311,0,0,1-.554,1.645,2.755,2.755,0,0,0-.188.586.322.322,0,0,0,0,.064,5.551,5.551,0,0,0,.138,1.09,2.007,2.007,0,0,1-.1.871.374.374,0,0,1-.05.128,5.074,5.074,0,0,0-.3.692v.087a3.449,3.449,0,0,0,.193,1.242,16.456,16.456,0,0,1,.188,4.554c-.046.756.568,1.375,1.081,1.929a20.435,20.435,0,0,1,2.405,3.5,11.1,11.1,0,0,1,.985,1.966,17.366,17.366,0,0,1,.527,2.419c.486,2.506,2.066,4.719,2.5,7.234a6.487,6.487,0,0,0,1.466,3.111,6.365,6.365,0,0,1,.632.765,3.087,3.087,0,0,1,.316.683,5.038,5.038,0,0,1,.257,1.732,2.745,2.745,0,0,0,.05.843c.179.582.816.916,1.081,1.452s.078,1.251.179,1.874a2.052,2.052,0,0,0,.751,1.265c-.151.133-.312.257-.458.376a1.87,1.87,0,0,1,.394.412,1.6,1.6,0,0,1,.179.339c.252.582.261,1.274.458,1.888a1.347,1.347,0,0,1,.133.793.885.885,0,0,0-.064.234c0,.174.179.284.247.458A.458.458,0,0,1,989.4,712.809Z" transform="translate(-507.013 -370.535)"/><path class="n" d="M978.7,648.6a12,12,0,0,0,3.207-1.617l3.532-2.25a3.079,3.079,0,0,1-2.291-1.585,8.109,8.109,0,0,1-.861-2.749,14.365,14.365,0,0,0-4.059,2.657c-.49.422-1.521,1.054-1.672,1.709s.806,1.187,1.177,1.626C977.87,646.553,979.071,648.5,978.7,648.6Z" transform="translate(-536.511 -380.375)"/><path class="d" d="M978.7,648.6a12,12,0,0,0,3.207-1.617l3.532-2.25a3.079,3.079,0,0,1-2.291-1.585,8.109,8.109,0,0,1-.861-2.749,14.365,14.365,0,0,0-4.059,2.657c-.49.422-1.521,1.054-1.672,1.709s.806,1.187,1.177,1.626C977.87,646.553,979.071,648.5,978.7,648.6Z" transform="translate(-536.511 -380.375)"/><path class="n" d="M930.01,697.8a3.9,3.9,0,0,1-1.984.6,2.9,2.9,0,0,1-1.668-.8c-.371-.33-.77-.742-1.269-.706a1.636,1.636,0,0,0-.875.458l-1.374,1.155a.958.958,0,0,0-.458,1.177c.064.307.165.669.458.774s.618-.124.916-.206a1.1,1.1,0,0,1,1.077.316.646.646,0,0,1,.183.412c0,.344-.385.568-.728.586s-.687-.1-1.031-.073a.188.188,0,0,0-.11.028.183.183,0,0,0-.064.11.719.719,0,0,0,.22.664,1.919,1.919,0,0,0,.618.371,2.516,2.516,0,0,0,.848.252,4.9,4.9,0,0,0,1.672-.458,7.331,7.331,0,0,1,2.327-.257A8.129,8.129,0,0,0,931.1,702a2.644,2.644,0,0,0,1.768-1.434.372.372,0,0,0,.032-.22.376.376,0,0,0-.16-.188c-1.058-.783-1.489-1.736-2.68-2.291Z" transform="translate(-507.137 -410.986)"/><path class="d" d="M930.01,697.8a3.9,3.9,0,0,1-1.984.6,2.9,2.9,0,0,1-1.668-.8c-.371-.33-.77-.742-1.269-.706a1.636,1.636,0,0,0-.875.458l-1.374,1.155a.958.958,0,0,0-.458,1.177c.064.307.165.669.458.774s.618-.124.916-.206a1.1,1.1,0,0,1,1.077.316.646.646,0,0,1,.183.412c0,.344-.385.568-.728.586s-.687-.1-1.031-.073a.188.188,0,0,0-.11.028.183.183,0,0,0-.064.11.719.719,0,0,0,.22.664,1.919,1.919,0,0,0,.618.371,2.516,2.516,0,0,0,.848.252,4.9,4.9,0,0,0,1.672-.458,7.331,7.331,0,0,1,2.327-.257A8.129,8.129,0,0,0,931.1,702a2.644,2.644,0,0,0,1.768-1.434.372.372,0,0,0,.032-.22.376.376,0,0,0-.16-.188c-1.058-.783-1.489-1.736-2.68-2.291Z" transform="translate(-507.137 -410.986)"/><path class="c" d="M959.915,654.231a2.291,2.291,0,0,0-2.007-.243,4.32,4.32,0,0,0-1.732,1.155,7.9,7.9,0,0,0-1.219,1.613c-.325.564-.577,1.164-.893,1.732a18.062,18.062,0,0,1-2.062,2.8,8.042,8.042,0,0,1-1.535,1.521,6.1,6.1,0,0,0-1.663,1.219c-.128.179-.22.38-.348.564a5.518,5.518,0,0,1-1.654,1.278c-1.686,1.123-2.749,2.987-4.3,4.256-.678.545-1.443.976-2.112,1.535s-1.145,1.141-1.755,1.668a3.756,3.756,0,0,1-2.153,1.022,11,11,0,0,0,2.108,3.317,3.784,3.784,0,0,0,3.574,1.168,1.553,1.553,0,0,0,1.058-.838,3.469,3.469,0,0,1,.22-.646,1.376,1.376,0,0,1,.481-.389,113.256,113.256,0,0,0,14.45-10.015c1.223-.994,2.433-1.883,3.665-2.841a8.026,8.026,0,0,0,1.242-1.086,4.123,4.123,0,0,0,.5-4.545,10.88,10.88,0,0,0-1.15-1.562,13.78,13.78,0,0,0-2.712-2.68Z" transform="translate(-514.807 -387.668)"/><path class="d" d="M959.915,654.231a2.291,2.291,0,0,0-2.007-.243,4.32,4.32,0,0,0-1.732,1.155,7.9,7.9,0,0,0-1.219,1.613c-.325.564-.577,1.164-.893,1.732a18.062,18.062,0,0,1-2.062,2.8,8.042,8.042,0,0,1-1.535,1.521,6.1,6.1,0,0,0-1.663,1.219c-.128.179-.22.38-.348.564a5.518,5.518,0,0,1-1.654,1.278c-1.686,1.123-2.749,2.987-4.3,4.256-.678.545-1.443.976-2.112,1.535s-1.145,1.141-1.755,1.668a3.756,3.756,0,0,1-2.153,1.022,11,11,0,0,0,2.108,3.317,3.784,3.784,0,0,0,3.574,1.168,1.553,1.553,0,0,0,1.058-.838,3.469,3.469,0,0,1,.22-.646,1.376,1.376,0,0,1,.481-.389,113.256,113.256,0,0,0,14.45-10.015c1.223-.994,2.433-1.883,3.665-2.841a8.026,8.026,0,0,0,1.242-1.086,4.123,4.123,0,0,0,.5-4.545,10.88,10.88,0,0,0-1.15-1.562,13.78,13.78,0,0,0-2.712-2.68Z" transform="translate(-514.807 -387.668)"/><path class="b" d="M961.057,806.957a3.05,3.05,0,0,0-.971.6c-.078.1-.128.215-.211.307-.252.3-.7.312-1.049.481a6.22,6.22,0,0,1-.811.458,1.809,1.809,0,0,1-.545.041l-1.833-.055c-.586,0-1.274,0-1.613.49a1.713,1.713,0,0,0-.229.577,2.116,2.116,0,0,0,.037,1.64,2.187,2.187,0,0,0,1.833.719,51.721,51.721,0,0,0,7.789-.151,6.3,6.3,0,0,1,1.058-.041,8.328,8.328,0,0,1,.834.133,16.035,16.035,0,0,0,4.243-.041,2.16,2.16,0,0,0,.7-.151.724.724,0,0,0,.458-.522c.06-.394-.307-.724-.348-1.118-.028-.279.105-.586-.046-.82a1.251,1.251,0,0,0-.183-.2,1.874,1.874,0,0,1-.389-1.013l-.344-1.961a.582.582,0,0,0-.156-.367.545.545,0,0,0-.238-.1,12.529,12.529,0,0,0-4.371.156,12.153,12.153,0,0,1-2.236.11c-.321,0-.458-.059-.687.151A4.564,4.564,0,0,1,961.057,806.957Z" transform="translate(-524.109 -469.957)"/><path class="b" d="M1041.422,810.854a3.011,3.011,0,0,1-.811.316q-1.118.33-2.231.683a1.475,1.475,0,0,0-.545.266,1.311,1.311,0,0,0-.344.939,1.22,1.22,0,0,0,.069.559,1.094,1.094,0,0,0,.371.422,4.971,4.971,0,0,0,3.028.843c1.067,0,2.126-.179,3.207-.206a15.2,15.2,0,0,0,3.853-.215,3.722,3.722,0,0,1,.733-.179,3.666,3.666,0,0,1,.5.032,5.218,5.218,0,0,0,1.975-.179,1.212,1.212,0,0,0,.527-.261.5.5,0,0,0,.142-.536c-.069-.151-.243-.266-.248-.458a.888.888,0,0,1,.064-.234,1.334,1.334,0,0,0-.133-.788,8.4,8.4,0,0,0-.646-2.213,2.813,2.813,0,0,0-2.007-1,5.594,5.594,0,0,0-1.874.055c-.692.147-1.338.458-2.021.655a6.685,6.685,0,0,1-2.428.229c-.545-.046-.357.041-.541.495A1.6,1.6,0,0,1,1041.422,810.854Z" transform="translate(-569.535 -471.508)"/><circle class="n" cx="5.507" cy="5.507" r="5.507" transform="translate(436.041 254.582)"/><path class="c" d="M1013.229,719.413a9.75,9.75,0,0,1-6.268,2.135,5.123,5.123,0,0,1-2.749-.586c-.055-.312-.078-.646-.137-.958a3.51,3.51,0,0,1-2.218-1.888,23,23,0,0,1-1.067-2.809,25.247,25.247,0,0,0-2.121-4.05c-.724-1.2-1.452-2.41-2.291-3.546-.55-.756-1.141-1.475-1.681-2.231a19.7,19.7,0,0,1-3.239-7.037,8.918,8.918,0,0,0-.394-1.429,14.175,14.175,0,0,0-1.375-2.162,7.107,7.107,0,0,1-1-2.561c-.1-.518-.252-1.077-.774-1.132h0a24.924,24.924,0,0,1-3.849,5.993,5.882,5.882,0,0,0-.71.806,7.949,7.949,0,0,0-.458.875,5.5,5.5,0,0,1-1,1.466,2.35,2.35,0,0,1-1.3.706,8.824,8.824,0,0,1-.623,5.411c-.229.5-.5.98-.719,1.489-.884,2.085-.683,4.444-.774,6.707a6.9,6.9,0,0,1-.165,1.411,5.88,5.88,0,0,0-.458,2.841,14.729,14.729,0,0,1-7.546.458,3.621,3.621,0,0,1-1.407-.426,3.925,3.925,0,0,1-.916-.916.979.979,0,0,1-.211-.367c-.1-.435.385-.751.6-1.136a1.168,1.168,0,0,0-.05-1.292c.151-2.488.838-4.916.99-7.4.064-.99.037-1.979.082-2.969s.151-1.952.261-2.923c.252-2.218.861-4.394.774-6.625a3.838,3.838,0,0,1,.458-1.975,9.633,9.633,0,0,1,.916-1.306c1.164-1.507,2.566-3.015,2.983-4.875a10.537,10.537,0,0,1,1.159-2.7A4.77,4.77,0,0,1,976.97,683a4.485,4.485,0,0,0,.669-.577,5.4,5.4,0,0,0,.509-1.429,7.889,7.889,0,0,0,.307-.729,4.083,4.083,0,0,0,.087-.852,7.852,7.852,0,0,1,.788-2.648,8.093,8.093,0,0,1-2.291-1.965,4.759,4.759,0,0,1-.554-.829,10.421,10.421,0,0,1-.664-2.492c-.458-2.021-1.443-3.917-1.585-5.956a6.752,6.752,0,0,0-.22-1.874,6.272,6.272,0,0,0-.353-.729,2.932,2.932,0,0,1-.3-.738,12.581,12.581,0,0,1,0-1.714A12.463,12.463,0,0,0,973,659a7.039,7.039,0,0,1-.055-1.938,16.084,16.084,0,0,0,.147-2.291,8.87,8.87,0,0,1,2.41-6.822l.046-.046c.362-.371.756-.715,1.086-1.118.458-.536.765-1.173,1.228-1.7.206-.234.458-.458.641-.678a5.52,5.52,0,0,1,.614-.692.953.953,0,0,1,.861-.229,2.254,2.254,0,0,0,.261.806c.394.032.747.087,1.136.119a2.375,2.375,0,0,1,.541.083,3.562,3.562,0,0,1,.985.609c.788.554,1.759.816,2.534,1.374a9.758,9.758,0,0,1,2.4,3.491c.916,1.677,2.4,3.1,3.051,4.893q.458,1.223.889,2.437A37.51,37.51,0,0,0,993.725,662c1.1,2.085,2.589,3.968,3.468,6.153a.985.985,0,0,0,.458.509,40.126,40.126,0,0,1,3.207,5.319,10.108,10.108,0,0,1,1.086,3.083,8.972,8.972,0,0,1-.788,4.513,2.251,2.251,0,0,0-.2.646,5.138,5.138,0,0,0,.137,1.081,2.043,2.043,0,0,1-.147.994,4.523,4.523,0,0,0-.3.687,2.938,2.938,0,0,0,.179,1.32,16.266,16.266,0,0,1,.183,4.527c-.041.751.573,1.374,1.081,1.915a20.443,20.443,0,0,1,2.405,3.477,11.452,11.452,0,0,1,.98,1.952,17.125,17.125,0,0,1,.531,2.41c.458,2.488,2.062,4.687,2.488,7.184a6.414,6.414,0,0,0,1.466,3.088,6.665,6.665,0,0,1,.632.765,2.838,2.838,0,0,1,.312.678,5.011,5.011,0,0,1,.261,1.723,2.453,2.453,0,0,0,.05.839c.174.577.816.916,1.077,1.443s.083,1.242.183,1.86A1.98,1.98,0,0,0,1013.229,719.413Z" transform="translate(-531.757 -382.036)"/><path class="n" d="M932.507,694.07a3.917,3.917,0,0,1-1.984.6,2.882,2.882,0,0,1-1.668-.8c-.376-.33-.774-.742-1.269-.706a1.621,1.621,0,0,0-.875.458l-1.374,1.155a1.269,1.269,0,0,0-.495.646,1.227,1.227,0,0,0,.032.531c.06.307.165.669.458.774s.619-.124.916-.206a1.086,1.086,0,0,1,1.077.316.623.623,0,0,1,.183.412c0,.344-.38.573-.729.586s-.683-.1-1.026-.073a.193.193,0,0,0-.115.027.207.207,0,0,0-.064.11.733.733,0,0,0,.247.683,2.091,2.091,0,0,0,.623.376,2.626,2.626,0,0,0,.843.247,4.847,4.847,0,0,0,1.672-.458,7.261,7.261,0,0,1,2.332-.261,8.141,8.141,0,0,0,2.337-.206,2.639,2.639,0,0,0,1.764-1.434.312.312,0,0,0,.032-.22.366.366,0,0,0-.156-.188c-1.063-.784-1.494-1.736-2.685-2.291Z" transform="translate(-508.493 -408.965)"/><path class="b" d="M970.779,627.85a4.628,4.628,0,0,0-.916.4,1.586,1.586,0,0,1-1.3-.073.971.971,0,0,1-.353-.289,1.375,1.375,0,0,1,0-1.278,5.219,5.219,0,0,1,4.65-3.244,8.047,8.047,0,0,1,5.379,2.13,7.525,7.525,0,0,1,1.223,1.278,7.742,7.742,0,0,1,1.269,3.936,5.149,5.149,0,0,1-.119,1.759,2.144,2.144,0,0,1-.994,1.347,1.984,1.984,0,0,1-1.746-.078,7.08,7.08,0,0,1-1.489-1.086,2.289,2.289,0,0,0-.742-.458.77.77,0,0,0-.806.192c-.252.307-.192.806-.422,1.136a1.255,1.255,0,0,1-1.118.376,1.278,1.278,0,0,1-1.063-.357,1.329,1.329,0,0,1-.105-1.086,3.463,3.463,0,0,0,.188-1.113c-.078-.751-.742-1.228-.948-1.924-.133-.458.165-.651.133-1.063a.6.6,0,0,0-.724-.5Z" transform="translate(-531.916 -371.142)"/><path class="d" d="M1003.025,732.191v.046h0a24.924,24.924,0,0,1-3.849,5.993,5.882,5.882,0,0,0-.71.806,7.949,7.949,0,0,0-.458.875,5.5,5.5,0,0,1-1,1.466l-1.374.687L1000,719.28Z" transform="translate(-546.857 -423.115)"/><path class="d" d="M987.683,661.364a8.021,8.021,0,0,1-1.242,1.086c-1.255.958-2.465,1.833-3.665,2.841q-1.48,1.205-2.987,2.35a2.932,2.932,0,0,1-.3-.738,12.581,12.581,0,0,1,0-1.714,12.472,12.472,0,0,0-.367-1.466,7.04,7.04,0,0,1-.055-1.938,16.09,16.09,0,0,0,.147-2.291,8.87,8.87,0,0,1,2.41-6.822l.046-.046a3.564,3.564,0,0,1,.646-.289,2.291,2.291,0,0,1,2.007.243,13.68,13.68,0,0,1,2.749,2.685,10.592,10.592,0,0,1,1.15,1.558,4.123,4.123,0,0,1-.541,4.54Z" transform="translate(-537.861 -386.774)"/><path class="c" d="M962.4,650.5a2.291,2.291,0,0,0-2.011-.243,4.334,4.334,0,0,0-1.727,1.155,7.914,7.914,0,0,0-1.223,1.613c-.321.563-.577,1.164-.889,1.732a17.8,17.8,0,0,1-2.066,2.8,7.891,7.891,0,0,1-1.53,1.521,6.048,6.048,0,0,0-1.668,1.219c-.128.179-.22.38-.344.563a5.6,5.6,0,0,1-1.659,1.278c-1.682,1.122-2.749,2.987-4.3,4.256-.678.545-1.443.976-2.112,1.535s-1.145,1.141-1.759,1.668a3.733,3.733,0,0,1-2.149,1.022,11,11,0,0,0,2.1,3.317,3.806,3.806,0,0,0,3.578,1.168,1.549,1.549,0,0,0,1.054-.838,3.842,3.842,0,0,1,.225-.646,1.375,1.375,0,0,1,.481-.389,113.557,113.557,0,0,0,14.45-10.015c1.223-.994,2.433-1.883,3.665-2.841a7.813,7.813,0,0,0,1.242-1.086,4.123,4.123,0,0,0,.5-4.545,10.3,10.3,0,0,0-1.155-1.558A13.657,13.657,0,0,0,962.4,650.5Z" transform="translate(-516.156 -385.645)"/><g class="o" transform="translate(436.13 254.665)"><path d="M973.659,636.017a1.264,1.264,0,0,1-1.063-.357,1.329,1.329,0,0,1-.105-1.086,3.436,3.436,0,0,0,.188-1.109c-.078-.756-.742-1.228-.948-1.929-.133-.458.165-.651.133-1.063a.6.6,0,0,0-.71-.49,4.63,4.63,0,0,0-.916.4,1.585,1.585,0,0,1-1.3-.069,1.077,1.077,0,0,1-.353-.289,1.375,1.375,0,0,1,0-1.283V628.7a4.828,4.828,0,0,0-.394.8,1.374,1.374,0,0,0,0,1.278.972.972,0,0,0,.353.289,1.585,1.585,0,0,0,1.306.06,4.631,4.631,0,0,1,.916-.4.6.6,0,0,1,.71.49c.032.412-.266.6-.133,1.063.206.7.871,1.173.948,1.924a3.463,3.463,0,0,1-.188,1.113,1.329,1.329,0,0,0,.105,1.086,1.278,1.278,0,0,0,1.063.357,1.255,1.255,0,0,0,1.118-.376,1.548,1.548,0,0,0,.206-.582,1.618,1.618,0,0,1-.939.211Z" transform="translate(-968.036 -628.7)"/><path d="M988.145,642.562a1.975,1.975,0,0,1-1.741-.073,7.574,7.574,0,0,1-1.512-1.081,2.167,2.167,0,0,0-.738-.458.769.769,0,0,0-.806.192,1.483,1.483,0,0,0-.238.641.8.8,0,0,1,.664-.073,2.29,2.29,0,0,1,.742.458,7.075,7.075,0,0,0,1.489,1.086,1.983,1.983,0,0,0,1.745.078,2.121,2.121,0,0,0,.976-1.283A1.723,1.723,0,0,1,988.145,642.562Z" transform="translate(-976.204 -635.314)"/></g><circle class="b" cx="5.695" cy="5.695" r="5.695" transform="translate(395.127 332.149)"/><circle class="d" cx="5.695" cy="5.695" r="5.695" transform="translate(395.127 332.149)"/><circle class="p" cx="3.606" cy="3.606" r="3.606" transform="translate(397.216 334.238)"/><circle class="d" cx="3.606" cy="3.606" r="3.606" transform="translate(397.216 334.238)"/><path class="b" d="M881.43,790.093l3.739,8.448a.724.724,0,0,0,1.315.028l4.444-9.049Z" transform="translate(-484.979 -461.174)"/><path class="d" d="M881.43,790.093l3.739,8.448a.724.724,0,0,0,1.315.028l4.444-9.049Z" transform="translate(-484.979 -461.174)"/><circle class="b" cx="5.695" cy="5.695" r="5.695" transform="translate(359.62 332.149)"/><circle class="d" cx="5.695" cy="5.695" r="5.695" transform="translate(359.62 332.149)"/><circle class="p" cx="3.606" cy="3.606" r="3.606" transform="translate(361.709 334.238)"/><circle class="d" cx="3.606" cy="3.606" r="3.606" transform="translate(361.709 334.238)"/><path class="b" d="M803.94,790.093l3.739,8.448a.724.724,0,0,0,1.315.028l4.44-9.049Z" transform="translate(-442.992 -461.174)"/><path class="d" d="M803.94,790.093l3.739,8.448a.724.724,0,0,0,1.315.028l4.44-9.049Z" transform="translate(-442.992 -461.174)"/><path class="b" d="M924.4,701.113a.852.852,0,0,0-.458-.678.88.88,0,0,0-1.168.49l-3.267,8.114L918.56,745.5h1.517l.568-36.378,3.693-7.454A.875.875,0,0,0,924.4,701.113Z" transform="translate(-505.097 -412.865)"/><path class="c" d="M768.43,715.282l5.127-3.225,55.346-.477,1.425,3.7Z" transform="translate(-416.31 -385.511)"/><path class="b" d="M768.43,722.363v-3.418l62.9-.6-.06,2.314H769.566v1.709Z" transform="translate(-416.31 -389.174)"/><circle class="b" cx="5.695" cy="5.695" r="5.695" transform="translate(354.397 334.142)"/><circle class="p" cx="3.606" cy="3.606" r="3.606" transform="translate(356.486 336.231)"/><path class="b" d="M792.54,794.448l3.739,8.448a.724.724,0,0,0,1.315.027l4.44-9.044Z" transform="translate(-436.815 -463.536)"/><circle class="b" cx="5.695" cy="5.695" r="5.695" transform="translate(398.636 334.142)"/><circle class="p" cx="3.606" cy="3.606" r="3.606" transform="translate(400.726 336.231)"/><path class="b" d="M889.1,794.448l3.739,8.448a.724.724,0,0,0,1.315.027l4.44-9.044Z" transform="translate(-489.135 -463.536)"/><rect class="h" width="37.569" height="37.569" transform="translate(361.054 290.392)"/><path class="c" d="M820.85,736.834h6.368v9.548H820.85Zm7.958-4.774h6.364v14.322h-6.364Zm7.958,7.954h6.364v6.368h-6.364Z" transform="translate(-452.154 -430.04)"/><rect class="g" width="37.569" height="37.569" transform="translate(367.468 252.823)"/><path class="c" d="M845.27,668.968H858v2.387H845.27Zm6.368-6.364a1.594,1.594,0,0,0,0-3.184,1.754,1.754,0,0,0-.458.059L847.9,657.06l-.2.174,2.433,3.317a1.508,1.508,0,0,0-.073.458A1.59,1.59,0,0,0,851.638,662.6Z" transform="translate(-465.386 -389.402)"/><path class="c" d="M846.936,643.11a10.341,10.341,0,0,0-8.151,16.709h2.923l.2-.2,1.1-1.095-1.136-1.141-1.1,1.1a7.9,7.9,0,0,1-1.75-4.229h1.549v-1.567h-1.549a7.9,7.9,0,0,1,1.75-4.229l1.1,1.095,1.136-1.141-1.1-1.1a7.917,7.917,0,0,1,4.229-1.75v1.549h1.59v-1.549a7.9,7.9,0,0,1,4.229,1.75l-1.1,1.1L852,649.547l1.1-1.095a7.94,7.94,0,0,1,1.75,4.229H853.3v1.59h1.553a7.94,7.94,0,0,1-1.75,4.229l-1.1-1.1-1.141,1.141,1.1,1.095.2.2h2.941a10.345,10.345,0,0,0-8.151-16.709Z" transform="translate(-460.684 -381.843)"/><rect class="d" width="37.569" height="37.569" transform="translate(171.375 166.231)"/><rect class="h" width="37.569" height="37.569" transform="translate(170.459 165.314)"/><path class="c" d="M414.829,453.85h3.184v19.1h-3.184Zm-4.774,13.525h3.18v5.571H410.05Zm9.548-3.184h3.207v8.755H419.6Zm4.774-4.774h3.184v13.529h-3.184Z" transform="translate(-229.567 -279.295)"/><rect class="d" width="37.569" height="37.569" transform="translate(374.798 165.772)"/><rect class="h" width="37.569" height="37.569" transform="translate(373.882 164.856)"/><path class="c" d="M866.127,464.751l-4.339,6.634a2.35,2.35,0,0,1,.536,1.5,2.387,2.387,0,1,1-4.774,0,2.8,2.8,0,0,1,.041-.458l-2.863-1.668a2.378,2.378,0,0,1-2.831.357l-3.047,2.854v2.845a2.131,2.131,0,0,0,2.121,2.126h18.038a2.135,2.135,0,0,0,2.126-2.126V466.268l-2.914-1.938a2.4,2.4,0,0,1-2.094.421Z" transform="translate(-467.326 -284.973)"/><path class="c" d="M853.074,459.523a2.387,2.387,0,0,1,2.387,2.387c0,.1,0,.206,0,.307l2.987,1.672a2.382,2.382,0,0,1,1.512-.541,2.64,2.64,0,0,1,.518.055l4.348-6.73a2.379,2.379,0,1,1,4.316-1.375,2.534,2.534,0,0,1-.064.564l2.057,1.375v-3.981a2.135,2.135,0,0,0-2.126-2.126H850.971a2.13,2.13,0,0,0-2.121,2.126v11.4l1.988-1.906a2.382,2.382,0,0,1,2.236-3.207Z" transform="translate(-467.326 -277.821)"/><rect class="d" width="37.569" height="37.569" transform="translate(273.087 167.605)"/><rect class="h" width="37.569" height="37.569" transform="translate(272.171 166.689)"/><path class="c" d="M637.27,480.968H650v2.387H637.27Zm6.368-6.364a1.6,1.6,0,1,0,0-3.207,1.752,1.752,0,0,0-.458.06l-3.285-2.4-.2.174,2.433,3.317a1.507,1.507,0,0,0-.073.458,1.59,1.59,0,0,0,1.581,1.594Z" transform="translate(-352.683 -287.536)"/><path class="c" d="M638.936,455.11a10.341,10.341,0,0,0-8.151,16.709h2.923l.2-.2,1.1-1.1-1.136-1.141-1.1,1.1a7.9,7.9,0,0,1-1.75-4.229h1.549v-1.567h-1.549a7.9,7.9,0,0,1,1.75-4.229l1.1,1.1,1.136-1.141-1.095-1.095a7.917,7.917,0,0,1,4.229-1.75v1.549h1.59v-1.549a7.9,7.9,0,0,1,4.229,1.75l-1.095,1.095L644,461.547l1.1-1.1a7.941,7.941,0,0,1,1.75,4.229H645.3v1.59h1.553a7.941,7.941,0,0,1-1.75,4.229l-1.1-1.1-1.141,1.141,1.1,1.1.2.2h2.941a10.345,10.345,0,0,0-8.151-16.709Z" transform="translate(-347.981 -279.977)"/><rect class="d" width="37.569" height="37.569" transform="translate(257.509 226.708)"/><rect class="h" width="37.569" height="37.569" transform="translate(254.302 223.959)"/><path class="c" d="M603.457,588.09l2.552,2.547-5.434,5.443-4.458-4.458-8.247,8.27,1.571,1.572,6.685-6.685,4.458,4.458,7.014-7.01,2.552,2.552V588.09Z" transform="translate(-325.916 -352.031)"/><path class="q" d="M557.7,702.76c.27-1.155.458-2.167.458-2.167a4.458,4.458,0,0,1,.5-2.2v-.312h0v-2.323a7.764,7.764,0,0,0-.582-1.214c-.422-.729,0-3.4,0-3.4s1.549-3.766,1.168-6.153,3.17-10.634,3.17-10.634a10.3,10.3,0,0,0-.339-2.346,2.014,2.014,0,0,1-.041-.495v-.06h0a18.114,18.114,0,0,1,1.3-4.527l-.165-5.631a16.553,16.553,0,0,1,.5-7.789,36.433,36.433,0,0,0,.916-3.757,1.756,1.756,0,0,1,.06-.316c-2.671-.408-4.71-.747-4.71-.747s1.549-6.478,2.593-7.615,1.883-4.7,1.883-4.7.545-4.582-.334-5.915a8.937,8.937,0,0,1-1-3.665s-2.011-1.457-2.263-2.1a10.9,10.9,0,0,1-.669-2.877c0-.77.252-1.457.169-1.865s.586-1.943.252-2.671a2.006,2.006,0,0,1-.137-.706v.05a9.812,9.812,0,0,1,.179-1.9,5.361,5.361,0,0,1,1.984-1.063l.046-.174.115-.458a2.234,2.234,0,0,1,.2-.119v-.82l-.316-1.48c-.614-2.57,2.813-2.955,2.813-2.955a1.805,1.805,0,0,1,.976-.852c.692-.243.115,3.867-.211,4.123a15.469,15.469,0,0,0-1.375,2.117h0l-.06.105a1.564,1.564,0,0,1,.156.16l-.128.916v.137a3.783,3.783,0,0,1,.545.916,2,2,0,0,0-.5,1.457,4.581,4.581,0,0,1-.206,1.782c.037-.041.481-.522.916-.4s1.672.486,1.672.486.916.16.838.367.628,1.09.628,1.09l2.474-2.341c.023-.073.05-.142.069-.215a5.345,5.345,0,0,0,.215-1.026,5.434,5.434,0,0,1-.788-.252,1.644,1.644,0,0,1-.687-.458,2.666,2.666,0,0,1-.4-1.063,14.863,14.863,0,0,0-.916-2.048,6.662,6.662,0,0,1-.495-3.665,2.415,2.415,0,0,1,.38-1.077c.4-.559,1.136-.783,1.668-1.228s.88-1.118,1.5-1.452a2.978,2.978,0,0,1,1.878-.16,10.016,10.016,0,0,1,3.5,1.274,1.773,1.773,0,0,0,1.173.385,1.576,1.576,0,0,0,.848-.618v-.037l.027-.032a4.384,4.384,0,0,1,.385,1.833v.3a.843.843,0,0,0,0,.105.517.517,0,0,0,0,.083h0a.415.415,0,0,0,0,.128.917.917,0,0,0,.234.334,2.019,2.019,0,0,1,.2.275.3.3,0,0,0-.037-.1,1.434,1.434,0,0,1,.257.779.779.779,0,0,1-.183.559,3.063,3.063,0,0,1-.4.325,4.928,4.928,0,0,1,.073.825,4.8,4.8,0,0,1-2.332,4.082l-.082.211a5.869,5.869,0,0,0-.458,2.7.5.5,0,0,0,.028.2l.092.1h0s4.082.041,5.04-.829,2.428,2.126,2.428,2.126,1.462.284,1.755,0,2.011-.041,2.011-.041a3.666,3.666,0,0,1,2.552-.916,7.488,7.488,0,0,1,1.874-1.04h.046a2.057,2.057,0,0,1,.916-.115,19,19,0,0,0,2.593-2.552c.586-.889,3.377-4.2,3.39-4.215v-.156l.032-.486a1.578,1.578,0,0,0,.252,0,.581.581,0,0,1,.055-.165,9.27,9.27,0,0,1,.591-1.375s0-.609-.174-.76a10.609,10.609,0,0,1,.073-2.382s1.833-4.229,3.432-1.072c0,0,3.065,2.043.49,4.426,0,0-1.026.495-1.173.889-.092.257-.458.971-.678,1.448l-.1.211h.027l-.037.4v.156c.486.275.816.545.733.756a4.749,4.749,0,0,0-.293,1.09s-3.555,4.458-4.013,6.359c0,0-9.544,5.672-12.682,6.075l.545,2.836s.165,1.7.124,2.291.376,3.363.376,3.363.545,4.05,1.008,4.618.376,3,.376,3a20.156,20.156,0,0,0,.628,3.441,8.81,8.81,0,0,1,.124,3.445s1.59,3.642-2.217,1.173c0,0-1.869-.115-4.023-.188v1.109c.027,2.085.041,4.962-.055,7.138-.165,3.849-1.338,11.454-1.338,11.454v3.826a5.089,5.089,0,0,1,.11,1.095,7.107,7.107,0,0,1-1.031,3.83l-.293,2.552a10,10,0,0,0-.7,2.685,1.3,1.3,0,0,0,.032.243,1.836,1.836,0,0,1,.032.389,22.213,22.213,0,0,1-.66,3.931s-.041,2.795-.458,2.96.458,1.608.728,2.03a.386.386,0,0,0,0-.078l.05.082a1.948,1.948,0,0,1,.128.71,1.013,1.013,0,0,1-.458.981c-.8.486-1.223.889-.55,1.054a6.232,6.232,0,0,1,.738.156.821.821,0,0,0,.037-.1.458.458,0,0,1,.275.49,2.089,2.089,0,0,1-.247.948,10,10,0,0,1-1.136,2.066l-.321-.037a1.69,1.69,0,0,0,.188.344,1.324,1.324,0,0,0,.458.422,1.522,1.522,0,0,0,.573.2,1.613,1.613,0,0,1,1.187.577,1.231,1.231,0,0,1-.147,1.92l-2.992,1.031s-5.15.669-4.875-.486.458-2.167.458-2.167a4.55,4.55,0,0,1,.417-2.048,3.515,3.515,0,0,1,.183-.3h-.183s-.376-2.552-.88-3.038c-.115-.115-.142-.2-.115-.266-.05-.137.078-.22.247-.266a.658.658,0,0,1,.037.1,2.5,2.5,0,0,1,.5-.055s.17-1.338-.376-1.833a.527.527,0,0,1-.105-.4,2.245,2.245,0,0,1,.055-.541l.023.027a19.89,19.89,0,0,1,1.2-3.138,3.848,3.848,0,0,0-.293-1.7c-.334-.486.041-6.6.041-6.6a20.1,20.1,0,0,1,.252-4.334,4.873,4.873,0,0,0-.458-3v-.092h0a2.815,2.815,0,0,1,.05-.458v.028c.082-.784.243-2.2.362-2.854.165-.916-.041-5.388-.041-5.388l-.692-1.86-1.338,3.28-1.411,4.371a3.72,3.72,0,0,0-.733,1.865v.431a2.621,2.621,0,0,1-.458,1.558,6.781,6.781,0,0,1-.962,2.593,2.337,2.337,0,0,0-.586,1.539,25.45,25.45,0,0,1-1.049,3.523,5.38,5.38,0,0,0-.293,2.039h0v.11s-.1,1.072-.1,1.97v.3a3.088,3.088,0,0,0,.087.729v-.11a7.737,7.737,0,0,1,.215,1.869,4.935,4.935,0,0,1-.8,3.1c-1.132,1.3-1.833,1.132-1.833,1.132s.545,1.622,1.214,1.947a.3.3,0,0,1,.069.046.713.713,0,0,0,0-.1.8.8,0,0,1,.2.6,4.343,4.343,0,0,1-.829,2.4,1.329,1.329,0,0,1-.568.33l.105.064a2.531,2.531,0,0,0,.234.11,1.305,1.305,0,0,0,.339.092,1.6,1.6,0,0,1,1.187.573,1.231,1.231,0,0,1-.147,1.92l-2.992,1.035S557.427,703.91,557.7,702.76Z" transform="translate(-309.562 -360.449)"/><path class="b" d="M595.027,817.453l2.9-1.031a1.255,1.255,0,0,0,.142-1.92,1.535,1.535,0,0,0-1.145-.577,1.416,1.416,0,0,1-.554-.2,1.279,1.279,0,0,1-.458-.422,2.14,2.14,0,0,1-.334-1.118s-3.18-.916-4.05,0a2.454,2.454,0,0,0-.385.563,4.733,4.733,0,0,0-.4,2.048s-.16,1.013-.426,2.167S595.027,817.453,595.027,817.453Z" transform="translate(-327.232 -473.236)"/><path class="b" d="M564.087,814.337l2.9-1.035a1.258,1.258,0,0,0,.142-1.92,1.535,1.535,0,0,0-1.145-.573,1.236,1.236,0,0,1-.334-.092,1.955,1.955,0,0,1-.22-.11,1.851,1.851,0,0,1-.793-1.539s-3.18-.916-4.05,0a2.48,2.48,0,0,0-.3.417,4.582,4.582,0,0,0-.486,2.2s-.165,1.013-.426,2.167S564.087,814.337,564.087,814.337Z" transform="translate(-310.468 -471.545)"/><path class="p" d="M559.914,746.061a8.348,8.348,0,0,1,.568,1.214v3.207c.811,1.333,5.04.889,5.589.16s1.173-2.634.527-2.955-1.177-1.947-1.177-1.947.692.165,1.782-1.132.77-4.174.568-4.861a14.446,14.446,0,0,1,0-3,5.993,5.993,0,0,1,.284-2.149,26.438,26.438,0,0,0,1.013-3.523,2.382,2.382,0,0,1,.568-1.539,6.829,6.829,0,0,0,.916-2.593,2.648,2.648,0,0,0,.4-1.741,3.527,3.527,0,0,1,.692-2.1l1.374-4.375,1.3-3.28.729,1.9s.206,4.458.041,5.388-.4,3.4-.4,3.4a5.048,5.048,0,0,1,.458,3,21.562,21.562,0,0,0-.243,4.334s-.367,6.116-.041,6.6a3.941,3.941,0,0,1,.284,1.7s-1.659,3.565-1.132,4.05.362,1.833.362,1.833-1.132,0-.646.486.848,3.038.848,3.038l4.9.568a10.307,10.307,0,0,0,1.1-2.066c.646-1.5-.124-1.338-.774-1.5s-.238-.568.531-1.054.321-1.581.321-1.581-1.173-1.984-.77-2.144.458-2.96.458-2.96.806-3.322.6-4.211a8.137,8.137,0,0,1,.651-3.038l.284-2.552a7.02,7.02,0,0,0,.884-4.834v-3.931s1.136-7.615,1.3-11.454c.105-2.465.073-5.828.041-7.926,0-1.177-.041-1.956-.041-1.956l-17.5-1.833a14.415,14.415,0,0,1-.316,2.6,37.691,37.691,0,0,1-.916,3.762,17.075,17.075,0,0,0-.486,7.789l.16,5.631s-1.539,3.766-1.214,5.04a10.876,10.876,0,0,1,.321,2.35s-3.441,8.219-3.074,10.611-1.136,6.158-1.136,6.158S559.511,745.332,559.914,746.061Z" transform="translate(-310.67 -411.969)"/><g class="r" transform="translate(249.064 288.449)"><path d="M603.315,801.182a.944.944,0,0,0,.435-.692l.05.082s.458,1.1-.325,1.581l-.247.165c-.142-.028-.3-.046-.458-.082C602.133,802.1,602.545,801.667,603.315,801.182Z" transform="translate(-582.884 -755.567)"/><path d="M590.771,800.309c-.128-.119-.124-.431-.046-.829a2.2,2.2,0,0,1,.27,1.173A1,1,0,0,0,590.771,800.309Z" transform="translate(-576.497 -755.02)"/><path d="M592.44,757.31a5.5,5.5,0,0,1,.321,1.489,5.692,5.692,0,0,0-.371-1.022S592.408,757.594,592.44,757.31Z" transform="translate(-577.43 -732.171)"/><path d="M568.561,752.128a2.092,2.092,0,0,1-.041-.458c.06.3.1.586.133.829C568.625,752.389,568.6,752.279,568.561,752.128Z" transform="translate(-564.495 -729.115)"/><path d="M592.6,787.656a2.548,2.548,0,0,1-.124-.916,3.027,3.027,0,0,1,.238,1.136.963.963,0,0,0-.115-.22Z" transform="translate(-577.475 -748.117)"/><path d="M603.847,742.346s-.041,2.795-.458,2.955h0c-.206-.458-.344-.916-.16-.971.4-.165.458-2.96.458-2.96s.811-3.322.609-4.211a8.157,8.157,0,0,1,.646-3.038l.284-2.552a7.019,7.019,0,0,0,.889-4.82v-3.931s1.136-7.615,1.3-11.454c.105-2.465.078-5.828.041-7.926v-1h.142s0,.779.037,1.956c.037,2.1.064,5.461-.037,7.926-.165,3.849-1.3,11.454-1.3,11.454V727.7a7.037,7.037,0,0,1-.916,4.82l-.284,2.552a8.156,8.156,0,0,0-.646,3.038C604.654,739,603.847,742.346,603.847,742.346Z" transform="translate(-583.256 -702.44)"/><path d="M559.752,799.662a7.771,7.771,0,0,1,.568,1.214v.568c-.092-.206-.224-.481-.4-.811a2.424,2.424,0,0,1-.179-1Z" transform="translate(-559.737 -755.101)"/><path d="M572.2,794.014a7.181,7.181,0,0,1-.4-.962s.687.165,1.782-1.132c.793-.944.838-2.726.724-3.89.206.692.531,3.565-.564,4.861A2.8,2.8,0,0,1,572.2,794.014Z" transform="translate(-566.273 -748.816)"/><path d="M576.979,755.146a21.255,21.255,0,0,0-.083,2.4,3.524,3.524,0,0,0-.082-.376,14.446,14.446,0,0,1,0-3,6.1,6.1,0,0,1,.284-2.149,27.158,27.158,0,0,0,1.013-3.523,2.382,2.382,0,0,1,.568-1.539,6.814,6.814,0,0,0,.916-2.589,2.685,2.685,0,0,0,.408-1.746,3.5,3.5,0,0,1,.687-2.1l1.374-4.375,1.3-3.28.729,1.9v.619l-.55-1.544-1.3,3.28-1.374,4.375a3.555,3.555,0,0,0-.687,2.108,2.648,2.648,0,0,1-.4,1.741,7.127,7.127,0,0,1-.916,2.589,2.4,2.4,0,0,0-.564,1.539,27.172,27.172,0,0,1-1.013,3.528A6.22,6.22,0,0,0,576.979,755.146Z" transform="translate(-568.941 -718.928)"/></g><path class="s" d="M569.775,614.335l.3,1.48v1.145l1.691.174.188-.353h0a15.5,15.5,0,0,1,1.315-2.121c.312-.261.866-4.375.2-4.123a1.777,1.777,0,0,0-.939.852S569.175,611.765,569.775,614.335Z" transform="translate(-316.073 -364.188)"/><path class="d" d="M570.45,623.758l1.691.174.188-.353h0a1.485,1.485,0,0,0-1.865-.307Z" transform="translate(-316.478 -370.985)"/><path class="t" d="M569.52,624.725l2.227.518.05-.33.124-.916a1.53,1.53,0,0,0-2.158-.293l-.11.458Z" transform="translate(-315.974 -371.156)"/><path class="s" d="M648.32,610.759l2.378,1.274s.087-.188.215-.458c.224-.458.563-1.187.655-1.443.142-.394,1.132-.916,1.132-.916,2.492-2.378-.458-4.421-.458-4.421-1.567-3.161-3.317,1.072-3.317,1.072a10.571,10.571,0,0,0-.073,2.378c.174.151.17.761.17.761a9.624,9.624,0,0,0-.573,1.374A3.9,3.9,0,0,0,648.32,610.759Z" transform="translate(-358.671 -360.447)"/><path class="d" d="M648.32,618.743l2.378,1.274s.087-.188.215-.458c-.339-.28-1.526-1.246-1.92-1.2a3.082,3.082,0,0,1-.564,0C648.357,618.6,648.32,618.743,648.32,618.743Z" transform="translate(-358.671 -368.431)"/><path class="t" d="M647.78,619.663l2.676,1.315.055-.573.037-.4s-1.549-1.329-2.007-1.278a2.456,2.456,0,0,1-.7,0l-.032.458Z" transform="translate(-358.378 -368.631)"/><path class="s" d="M584,629.586s11.656,1.315,9.479.609a2.916,2.916,0,0,1-2.245-2.529,6.052,6.052,0,0,1,.431-2.7,11.7,11.7,0,0,1,1.045-2.1s-8.911-4.9-7.129-.458a7.085,7.085,0,0,1,.5,2.107,5.858,5.858,0,0,1-.229,2.14A6.359,6.359,0,0,1,584,629.586Z" transform="translate(-323.82 -369.616)"/><path class="d" d="M587.171,622.426a7.083,7.083,0,0,1,.5,2.107c.838.706,1.759.66,2.941.66.916,0,1.915.22,2.639-.22a11.692,11.692,0,0,1,1.045-2.1S585.389,617.968,587.171,622.426Z" transform="translate(-325.41 -369.621)"/><circle class="s" cx="4.82" cy="4.82" r="4.82" transform="translate(260.547 246.239)"/><path class="d" d="M584,636.231s11.656,1.315,9.479.609a2.916,2.916,0,0,1-2.245-2.529,6.46,6.46,0,0,0-2.5-1.324,3.5,3.5,0,0,0-2.112-.032,2.988,2.988,0,0,0-.77.357A6.359,6.359,0,0,1,584,636.231Z" transform="translate(-323.82 -376.261)"/><path class="d" d="M569.52,625.571l2.227.518.05-.33a1.966,1.966,0,0,0-2.144-.733Z" transform="translate(-315.974 -372.002)"/><path class="d" d="M647.78,620.234l2.676,1.315.055-.573a19.982,19.982,0,0,0-2.7-1.2Z" transform="translate(-358.378 -369.202)"/><path class="d" d="M573.94,701.307c4.513.715,10.936,1.64,11.958,1.329a29.762,29.762,0,0,1,5.9-.147c0-1.177-.041-1.956-.041-1.956l-17.5-1.833a14.42,14.42,0,0,1-.316,2.607Z" transform="translate(-318.369 -411.964)"/><path class="b" d="M564.11,657.693s14.863,2.552,16.462,2.066,9.782.037,9.782.037c3.688,2.474,2.149-1.173,2.149-1.173a8.986,8.986,0,0,0-.124-3.441,21.032,21.032,0,0,1-.6-3.445s.082-2.428-.367-3-.971-4.618-.971-4.618-.4-2.749-.362-3.363a22.683,22.683,0,0,0-.124-2.291l-.527-2.836c3.038-.408,12.274-6.075,12.274-6.075.458-1.906,3.885-6.359,3.885-6.359a4.664,4.664,0,0,1,.284-1.095c.243-.646-3.4-1.943-3.4-1.943s-2.717,3.322-3.28,4.211a18.425,18.425,0,0,1-2.511,2.552,2.006,2.006,0,0,0-.916.115h-.046a7.241,7.241,0,0,0-1.833,1.04,3.528,3.528,0,0,0-2.469.916s-1.659-.243-1.943.041-1.7,0-1.7,0-1.42-3-2.35-2.13-4.866.857-4.866.857a5.815,5.815,0,0,0-2.612-1.462,3.5,3.5,0,0,0-2.112-.037,2.7,2.7,0,0,0-.834.4l-2.4,2.35s-.687-.916-.6-1.1-.811-.366-.811-.366-1.173-.362-1.622-.486-.852.362-.889.4a4.7,4.7,0,0,0,.2-1.778,2.039,2.039,0,0,1,.486-1.457c-1.416-3.487-4.618-.568-4.618-.568a6.717,6.717,0,0,0-.041,2.63c.321.728-.321,2.291-.243,2.676s-.16,1.095-.16,1.865a10.852,10.852,0,0,0,.651,2.873c.243.651,2.185,2.107,2.185,2.107a9.316,9.316,0,0,0,.971,3.665c.852,1.374.325,5.91.325,5.91s-.811,3.565-1.833,4.7S564.11,657.693,564.11,657.693Z" transform="translate(-313.042 -369.408)"/><path class="u" d="M589.078,617.484a1.022,1.022,0,0,1-.376.651.967.967,0,0,1-.458.1,9.778,9.778,0,0,1-4.362-.408,1.705,1.705,0,0,1-.66-.458,2.667,2.667,0,0,1-.385-1.068,15.794,15.794,0,0,0-.889-2.048,6.872,6.872,0,0,1-.481-3.665,2.538,2.538,0,0,1,.371-1.077c.389-.554,1.1-.779,1.613-1.223s.848-1.122,1.452-1.452a2.749,2.749,0,0,1,1.833-.16,9.5,9.5,0,0,1,3.395,1.274,1.727,1.727,0,0,0,1.136.385,1.585,1.585,0,0,0,.834-.641,4.472,4.472,0,0,1,.357,2.1.617.617,0,0,0,.225.651,1.226,1.226,0,0,1,.229,1.512c-.156.183-.394.284-.545.458-.275.339-.183.829-.174,1.26a.651.651,0,0,1-.11.426.6.6,0,0,1-.591.142,1.676,1.676,0,0,0-.637-.06,1.067,1.067,0,0,0-.55.426,7.5,7.5,0,0,0-1.228,2.873Z" transform="translate(-322.41 -362.054)"/><path class="d" d="M592.235,636.62s-6.025.8-6.565-.11" transform="translate(-324.724 -378.267)"/><path class="b" d="M327.566,740.69h-4.582a.458.458,0,1,0,0,.916h.916v6.121H308.209a.458.458,0,0,0-.344-.165h-4.582a.458.458,0,0,0,0,.916h.916v6.286H289.053a.458.458,0,0,0-.431-.33h-4.582a.458.458,0,1,0,0,.916h.458v6.456h-15.39a.456.456,0,0,0-.188-.041H264.34a.458.458,0,1,0,0,.916h.458v6.162H249.6a.458.458,0,0,0-.371-.206h-4.582a.458.458,0,1,0,0,.916h.458v6.872H348.651V740.69Z" transform="translate(-139.697 -434.716)"/><path class="v" d="M182.912,695.01a3.665,3.665,0,0,0,1.562,1.7,13.449,13.449,0,0,1,1.952,1.333c.706.669,1.164,1.594,1.993,2.107a4.035,4.035,0,0,0,1.008.417,6.351,6.351,0,0,0,1.242.252,8.779,8.779,0,0,0,3.207-.55,2.973,2.973,0,0,0,.962-.422,2.679,2.679,0,0,0,.367-.353,2.062,2.062,0,0,0,.5-.8.65.65,0,0,0-.046-.481,1.109,1.109,0,0,0-.408-.389,6.927,6.927,0,0,0-.916-.509,4.7,4.7,0,0,1-1.2-.637,2.8,2.8,0,0,1-.582-.783,7.587,7.587,0,0,1-.66-1.581,5.146,5.146,0,0,0-.367-1.077c-.2-.362-.513-.673-.724-1.026a.846.846,0,0,0,.334-.046,3.125,3.125,0,0,0-.367-1.622c.458.037.673-.563.6-1.008s-.289-.916-.1-1.319a2.447,2.447,0,0,1,.518-.6c.728-.77.706-1.943,1.008-2.951a8.56,8.56,0,0,1,.756-1.64c.875-1.581,1.278-3.56,2.689-4.7l1.269-1.026a.54.54,0,0,0,.2-.234c.073-.2-.082-.4-.073-.614.023-.371.527-.522.7-.857a2.118,2.118,0,0,0,.124-.509c.133-.582.7-.944,1.109-1.375a3.12,3.12,0,0,0,.811-2.492,2.112,2.112,0,0,1-.037-.678,3.266,3.266,0,0,1,.179-.458,4.124,4.124,0,0,0,.151-1.484,13.287,13.287,0,0,1,.289-2.359l6.258-1.42c.041.046.078.092.124.137.554.563.829,1.374,1.374,1.961l.715.788c.137.151.279.353.2.536s-.188.188-.275.289a.49.49,0,0,0,.422.774.944.944,0,0,0,.49,1.416,3.793,3.793,0,0,1-.522.8.66.66,0,0,1,.137.4,1.914,1.914,0,0,1-.092.257,1.086,1.086,0,0,0,.05.577,8.673,8.673,0,0,1,0,4.49,2.594,2.594,0,0,0-.119.619,1.832,1.832,0,0,0,.078.518c.211.756.632,1.549.339,2.291a4.724,4.724,0,0,0-.247.536c-.165.55.215,1.09.421,1.626a5.5,5.5,0,0,1,.2,2.291c-.05,1.063-.105,2.121-.156,3.18a1.265,1.265,0,0,0,.06.573.976.976,0,0,0,.641.495c-.064.215-.128.431-.2.641a.38.38,0,0,0-.641-.027.679.679,0,0,0-.082.3,7.61,7.61,0,0,0,.371,2.25,1.045,1.045,0,0,1,.032.357,2.254,2.254,0,0,1-.124.362.535.535,0,0,0-.027.092,2.232,2.232,0,0,0,.1,1.09.962.962,0,0,0,.316.582.916.916,0,0,0,.412.128c2.19.252,4.325-1.173,6.515-.916.458.05.889.169,1.338.215a7.025,7.025,0,0,0,1.581-.078c.733-.1,1.462-.22,2.181-.362a5.424,5.424,0,0,0,1.59-.509,1.979,1.979,0,0,0,1.022-1.251.939.939,0,0,0-.092-.706.816.816,0,0,0-.183-.192,1.969,1.969,0,0,0-.568-.27l-.848-.307a5.091,5.091,0,0,0-1.265-.33c-.316-.028-.641,0-.958,0a6.285,6.285,0,0,1-3.024-1.315l-1.255-.834a.811.811,0,0,0-.857-.142l-.174.064.774-.431q.055-5.663-.027-11.321a11.861,11.861,0,0,0-.266-2.79c-.137-.522-.284-1.205.174-1.5.119-.408-.124-.816-.234-1.219s.046-.985.458-.99a5.2,5.2,0,0,1-.426-2.492,18.113,18.113,0,0,0-.137-2.094,5.924,5.924,0,0,0-.724-2.465l6.176-1.4-.2-.893.916-.206-4.976-21.9a.582.582,0,0,0,.38-.522c-.023-.215-.234-.412-.165-.619.041-.124.165-.192.243-.3a.71.71,0,0,0-.078-.815.362.362,0,0,1-.087-.2.4.4,0,0,1,.046-.142,1.072,1.072,0,0,0-.307-1.274.418.418,0,0,0-.179-.092,1.3,1.3,0,0,1-.421,0c-.147-.046-.151-.128-.316-.142h-.05l-1.883-8.288a8.249,8.249,0,0,0,.33-1.228,3.9,3.9,0,0,0-.2-2.222,4.544,4.544,0,0,0,1.09-.82.614.614,0,0,0,.147-.779,5.548,5.548,0,0,0-1.833-2.506c-.261-.2-.88-.719-1.26-.6q.142-.206.3-.4a4.035,4.035,0,0,0,.6-.751,5.232,5.232,0,0,0,3.12-5.956,1.59,1.59,0,0,0-.06-.211.847.847,0,0,0,.706-.257.916.916,0,0,0,.083-.916,7.288,7.288,0,0,0-.458-.825c-.344-.623-.261-1.429-.614-2.011a6.717,6.717,0,0,0-1.251-1.374,4.009,4.009,0,0,0-3.335-.76,7.248,7.248,0,0,0-3.138,1.576,4.121,4.121,0,0,1-.88.609c-.522.238-1.164.229-1.6.6a1.984,1.984,0,0,0-.284,2.108,3.6,3.6,0,0,1,.293,2.195,4.577,4.577,0,0,0-.252.646,1.869,1.869,0,0,0,.307,1.187,1.467,1.467,0,0,0,.147-.261.06.06,0,0,1,0,.027c.032.119.069.238.1.357a.357.357,0,0,0-.151.032c-.215.1-.312.348-.49.5s-.623.257-.71.545c-.041.137,0,.289-.05.422-.11.261-.495.261-.7.458a.586.586,0,0,0-.115.6,1.241,1.241,0,0,0,.156.312.66.66,0,0,0,.041.4l-2.557.618a5.626,5.626,0,0,0-1.187.389,1.833,1.833,0,0,0-.875.857.155.155,0,0,1-.1.124.206.206,0,0,1-.128,0,2.291,2.291,0,0,0-1.324.064,7.161,7.161,0,0,0-3.386,2.474,1.246,1.246,0,0,0-.325.641c-.023.275.128.582,0,.82l-.133.055a6.519,6.519,0,0,0-1.086.458c-.371.22-.7.509-1.045.765-1.425,1.045-3.308,1.562-4.316,3.006-.33.458-.568,1.049-1.072,1.342a6.911,6.911,0,0,0-.687.353,2.121,2.121,0,0,0-.554,1.425l-9,2.048.2.889-.916.206,8.32,36.612,7.679-1.741a2.2,2.2,0,0,0,.073.518,4.449,4.449,0,0,0,.527,1.521.875.875,0,0,0-.6.811c-.041.353.023.719-.05,1.068a3.543,3.543,0,0,1-1.127,1.53c-2.043,2.1-2.474,5.2-3.519,7.908a31.421,31.421,0,0,0-1.448,3.789c-.367,1.489-.389,3.207-1.562,4.238a.821.821,0,0,0-.266.312.5.5,0,0,0,0,.284,1.374,1.374,0,0,0,.435.7l-.055.105a.419.419,0,0,0-.137,0c-.238,0-.371.3-.458.486a5.237,5.237,0,0,0-.6,2.066.593.593,0,0,0-.2,0,.857.857,0,0,0-.619.509,1.374,1.374,0,0,0,.06.944Zm29.84-76h-.092a3.942,3.942,0,0,1,.27-.623A3.834,3.834,0,0,0,212.752,619.01ZM188.24,692.192a.756.756,0,0,1-.261.4h-.023a1.174,1.174,0,0,1,.046-.147l.1-.289Z" transform="translate(-103.004 -360.877)"/><path class="b" d="M254.949,788.554a10.028,10.028,0,0,1-4.307.829c-.225,0-.5-.11-.522-.334a.518.518,0,0,1,.05-.229,13.656,13.656,0,0,0,.738-2.749.215.215,0,0,1,.055-.128.205.205,0,0,1,.137-.032c.669,0,1.306.3,1.975.334a2.62,2.62,0,0,0,.994-.147c.279-.1.614-.422.875-.458C255,786.6,254.844,787.56,254.949,788.554Z" transform="translate(-142.91 -459.072)"/><path class="b" d="M196.864,794.509a7.658,7.658,0,0,1-3-1.759.361.361,0,0,1-.11-.183.426.426,0,0,1,.032-.211,8.248,8.248,0,0,1,1.516-2.625,5.958,5.958,0,0,1,1.374.779c.293.2,1.04.458,1.127.825.055.22-.142.522-.22.719-.1.27-.2.541-.284.816A10.2,10.2,0,0,0,196.864,794.509Z" transform="translate(-112.369 -461.288)"/><path class="p" d="M249.452,793.49a.981.981,0,0,0,.312.582.825.825,0,0,0,.412.128c2.158.261,4.256-1.155,6.414-.916.458.05.88.174,1.32.215a6.869,6.869,0,0,0,1.562-.073c.719-.092,1.439-.211,2.149-.353a5.237,5.237,0,0,0,1.562-.5,2,2,0,0,0,1.008-1.251.99.99,0,0,0-.1-.706.815.815,0,0,0-.183-.192,1.985,1.985,0,0,0-.559-.275l-.838-.307a5.041,5.041,0,0,0-1.246-.334,9.255,9.255,0,0,0-.944,0,6.246,6.246,0,0,1-2.987-1.329l-1.237-.838a1.04,1.04,0,0,0-.412-.2,1,1,0,0,0-.435.055,5.861,5.861,0,0,0-2.515,1.535,3.84,3.84,0,0,1-.582.545,2.451,2.451,0,0,1-1.933.192c-.289-.078-.247-.169-.412-.389s-.458-.316-.637-.041a.623.623,0,0,0-.082.3,7.762,7.762,0,0,0,.371,2.25,1.058,1.058,0,0,1,.037.357,2.253,2.253,0,0,1-.124.362.669.669,0,0,0-.023.092,2.231,2.231,0,0,0,.1,1.086Z" transform="translate(-142.352 -459.884)"/><path class="b" d="M249.727,797.375a.981.981,0,0,0,.312.582.825.825,0,0,0,.412.128c2.158.261,4.256-1.155,6.414-.916.458.05.88.174,1.32.215a6.876,6.876,0,0,0,1.562-.073c.719-.092,1.439-.211,2.149-.353a5.235,5.235,0,0,0,1.562-.5,2,2,0,0,0,1.008-1.251.99.99,0,0,0-.1-.706.814.814,0,0,0-.183-.192c-.064.27-.073.614-.119.747a1.434,1.434,0,0,1-.783.884,2.327,2.327,0,0,1-.875.083c-1.911-.037-3.835.394-5.722.11a13.447,13.447,0,0,0-1.952-.279,13.879,13.879,0,0,0-1.97.284c-1.035.147-2.094.064-3.138.133A2.232,2.232,0,0,0,249.727,797.375Z" transform="translate(-142.627 -463.769)"/><path class="p" d="M190.371,797.342a3.725,3.725,0,0,0,1.549,1.709,12.924,12.924,0,0,1,1.929,1.342c.7.669,1.15,1.6,1.975,2.112a3.978,3.978,0,0,0,.994.422,6.519,6.519,0,0,0,1.223.257,8.494,8.494,0,0,0,3.17-.541,2.871,2.871,0,0,0,.953-.421,2.566,2.566,0,0,0,.339-.362,2.029,2.029,0,0,0,.49-.8.673.673,0,0,0-.041-.458,1.132,1.132,0,0,0-.4-.389,7.114,7.114,0,0,0-.916-.509,4.647,4.647,0,0,1-1.187-.646,2.8,2.8,0,0,1-.577-.783,7.592,7.592,0,0,1-.651-1.585,5.235,5.235,0,0,0-.367-1.077c-.289-.527-.825-.944-.916-1.539a.417.417,0,0,0-.078-.247.353.353,0,0,0-.225-.078,3.755,3.755,0,0,0-1.086,0,1.223,1.223,0,0,0-.871.591c-.105.211-.147.458-.344.6a.779.779,0,0,1-.325.087,2.7,2.7,0,0,1-1.6-.124,1.924,1.924,0,0,1-.939-1.228c-.037-.2,0-.422-.307-.394s-.362.3-.458.486a5.2,5.2,0,0,0-.591,2.066.6.6,0,0,0-.2,0,.843.843,0,0,0-.6.508,1.407,1.407,0,0,0,.064.994Z" transform="translate(-110.468 -463.214)"/><path class="b" d="M190.383,800.341a3.725,3.725,0,0,0,1.549,1.709,12.924,12.924,0,0,1,1.929,1.342c.7.669,1.15,1.6,1.975,2.112a3.978,3.978,0,0,0,.994.422,6.519,6.519,0,0,0,1.223.257,8.494,8.494,0,0,0,3.17-.541,2.871,2.871,0,0,0,.953-.421,2.566,2.566,0,0,0,.339-.362,2.029,2.029,0,0,0,.49-.8,1.562,1.562,0,0,0-.683,0c-.458.128-.7.646-1.113.88-.591.339-1.324.032-2,.027-.458,0-.884.124-1.324.082a3.34,3.34,0,0,1-1.077-.353,5.119,5.119,0,0,1-1.232-.747,6.541,6.541,0,0,1-.857-1.049A17.584,17.584,0,0,0,193,800.886a1.737,1.737,0,0,0-.316-.266,4.023,4.023,0,0,0-.385-.16,2.6,2.6,0,0,1-1.072-1.214,2.292,2.292,0,0,0-.279-.426.843.843,0,0,0-.6.508,1.407,1.407,0,0,0,.041,1.013Z" transform="translate(-110.479 -466.213)"/><path class="w" d="M244.519,628.066a4.737,4.737,0,0,0-.944,1.8c-.165.66-.861,5.64-.609,6.272-.7-.458-2.96-.027-3.665-.458-.293-.183-1.833-1.086-2.108-1.32s-1.833-.5-2.053-.747c-.829-.916,3.019-5.988,2.176-6.872a.2.2,0,0,1-.037-.3,7.511,7.511,0,0,1,1.164-1.251,2.291,2.291,0,0,0,.765-1.489,4.583,4.583,0,0,1,1.4.55q1.562.816,3.093,1.7c.4.229,1.127.49,1.374.889S244.78,627.75,244.519,628.066Z" transform="translate(-134.73 -371.326)"/><path class="g" d="M225.762,633.38a14.113,14.113,0,0,1,2.414,1.2,4.2,4.2,0,0,1,1.769,1.782c.133.307.2.637.321.948.531,1.374,1.988,2.117,2.827,3.313a6.813,6.813,0,0,1,.632,1.182,15.578,15.578,0,0,1,.806,2.414c.2.8-.458,1.535-.586,2.35a13.559,13.559,0,0,0,0,2.4,28.406,28.406,0,0,1-.321,4.536c-.394,3.171-1.993,12.059-2.387,15.234-3.441-.078-12.522,0-15.793-1.049-1.1-.353,5.04-8.549,3.936-8.76a.394.394,0,0,1-.412-.458c0-4.728,2.378-9.163,2.841-13.85a39.731,39.731,0,0,1,1.141-4.733c.325-1.448.33-2.969.8-4.38a2.6,2.6,0,0,1,.389-.8,3.137,3.137,0,0,1,.518-.5C225.029,633.893,225.4,633.664,225.762,633.38Z" transform="translate(-124.05 -376.571)"/><circle class="w" cx="5.218" cy="5.218" r="5.218" transform="translate(103.128 245.973)"/><path class="b" d="M225.763,628.634a1.759,1.759,0,0,0-1.979.156.957.957,0,0,0-.357,1.049l-2.515.614a5.158,5.158,0,0,0-1.173.38,1.8,1.8,0,0,0-.857.852c-.023.05-.046.105-.1.124s-.082,0-.124,0a2.249,2.249,0,0,0-1.31.06,6.968,6.968,0,0,0-3.326,2.46,1.224,1.224,0,0,0-.321.637c0,.307.17.651,0,.916.541,2.369.229,4.765.211,7.2a3.138,3.138,0,0,1-.513,1.269,4.546,4.546,0,0,0-.541,1.406c-.188,1.3.765,2.561.591,3.867a6.341,6.341,0,0,1-.559,1.567,3.583,3.583,0,0,0-.334,1.929c.046.293.151.577.206.871a5.439,5.439,0,0,1,.05,1.191c0,.738-.06,1.475-.105,2.213a4.835,4.835,0,0,1-1.09,3.322c2.515-.137,5.159-.316,7.276-1.686a3.85,3.85,0,0,0,.806-.66,5.314,5.314,0,0,0,1.008-2.932,12.269,12.269,0,0,0,.137-3.519,3.849,3.849,0,0,1-.092-1.118,3.107,3.107,0,0,1,1.122-1.672,7.132,7.132,0,0,0,1.416-1.732,2.749,2.749,0,0,0,.238-2.167c-.124-.348-.339-.655-.458-1.013a.866.866,0,0,1,.289-.98c1.645-.916,2.011-3.207,1.993-5.1a14.481,14.481,0,0,0-.412-2.868l-.389-1.833a2.5,2.5,0,0,0,.394-1.92,2.158,2.158,0,0,1-.119-.582,1.586,1.586,0,0,1,.266-.706,5.7,5.7,0,0,0,.669-1.59Z" transform="translate(-122.049 -373.873)"/><path class="b" d="M253.231,637.511a13.954,13.954,0,0,0,.458,1.7c.1.206.229.389.339.586a3.789,3.789,0,0,1,.312,2.451,13.417,13.417,0,0,1-.742,2.4,3.291,3.291,0,0,0-.224.825,3.958,3.958,0,0,0,.037.87,25.756,25.756,0,0,1,.17,3.514,6.8,6.8,0,0,1-.573,2.978.824.824,0,0,1-.417.458.916.916,0,0,1-.435,0l-1.411-.2a.847.847,0,0,1-.339-.092.806.806,0,0,1-.3-.458,7.656,7.656,0,0,1-.128-3.207c.371-3.239,1.118-6.446,1.1-9.7,0-.916-.206-2.254.27-3.083.192-.344.133-.2.458-.124a3.96,3.96,0,0,1,.509.133A1.539,1.539,0,0,1,253.231,637.511Z" transform="translate(-142.772 -378.164)"/><path class="x" d="M212.23,692" transform="translate(-122.38 -408.334)"/><path class="c" d="M245.3,643.316q.1,2.868.188,5.732l-5.356-.179a3.665,3.665,0,0,1,.1-1.613c.2-1.26-.082-2.547,0-3.821.078-.971.38-1.911.458-2.882.032-.564,0-1.132,0-1.7a12.151,12.151,0,0,1,.243-1.672,10.081,10.081,0,0,1,.637-2.291,3.286,3.286,0,0,1,1.956.719,2.419,2.419,0,0,1,.559,1.013c.348,1.118.2,2.35.586,3.445A10.19,10.19,0,0,1,245.3,643.316Z" transform="translate(-137.472 -377.389)"/><path class="p" d="M219.622,700.687a6.2,6.2,0,0,0,1.21,3.166,26.028,26.028,0,0,1,2.149,4.7,4.238,4.238,0,0,0,.536,1.191,11.567,11.567,0,0,0,.843.866,5.149,5.149,0,0,1,1.072,2.937,20.944,20.944,0,0,1,.142,2.094,5.167,5.167,0,0,0,.431,2.5c-.422,0-.577.577-.458.985a2.3,2.3,0,0,1,.238,1.223c-.458.289-.3.971-.17,1.5a12.091,12.091,0,0,1,.275,2.79q.1,5.658.064,11.317c-1.7.976-3.665,2.048-5.6,1.663a1.154,1.154,0,0,1-.88-.563,1.251,1.251,0,0,1-.06-.568l.142-3.18a5.617,5.617,0,0,0-.206-2.291c-.206-.536-.582-1.077-.422-1.626.055-.188.17-.353.243-.536.289-.729-.133-1.521-.339-2.291a1.727,1.727,0,0,1-.082-.522,2.83,2.83,0,0,1,.115-.619,8.774,8.774,0,0,0-.023-4.49,1.072,1.072,0,0,1-.05-.573,1.455,1.455,0,0,0,.087-.261.641.641,0,0,0-.137-.4,3.807,3.807,0,0,0,.518-.793.953.953,0,0,1-.49-1.416.5.5,0,0,1-.421-.779c.092-.1.22-.165.275-.289s-.064-.385-.2-.531l-.706-.779c-.527-.591-.8-1.4-1.352-1.97a16.347,16.347,0,0,1-2.016-2.721l-2.337-3.665-.783,1.068a3.116,3.116,0,0,0-.6,1.095,4.027,4.027,0,0,0,0,1.15c.137,2.25-.8,4.444-.825,6.694a4.123,4.123,0,0,1-.142,1.489,2.747,2.747,0,0,0-.174.458,2.126,2.126,0,0,0,.037.678,3.115,3.115,0,0,1-.788,2.488c-.4.458-.962.8-1.09,1.375a2.35,2.35,0,0,1-.119.509c-.17.334-.66.481-.683.852,0,.211.147.422.073.618a.559.559,0,0,1-.2.229l-1.242,1.022c-1.374,1.141-1.782,3.115-2.639,4.7a8.282,8.282,0,0,0-.738,1.631c-.3,1.008-.27,2.181-.985,2.951a2.387,2.387,0,0,0-.509.591c-.188.408.023.875.1,1.32s-.137,1.045-.586,1.008a3.125,3.125,0,0,1,.367,1.622,8.4,8.4,0,0,1-5.42-.88,2.02,2.02,0,0,1-1.118-1.173.5.5,0,0,1,0-.284.811.811,0,0,1,.261-.312c1.15-1.008,1.173-2.749,1.526-4.229a28.752,28.752,0,0,1,1.411-3.784c1.026-2.712,1.439-5.8,3.445-7.894a3.421,3.421,0,0,0,1.1-1.526c.073-.353,0-.715.05-1.072a.861.861,0,0,1,.591-.806,4.545,4.545,0,0,1-.527-1.521,2.112,2.112,0,0,1-.073-.7,3.541,3.541,0,0,1,.192-.742,6.556,6.556,0,0,0,.105-3.665,5.782,5.782,0,0,1-.362-1.869c.028-.325.128-.632.179-.953a5.466,5.466,0,0,0-.1-1.681l-.339-2.1a10.2,10.2,0,0,1-.2-2.107c.069-1.7-1.04-8.526.27-9.621s5.008,3.51,6.694,3.235a7.6,7.6,0,0,1,2.254-.073,10.646,10.646,0,0,1,3.372,1.274l3.638,1.874a11.579,11.579,0,0,0,2.172,1.008Z" transform="translate(-112.467 -408.985)"/><path class="b" d="M249.283,605.39a3.94,3.94,0,0,0-3.29-.774,7.1,7.1,0,0,0-3.088,1.567,4.165,4.165,0,0,1-.866.609c-.518.234-1.145.224-1.576.591a1.991,1.991,0,0,0-.27,2.107,3.634,3.634,0,0,1,.293,2.195,5.844,5.844,0,0,0-.247.646,1.906,1.906,0,0,0,.307,1.191,8.579,8.579,0,0,0,.458-.916.8.8,0,0,1,.838-.458c.321.1.394.458.458.77s.247.651.559.683a.632.632,0,0,0,.582-.4c.357-.71-.06-1.631.289-2.346.2-.412.623-.683.8-1.1.137-.33.105-.706.211-1.049s.458-.664.793-.513a1.216,1.216,0,0,1,.3.257,1.375,1.375,0,0,0,1.681.115,2.639,2.639,0,0,1,.614-.458.852.852,0,0,1,.871.247,1.7,1.7,0,0,1,.408.852,2.1,2.1,0,0,0,.458,1.2,1.373,1.373,0,0,0,.458.238,1.1,1.1,0,0,0,1.219-.151.916.916,0,0,0,.078-.916,6.874,6.874,0,0,0-.458-.825c-.344-.628-.266-1.434-.614-2.016A6.806,6.806,0,0,0,249.283,605.39Z" transform="translate(-137.441 -360.938)"/><path class="c" d="M248.288,631.963a.783.783,0,0,1,.055.458.737.737,0,0,1-.2.3,5.382,5.382,0,0,1-2.222,1.324.724.724,0,0,0-.312.16.6.6,0,0,0,0,.7,1.737,1.737,0,0,1,.312.674c.041.458-.458.788-.884.948a2.492,2.492,0,0,1-1.9.06,2.827,2.827,0,0,1-1-.958c-1.883-2.557-3.028-5.594-4.925-8.141a2.011,2.011,0,0,1-.321-.55.6.6,0,0,1,.11-.6c.2-.2.582-.2.687-.458.05-.128,0-.284.046-.417.087-.293.458-.348.7-.545s.27-.408.458-.5a.737.737,0,0,1,.646.119,7.371,7.371,0,0,1,2.112,2.227,31.9,31.9,0,0,0,3.111,3.555,2.407,2.407,0,0,1,.38-1.494c.367-.17,1.017.4,1.283.6A5.581,5.581,0,0,1,248.288,631.963Z" transform="translate(-135.722 -371.704)"/><rect class="d" width="37.569" height="37.569" transform="translate(118.354 300.704) rotate(167.2)"/><rect class="h" width="37.569" height="37.569" transform="translate(119.041 299.611) rotate(167.2)"/><path class="c" d="M234.64,679.314a10.345,10.345,0,0,0-12.37-7.789c-.261.06-.531.133-.77.206l2.465,10.831L234.8,680.1C234.75,679.85,234.7,679.575,234.64,679.314Z" transform="translate(-127.403 -397.1)"/><path class="c" d="M223.549,684.8l-10.835,2.46-2.46-10.831A10.341,10.341,0,1,0,223.54,684.8Z" transform="translate(-117.361 -399.897)"/><path class="w" d="M207.281,691.4a10.435,10.435,0,0,1,1.439.953,2.52,2.52,0,0,1,.889,1.443.829.829,0,0,1-.046.495.4.4,0,0,1-.408.229.647.647,0,0,1-.257-.142,9.4,9.4,0,0,0-.916-.619c-.115-.069-.257-.142-.371-.078a.357.357,0,0,0-.128.133,1.049,1.049,0,0,0-.2.541,1.15,1.15,0,0,0,.545.838,2.4,2.4,0,0,1,.747.706.357.357,0,0,1,.05.27.39.39,0,0,1-.133.179,2.474,2.474,0,0,1-2,.6c-.458-.073-.916-.289-1.4-.344a2.908,2.908,0,0,1-.6-.078,1.173,1.173,0,0,1-.66-.623,3.093,3.093,0,0,1-.238-.916,10.652,10.652,0,0,1-.027-3.6.5.5,0,0,1,.082-.211.431.431,0,0,1,.2-.105,5.245,5.245,0,0,1,1.956-.586,1.489,1.489,0,0,1,.564.312C206.516,690.9,207.249,691.253,207.281,691.4Z" transform="translate(-117.609 -407.504)"/><path class="b" d="M203.682,665.568c-.11-.527.247-1.943-.806-1.791-.124-.563.586-1.09.307-1.654-.092-.183-.293-.312-.362-.509-.2-.559.77-1.1.458-1.617-.115-.2-.371-.275-.458-.458-.229-.458.609-.893.513-1.411-.037-.169-.174-.312-.206-.486a1.438,1.438,0,0,1,.165-.628c.16-.541-.142-1.255.293-1.617-.321.105-.541-.353-.458-.678s.284-.646.211-.971a1.452,1.452,0,0,1-.087-.357c0-.334.527-.458.541-.811a2.346,2.346,0,0,0-.069-.357.687.687,0,0,1,.412-.586,2.068,2.068,0,0,0,.637-.4c.124-.147.257-.38.458-.316.069,0,.115.087.174.128.243.179.591,0,.8-.224a3.391,3.391,0,0,0,.724-2.5c-.037-.893-.243-1.773-.247-2.662a6.248,6.248,0,0,1,.055-.829,3.967,3.967,0,0,0,.188-.852c-.073-.5-1.022.069-1.4.206a6.017,6.017,0,0,0-1.072.458,11.621,11.621,0,0,0-1.026.76c-1.4,1.04-3.258,1.553-4.243,2.987-.325.458-.559,1.049-1.054,1.342a6.763,6.763,0,0,0-.678.353c-.531.412-.458,1.219-.637,1.86a3.722,3.722,0,0,0-.16.531,2.039,2.039,0,0,0,.05.623l.3,1.5a56.806,56.806,0,0,0,1.833,7.463,6.414,6.414,0,0,1,.531,2.46c0,.224-.06.458-.064.678a3.825,3.825,0,0,0,.1.793l.183.976a.3.3,0,0,0,.1.211.321.321,0,0,0,.275,0c1.315-.426,2.5-1.494,3.876-1.324" transform="translate(-113.937 -382.204)"/><path class="w" d="M262.8,670.184a.416.416,0,0,1,.179.092,1.1,1.1,0,0,1,.307,1.274.4.4,0,0,0-.046.142.348.348,0,0,0,.087.2.733.733,0,0,1,.078.82c-.073.1-.2.169-.238.293-.069.206.142.4.165.619.027.289-.27.5-.541.6a.706.706,0,0,1-.651,0,.531.531,0,0,1-.128-.559,1.567,1.567,0,0,1,.321-.509.651.651,0,0,1-.729-.426.916.916,0,0,1,.179-.861.334.334,0,0,0,.105-.2c0-.1-.1-.17-.188-.224-.371-.243-.8-.958-.247-1.26a1.512,1.512,0,0,1,.619-.115c.165,0,.183.105.316.142S262.662,670.161,262.8,670.184Z" transform="translate(-148.909 -396.451)"/><path class="d" d="M240.47,625.972a1.054,1.054,0,0,1,.889.215,2.383,2.383,0,0,1,.577.994,9.53,9.53,0,0,0,2.048,3.125" transform="translate(-137.681 -372.545)"/><path class="d" d="M238.5,628.409a1.255,1.255,0,0,1,1.187.389,3.621,3.621,0,0,1,.5,1,5.983,5.983,0,0,0,1.553,2" transform="translate(-136.614 -373.864)"/></g></svg>