<svg xmlns="http://www.w3.org/2000/svg" version="1.0" width="1000.000000pt" height="750.000000pt" viewBox="0 0 1000.000000 750.000000" preserveAspectRatio="xMidYMid meet">
<metadata>
Created by potrace 1.15, written by Peter Selinger 2001-2017
</metadata>
<g transform="translate(0.000000,750.000000) scale(0.100000,-0.100000)" fill="#4267b2" stroke="none">
<path d="M1856 7169 c-63 -15 -155 -69 -196 -117 -22 -24 -50 -69 -62 -101 l-23 -56 0 -3145 0 -3145 23 -56 c33 -84 90 -142 180 -186 l76 -38 1688 -3 1688 -2 0 1325 0 1325 -445 0 -445 0 0 525 0 525 444 0 445 0 4 503 c4 465 6 509 25 601 60 278 170 494 337 661 165 166 365 269 628 327 94 21 128 23 437 23 358 0 682 -18 700 -40 7 -8 9 -168 8 -466 l-3 -454 -350 -6 c-276 -5 -363 -10 -413 -23 -157 -40 -238 -121 -278 -277 -13 -52 -17 -136 -21 -456 l-5 -393 510 0 c281 0 513 -4 516 -8 3 -6 -92 -773 -126 -1017 -3 -20 -13 -20 -448 -25 l-445 -5 -3 -1323 -2 -1323 923 3 923 3 76 38 c90 44 147 102 180 186 l23 56 0 3145 0 3145 -23 56 c-33 84 -90 142 -180 186 l-76 38 -3125 2 c-1863 0 -3142 -3 -3165 -8z"/>
</g>
</svg>