<svg xmlns="http://www.w3.org/2000/svg" width="960" height="690.688" viewBox="0 0 960 690.688"><defs><style>.a{fill:#f2f2f2;}.b{fill:#6c63ff;}.c{fill:#ffb9b9;}.d{fill:#2f2e41;}.e{fill:#ff6484;}.f{fill:#575a89;}.g{opacity:0.1;}.h{fill:#3f3d56;}.i{fill:none;stroke:#3f3d56;stroke-miterlimit:10;stroke-width:2px;}.j{fill:#fff;}.k{fill:#57b894;}</style></defs><path class="a" d="M972,450.712,829.031,272.048a48,48,0,0,1-23.122,11.676c-26.916,5.3-53.2-13.08-58.712-41.054a51.855,51.855,0,0,1,17.9-50.513l-48.75-60.919L438.615,368.6,694.271,688.077Z" transform="translate(-133.085 -131.237)"/><g transform="translate(662.461 314.876)"><rect class="b" width="13.687" height="17.597" transform="translate(140.201 49.657) rotate(-2.221)"/><path class="c" d="M820.058,413.091s-18.94-9.049-18.637-1.234,19.091,12.957,19.091,12.957Z" transform="translate(-727.876 -302.382)"/><path class="d" d="M837.825,516.773s-8.935,21.87-12.237,37.652-8.329,37.5-1.862,52.9S848.581,668,848.77,672.885s-1.575,9.845,2.333,9.693,25.172-6.846,26.035-9.815-7.255-10.481-7.255-10.481l-20.047-62.815,20.915-40.923,15.086,61.051,2.955,76.2s14.5-4.476,16.607-.644c0,0,6.5-9.057,7.323-13s-3.068-79.127-3.068-79.127,13.311-85.633,2.566-85.216S859.384,492.457,837.825,516.773Z" transform="translate(-735.251 -339.939)"/><path class="d" d="M860.444,782.2s-9.912,21.908-10.851,22.923-7.4,11.049-2.514,10.859,16.418-5.528,24.906-13.684,19.681-22.287,18.666-23.226-7.966-3.6-7.966-3.6Z" transform="translate(-744.744 -443.472)"/><path class="d" d="M932.145,805.068s-.6,9.807-2.4,13.79-1.575,9.845,3.309,9.655,17.508-2.636,17.508-2.636.75-5.9-.265-6.838-5.339-11.533-3.5-14.54S932.145,805.068,932.145,805.068Z" transform="translate(-776.84 -454.175)"/><path class="c" d="M937.175,288.992s10.413,16.228,14.472,19.984S944.286,321,944.286,321l-20.439,2.749s.257-18.6-.8-20.514S937.175,288.992,937.175,288.992Z" transform="translate(-774.643 -256.344)"/><path class="e" d="M903.585,320.706s4.211,7.664,8.118,7.512,24.119-8.762,24.982-11.731,6.695,21.264,6.695,21.264l-49.456,87.034-12.064-8.337,5.845-51.1,4.8-27.58Z" transform="translate(-758.818 -266.823)"/><path class="f" d="M922.98,394.923a27.368,27.368,0,0,0-3.034,12.836c.008.2.015.391.032.586.468,9.041,3.8,19.5,4.994,27.1.867,5.455.62,9.437-2.572,10.372-7.739,2.257,1.128,3.87-28.814,13.836s-35.168,1.364-35.243-.59,4.24-16.8,3.226-17.735-14.2,12.291-18.182,10.489-.455-11.723-.455-11.723,8.973-20.893,8.784-25.778S865.309,386.4,865.309,386.4l9.374-61.021s3.6-7.967,8.451-9.133A12.006,12.006,0,0,1,892,317.856l-8.11,17.925-8.557,31.639,1.431,11.685s9.95-20.931,16.485-29.011,20.468-27.209,20.468-27.209,3.253-10.976.8-14.256,10.243-3.782,15.658,9.7c2.87,7.148,7.529,17.808,10.448,27.732,2.6,8.792,3.83,17.012,1.253,21.71C937.938,374.952,928.031,384.386,922.98,394.923Z" transform="translate(-743.29 -263.148)"/><path class="g" d="M990.359,390.876c-3.938,7.177-13.845,16.611-18.9,27.148-1.319-4.753-2.928-9.67-2.928-9.67s-6.172-33.025,12.085-41.559a12.219,12.219,0,0,1,8.486,2.371C991.707,377.959,992.938,386.178,990.359,390.876Z" transform="translate(-791.772 -286.25)"/><path class="f" d="M862.35,402.583,846.872,407.1l-21.492.833L823.169,426.6l35.319,2.544S867.311,404.347,862.35,402.583Z" transform="translate(-736.243 -300.037)"/><path class="c" d="M917.433,504.623s-20.707,3.436-15.981,9.667,23.07-.32,23.07-.32Z" transform="translate(-766.085 -339.288)"/><path class="g" d="M950,471.9c.468,9.041,3.8,19.5,4.994,27.1-6.6,6.243-12.87,11.75-15.234,11.842-4.884.189-12.737-.484-15.63.606s-4.589-17.432-4.589-17.432,1.726-5.937,9.428-9.171A107.248,107.248,0,0,0,950,471.9Z" transform="translate(-773.314 -326.699)"/><path class="f" d="M961.792,357.264s16.531-2.6,15.638,24.831,1.743,44.937-4.906,50.086-28.246,28.489-33.13,28.679-12.737-.484-15.63.606-4.589-17.432-4.589-17.432,1.727-5.937,9.428-9.171,25.846-14.7,25.694-18.607-4.589-17.432-4.589-17.432S943.534,365.8,961.792,357.264Z" transform="translate(-773.172 -282.58)"/><ellipse class="c" cx="21.508" cy="21.508" rx="21.508" ry="21.508" transform="translate(126.447 13.663)"/><path class="d" d="M891.655,240.279a4.154,4.154,0,0,1-1.808.908,1.29,1.29,0,0,1-1.5-1.036,5.362,5.362,0,0,1-2.052,2.632c-1,.524-2.558.085-2.7-1.039a4.741,4.741,0,0,1-1.091,2.3,1.635,1.635,0,0,1-2.3.077c.44,2.4.168,4.877.307,7.318s.789,5.028,2.633,6.632c2.689,2.34,6.733,1.763,10.27,1.319a3.117,3.117,0,0,1,1.609.088c1.324.564,1.264,2.408,1.282,3.847a10.69,10.69,0,0,0,9.361,10.152,5.359,5.359,0,0,0,3.983-.972c1-.851,1.517-2.239,2.668-2.878,1.872-1.04,4.142.477,5.511,2.124s2.717,3.673,4.838,3.975c2.8.4,4.94-2.459,5.987-5.09a29.673,29.673,0,0,0-.589-23.057C922.21,234.819,902.21,232.8,891.655,240.279Z" transform="translate(-758.182 -235.935)"/><rect class="d" width="230.753" height="1.231" transform="translate(0 372.708)"/></g><ellipse class="a" cx="40.307" cy="40.307" rx="40.307" ry="40.307" transform="translate(620.963 63.385)"/><rect class="d" width="18.863" height="54.911" transform="translate(396.732 297.562) rotate(-49.171)"/><rect class="d" width="18.863" height="48.674" transform="translate(663.826 552.804) rotate(-49.171)"/><path class="h" d="M870.728,544.911v1.107q-.038,4.169-.239,8.3A184.854,184.854,0,0,1,501.4,556.732q-.377-5.866-.377-11.821a183.938,183.938,0,0,1,33.99-106.851q2.66-3.773,5.533-7.407c1.32-1.685,2.678-3.332,4.049-4.967a184.89,184.89,0,0,1,257.614-24.446c2.226,1.8,4.414,3.659,6.552,5.558q2.565,2.282,5.043,4.665a184.355,184.355,0,0,1,56.287,117.9Q870.728,537.065,870.728,544.911Z" transform="translate(-128.025 -112.684)"/><path class="d" d="M687.619,749.781c-114.757,0-208.119-93.362-208.119-208.119a207.438,207.438,0,0,1,55.531-141.53l4.609,4.277a201.166,201.166,0,0,0-53.852,137.253c0,111.29,90.541,201.831,201.831,201.831a200.235,200.235,0,0,0,144.893-61.325l4.514,4.377a206.473,206.473,0,0,1-149.407,63.235Z" transform="translate(-129.77 -109.435)"/><rect class="d" width="52.816" height="52.816" transform="translate(535.213 635.945)"/><path class="d" d="M540.543,425.732a1.028,1.028,0,0,1,.251.151c.994.817-.251,2.389-.1,3.685.176,1.66,2.389,2.025,4.062,2.188s3.785,1.522,2.993,3.005c-4.2,1.446-8.451.025-12.739-1.622A183.939,183.939,0,0,0,501.02,539.989q0,5.961.377,11.821a4.775,4.775,0,0,0,1.144.616c1.258.478,2.716.39,3.873,1.069.918.541,1.534,1.5,2.452,2,2.628,1.434,6.275-1.32,8.727.39a22.548,22.548,0,0,1,1.8,1.836c2.264,1.962,5.986.641,8.6,2.113,1.685.943,2.553,2.829,3.458,4.54,2.251,4.276,5.9,8.476,10.714,8.815a28.858,28.858,0,0,1,4.552.151c1.484.34,2.943,1.635,2.7,3.131-.415,2.578.855,5.395.516,7.973-.616,4.716-7.294,6.778-7.859,11.494a28.379,28.379,0,0,1-.176,3.106c-.3,1.232-1.232,2.238-1.559,3.471-.629,2.326,1.044,4.653,2.867,6.212s4.024,2.93,5.03,5.118c1.056,2.326.541,5.03.88,7.558.755,5.521,5.52,9.607,10.425,12.248a10.885,10.885,0,0,1,4.074,2.968c1.258,1.823,1.132,4.225,1.559,6.4,1.031,5.319,5.508,9.708,5.634,15.128.088,3.861-2.05,7.357-3.332,10.991a25.366,25.366,0,0,0-1.144,11.871,185.745,185.745,0,0,0,22.8,16.536,6.645,6.645,0,0,0,.943-2.113,4.178,4.178,0,0,0-1.949-4.326,10.338,10.338,0,0,0,3.609-2.314,3.54,3.54,0,0,0,.654-4c2.213.277,4.841.415,6.3-1.283,1.169-1.358,1.094-3.4.629-5.118a21.11,21.11,0,0,1-1.258-5.206,93.649,93.649,0,0,0,15.367-.516,9.976,9.976,0,0,0-4.678-5.86c2.314-.39,4.414-3.156,5.143-5.382a13.708,13.708,0,0,0,.1-6.954,3.7,3.7,0,0,1-.075-1.811,3.563,3.563,0,0,1,1.836-1.773q5.734-3.3,11.469-6.589a6.916,6.916,0,0,0,1.836-1.346c1.195-1.421,1.019-3.546.4-5.294s-1.6-3.4-1.836-5.231c-.7-5.5,5.181-9.444,7.168-14.625a21.965,21.965,0,0,0,1.081-6.4c.164-2.339.176-5.043-1.61-6.539-1.723-1.446-4.4-1.119-6.2-2.465-1.647-1.232-2.213-3.609-4.011-4.6-1.635-.905-3.672-.327-5.5-.755-3.194-.742-5.206-4.426-8.476-4.766-1.836-.2-3.923.7-5.432-.365-1.333-.956-1.383-2.855-1.635-4.464a12.47,12.47,0,0,0-10.06-10.085c-1.9-.3-3.961-.189-5.583-1.232s-2.377-3.031-3.672-4.5c-2.062-2.352-5.332-3.194-8.388-3.911q-6.225-1.452-12.437-2.917c-2.2-.528-5.043-.8-6.237,1.132a8.51,8.51,0,0,0-.729,2.326,7.214,7.214,0,0,1-6.765,5.08,7.994,7.994,0,0,0-4.7-3.647,29.686,29.686,0,0,1-3.823-.906,5.356,5.356,0,0,1-2.314-7.432,6.673,6.673,0,0,0-1.144-8.01c-2.113-1.9-5.168-2.364-8.01-2.175-.742-1.622.5-3.446,1.836-4.628s2.968-2.326,3.257-4.087c.465-2.767-3.068-4.867-5.747-4.049s-4.389,3.433-5.521,6a18.09,18.09,0,0,1-2.226,4.263,4.37,4.37,0,0,1-4.225,1.735c-2.213-.566-3.056-3.194-3.546-5.407a35.257,35.257,0,0,1-1.182-9.067,11.836,11.836,0,0,1,3.421-8.249c3.659-3.37,9.293-3.043,14.235-2.5a3.626,3.626,0,0,1,.377-4.779,5.433,5.433,0,0,1,4.929-1.207,6.763,6.763,0,0,1,3.81,2.276c1.409,1.71,1.811,4.037,2.867,5.973s3.458,3.609,5.407,2.565c1.7-.905,1.962-3.244,1.547-5.118s-1.32-3.685-1.17-5.6c.289-3.634,4.074-5.835,7.407-7.331s7.143-3.521,7.671-7.143a6.674,6.674,0,0,1,.4-2.062,4.032,4.032,0,0,1,1.5-1.408c9.721-6.426,19.617-12.94,30.734-16.448.578-.189.641.013,1.232-.126.83-.478.277-1.8-.516-2.326s-1.849-.943-2.05-1.874c-.138-.679.264-1.358.365-2.05a2.559,2.559,0,0,0-3.358-2.59c-.893-1.182.868-2.553,2.3-2.955a62.855,62.855,0,0,1,13.141-2.138,2.34,2.34,0,0,1,1.5.251,1.778,1.778,0,0,1,.113,2.44,13.772,13.772,0,0,1-2,1.823,5.493,5.493,0,0,0-1.433,5.521c2.326,1.182,4.841,2.4,7.419,1.987s4.841-3.307,3.634-5.609c-1.119-2.15-4.5-2.641-5.08-4.992-.679-2.754,3.219-5.206,2.339-7.9-.377-1.182-1.559-1.886-2.465-2.729a7.44,7.44,0,0,1-1.622-8.224,9.37,9.37,0,0,1-8.2-2.565c-1.962-1.974-3.521-5.105-6.313-5-2.553.075-4.753,3.056-7.143,2.15-.591-.226-1.207-.679-1.773-.415a1.466,1.466,0,0,0-.667,1.094c-.6,2.9.44,6.212-1.144,8.727-1.723,2.729-5.709,3.106-7.8,5.571-1.132,1.333-1.572,3.131-2.616,4.54s-3.244,2.314-4.5,1.081a6.2,6.2,0,0,0-1.685-7.545,16.2,16.2,0,0,0-3.722-1.811,22.093,22.093,0,0,1-4.162-2.314,4.124,4.124,0,0,1-1.522-1.635,3.759,3.759,0,0,1,.1-2.59,10.588,10.588,0,0,1,8.413-6.967c1.66-.226,3.6-.151,4.7-1.421.578-.666.88-1.685,1.735-1.949a2.53,2.53,0,0,1,1.6.189c2.075.729,4.137,1.459,6.212,2.188a4.255,4.255,0,0,0,2.213.365,1.489,1.489,0,0,0,1.3-1.572c-.2-1.031-1.786-1.522-1.635-2.565a1.631,1.631,0,0,1,.516-.88,22.22,22.22,0,0,1,17.618-6.954c.78,1.3-.453,2.817-1.5,3.911s-1.861,3.068-.6,3.911a3.313,3.313,0,0,0,1.647.377,14.369,14.369,0,0,1,4.4,1.333c2.15.931,4.263,1.962,6.325,3.068a7.974,7.974,0,0,1,.151-4.074,2.767,2.767,0,0,1,3.269-1.773c1.232.478,1.861,2.113,3.182,2.264,1.748.2,2.44-2.389,1.71-4s-2.188-2.943-2.3-4.716c-.088-1.182.365-2.653-.578-3.37a2.5,2.5,0,0,0-1.119-.4q-11.846-2.169-23.7-4.351c-1.408-.264-3.433-.063-3.5,1.358-.038.8.679,1.6.365,2.326-.34.78-1.446.717-2.251.993a3.056,3.056,0,0,0-1.76,3.232,8.81,8.81,0,0,0,1.484,3.634c-1.547-.641-3.873-.754-5.42-1.408a20.857,20.857,0,0,0-1.358-5.219,1.842,1.842,0,0,0-2.4-1.484c-2.037.314-4.074.616-6.112.931a2.364,2.364,0,0,0-1.4.541c-.792.842-.013,2.188-.038,3.345a3.135,3.135,0,0,1-2.427,2.7,9.149,9.149,0,0,1-3.873-.05l-8.551-1.32a14.008,14.008,0,0,0,6.464-4.326c1.132-1.333,1.735-3.823.1-4.452A3.9,3.9,0,0,0,558.7,426c-3.873.025-6.929-3.207-10.551-4.577a10.372,10.372,0,0,0-3.559-.654Z" transform="translate(-128.025 -107.762)"/><path class="d" d="M860.777,551.316a4.54,4.54,0,0,1-3.848,1.823c-3.936-.34-5.6-6.011-9.494-6.652a1.519,1.519,0,0,0-1.031.1c-.578.314-.679,1.094-.717,1.748-.163,3.244-.3,6.615.968,9.607,1.849,4.376,6.64,8.048,5.634,12.688-5.407-2.5-8.224-8.576-9.494-14.4s-1.484-11.934-3.773-17.442c-1.748,2.226-5.395.39-6.979-1.949-1.509-2.213-2.44-4.779-3.9-7.03s-3.7-4.25-6.363-4.376c-2.8-.126-5.244,1.8-7.382,3.622a17.083,17.083,0,0,0-4.59,5.105c-1.5,3.018-1.107,6.564-1.182,9.922-.075,3.622-.843,7.457-3.32,10.123s-7.042,3.584-9.771,1.182a11.021,11.021,0,0,1-2.729-4.917,239.246,239.246,0,0,1-7.394-26.383c-.453,2.037-2.251,4.665-3.961,3.471a3.533,3.533,0,0,1-.905-1.182c-3.194-5.395-9.092-8.639-15.065-10.588s-12.236-2.842-18.133-4.98a46.366,46.366,0,0,1-9.419-4.691,7.417,7.417,0,0,0-.453,7.57,6.064,6.064,0,0,0,6.816,2.855c1.308-.428,2.414-1.333,3.71-1.786s3.043-.226,3.609,1.031c.553,1.195-.277,2.641.138,3.9.616,1.9,3.5,2.05,4.5,3.785a3.5,3.5,0,0,1-.943,4.049,16.954,16.954,0,0,1-3.8,2.339c-4.225,2.351-7.231,6.363-10.928,9.482s-8.916,5.407-13.317,3.408c1.044-5.319-5.282-9.218-6.451-14.512-.39-1.748-.189-3.6-.729-5.294-.792-2.465-2.98-4.15-4.766-6.011a23.628,23.628,0,0,1-6.476-17.165c.1-2.188.5-4.414,0-6.552s-2.264-4.187-4.452-4.1c-4.992.226-11.292.6-13.908-3.659-.943-1.522-1.346-3.747.013-4.917a4.748,4.748,0,0,1,3.609-.616c3.76.365,7.507.742,11.267,1.107,2.628.252,5.47.465,7.734-.905s3.244-5.03,1.144-6.652c-1.522-1.182-4.263-1.119-4.716-2.993-.365-1.572,1.371-3.345.428-4.665-.667-.931-2.175-.679-3.093.025a20.216,20.216,0,0,1-2.6,2.276c-1.8.931-3.936.038-5.873-.566s-4.527-.654-5.458,1.144c-1.056,2,.918,4.64-.113,6.652-1.383,2.653-6.036,1.144-7.973,3.433-2.213,2.616,1.509,6.539.767,9.884a6.162,6.162,0,0,1-6.074-.339,5.88,5.88,0,0,1-2.54-5.483c.176-1.509.968-3.056.44-4.477a5.226,5.226,0,0,0-2.653-2.427q-5.47-3.037-10.94-6.049c-1.019,1.886.264,4.213,1.874,5.634s3.609,2.477,4.665,4.338a5.7,5.7,0,0,1-2.138,7.52,1.326,1.326,0,0,1-1.094.189,1.516,1.516,0,0,1-.7-.943c-1.924-4.942-4.829-9.809-9.456-12.386s-11.292-2.05-14.336,2.289c-.717,1.031-1.207,2.213-1.836,3.307-3.332,5.8-10.5,8.539-17.19,8.362a3.312,3.312,0,0,1-1.874-.44c-1.081-.742-1.031-2.326-.868-3.634.239-1.849.465-3.685.7-5.533a4.431,4.431,0,0,1,1.22-3.031c1.245-.981,3.031-.365,4.615-.39a5.813,5.813,0,0,0,5.294-4.087,6.57,6.57,0,0,0-1.836-6.539c-.717-.679-1.685-1.534-1.308-2.452A2.038,2.038,0,0,1,631,461.14c2.829-.817,5.835-1.031,8.614-2.012s5.5-2.955,6.162-5.835c.2-.88.289-1.949,1.081-2.389a3.5,3.5,0,0,1,1.258-.251,6.12,6.12,0,0,0,5.244-6.376c1.333-.931,3.207-.239,4.5.755s2.427,2.3,4,2.729c2.93.8,5.759-1.8,8.8-1.811,1.283,0,2.6.453,3.8.013,1.22-.44,1.949-1.647,2.88-2.54s2.578-1.446,3.446-.478c-.252-1.823-.49-3.634-.742-5.445a10.7,10.7,0,0,0,8.715-1.584c-3.169-1.069-6.325-2.138-9.494-3.207a2.048,2.048,0,0,1-.893-.478c-.692-.742,0-1.9.553-2.741,1.346-2.025,1.572-5.357-.641-6.363-1.509-.692-3.232.138-4.678.943-2.314,1.283-4.628,2.578-6.941,3.861-.214,1.32,1.4,2.075,2.389,2.955a4.007,4.007,0,0,1-2.616,7,5.02,5.02,0,0,1,.893,4.238l-4.665.34a2,2,0,0,1-1.509-.3c-.5-.44-.428-1.22-.553-1.874a4.048,4.048,0,0,0-3.42-2.98,11.808,11.808,0,0,0-4.766.44,2.9,2.9,0,0,1-2.062-.05,2.057,2.057,0,0,1-.8-1.031,5.258,5.258,0,0,1,1.056-5.055,28.943,28.943,0,0,1,3.974-3.659,23.165,23.165,0,0,0,6.9-10.689c2.565-1.081,5.219-2.54,7.8-3.622a31.14,31.14,0,0,1,6.476-2.176,30.6,30.6,0,0,1,6.35-.3c2.892.05,5.8.1,8.689.163a20.913,20.913,0,0,1,7.608,1.094c2.377.981,4.477,3.106,4.64,5.671a1.741,1.741,0,0,1-.566,1.6,2.037,2.037,0,0,1-1.094.252c-2.4.075-3.42.679-5.822.767,1.522,1.622,3.232,3.332,5.445,3.622,3.9.5,6.7-3.534,8.5-7.042a3.431,3.431,0,0,0,3.584,3.181,7.228,7.228,0,0,0,2.7-1.056,53.186,53.186,0,0,1,25.213-6.514,2.715,2.715,0,0,1,2.075-2.993c1.8-.352,3.408,1.195,4.276,2.8s1.4,3.471,2.779,4.678,4.024,1.144,4.565-.591c.528-1.672-1.22-3.106-2.666-4.1s-2.98-2.8-2-4.263c7.394-1.647,14.851-3.282,22.434-3.609a9.546,9.546,0,0,0,3.773-.654,2.932,2.932,0,0,0,1.76-3.106,8.574,8.574,0,0,1-8.928-3.37c7.784-.641,15.933-1.207,23.415.541l6.552,5.558c-1.245,1.3-2.9,2.515-2,3.81a2.788,2.788,0,0,0,2.3.792c1.585.025,3.169.063,4.741.063a184.355,184.355,0,0,1,56.286,117.9c-2.641-.1-5.068,3.244-4.728,6.162.4,3.383,2.842,6.1,4.59,9.016a13.717,13.717,0,0,1,.779,1.471Z" transform="translate(-118.313 -109.683)"/><line class="i" x2="960" transform="translate(0 689.689)"/><ellipse class="i" cx="15.952" cy="15.952" rx="15.952" ry="15.952" transform="translate(380.104 54.61)"/><ellipse class="i" cx="15.952" cy="15.952" rx="15.952" ry="15.952" transform="translate(851.456 358.394)"/><ellipse class="i" cx="15.952" cy="15.952" rx="15.952" ry="15.952" transform="translate(742.555 199.475)"/><ellipse class="j" cx="23.598" cy="23.598" rx="23.598" ry="23.598" transform="translate(687.753 269.048)"/><g transform="translate(677.343 345.188)"><path class="h" d="M17.9,0A17.9,17.9,0,1,1,0,17.9,17.9,17.9,0,0,1,17.9,0Z" transform="translate(36.44 15.203)"/><path class="k" d="M841.955,380.017a33.362,33.362,0,0,0-47.178.584c-12.866,13.189-31.236,79.8-31.236,79.8s66.131-20.013,79-33.2a33.362,33.362,0,0,0-.584-47.178Zm-34.661,35.53a15.461,15.461,0,1,1,21.863-.271,15.461,15.461,0,0,1-21.863.271Z" transform="translate(-763.542 -370.536)"/></g><path class="d" d="M690.389,448.875a1.768,1.768,0,0,1,1.21-1.755,1.926,1.926,0,0,1,2.36,0,6.82,6.82,0,0,1,1.937,2.542s1.619,2.723,1.513,4.9-.182,2.86-1.937,3.813a4.874,4.874,0,0,1-5.084,0c-1.906-.953-1.059-1.3-1.15-2.844s.212-1.5,1.15-2.542a4.093,4.093,0,0,0,1.21-2.6C691.691,449.556,690.389,449.692,690.389,448.875Z"/></svg>