<?xml version="1.0" standalone="no"?>
<!DOCTYPE svg PUBLIC "-//W3C//DTD SVG 20010904//EN"
 "http://www.w3.org/TR/2001/REC-SVG-20010904/DTD/svg10.dtd">
<svg version="1.0" xmlns="http://www.w3.org/2000/svg"
 width="18px" height="18px" viewBox="0 0 225.000000 225.000000"
 preserveAspectRatio="xMidYMid meet">

<g transform="translate(0.000000,225.000000) scale(0.100000,-0.100000)"
fill="rgba(255,255,255,0.6)" stroke="none">
<path d="M576 2204 c-206 -41 -366 -187 -411 -375 -39 -165 1 -319 112 -440
81 -86 196 -137 354 -155 56 -6 60 -8 54 -28 -26 -84 -10 -190 35 -231 30 -27
24 -35 -23 -35 -67 0 -204 -19 -290 -40 -170 -42 -298 -134 -359 -257 -28 -56
-33 -79 -36 -157 -3 -76 0 -101 18 -149 44 -117 175 -215 365 -273 85 -26 102
-28 290 -28 231 -1 283 8 430 79 112 53 200 137 248 234 31 63 32 71 32 186 0
108 -2 125 -26 175 -40 84 -107 159 -238 264 -230 184 -234 215 -52 395 89 88
124 130 146 176 69 147 29 376 -85 479 -22 20 -40 38 -40 41 0 3 32 5 71 5
l72 0 76 75 76 75 -375 -1 c-275 -1 -393 -5 -444 -15z m181 -118 c123 -58 213
-201 243 -387 24 -147 -19 -275 -111 -336 -38 -25 -51 -28 -123 -28 -65 0 -90
5 -126 24 -103 54 -174 136 -220 256 -19 49 -23 80 -24 170 -1 99 2 116 25
165 14 30 38 69 52 86 64 75 184 96 284 50z m102 -1241 c183 -44 321 -191 321
-344 0 -151 -93 -266 -260 -321 -79 -27 -249 -37 -335 -21 -130 24 -255 113
-306 218 -34 67 -34 178 -1 245 29 59 107 137 172 172 110 60 280 81 409 51z"/>
<path d="M1790 2045 l0 -145 -145 0 -145 0 0 -75 0 -74 147 -3 147 -3 1 -30
c1 -16 2 -83 3 -147 l2 -118 75 0 75 0 0 150 0 150 151 0 152 0 -7 31 c-3 17
-6 51 -6 75 0 24 -3 43 -7 43 -5 -1 -70 -1 -145 0 l-138 1 0 145 0 145 -80 0
-80 0 0 -145z"/>
</g>
</svg>
