<svg xmlns="http://www.w3.org/2000/svg" width="1033.32" height="908.592" viewBox="0 0 1033.32 908.592"><defs><style>.a{fill:#f2f2f2;}.b{fill:#3f3d56;}.c{opacity:0.1;}.d{fill:#2f2e41;}.e{fill:#ffb8b8;}.f{fill:#ff6484;}.g{fill:#6c63ff;}.h,.i,.j{fill:none;stroke-miterlimit:10;stroke-width:2px;}.h{stroke:#2f2e41;}.i{stroke:#3f3d56;}.j{stroke:#ff6484;}.k{fill:#ffb9b9;}.l{fill:#d0cde1;}</style></defs><g transform="translate(119 -226)"><path class="a" d="M912.145,420.26c.138,189.019-149.81,344.008-338.73,350.12q-5.76.2-11.57.19a348.9,348.9,0,0,1-228.02-84.37q-13.245-11.355-25.29-23.97a351.825,351.825,0,0,1-46.57-60.8,348.13,348.13,0,0,1-41.14-100.75V339.84a348.288,348.288,0,0,1,42.41-102.81,54.993,54.993,0,0,0,70.48-82.61,350.67,350.67,0,0,1,372.59-53.38q5.31,2.4,10.52,4.98C832.555,163.21,912.145,282.44,912.145,420.26Z" transform="translate(2.175 156.045)"/><path class="b" d="M859.825,393.748c.127,174.714-138.472,317.973-313.094,323.622q-5.324.18-10.694.176a322.493,322.493,0,0,1-210.763-77.985q-12.243-10.5-23.376-22.156a325.2,325.2,0,0,1-43.046-56.2,321.783,321.783,0,0,1-38.026-93.125V319.415a321.929,321.929,0,0,1,39.2-95.029,50.831,50.831,0,0,0,65.146-76.358,324.131,324.131,0,0,1,344.392-49.34q4.908,2.218,9.724,4.6C786.258,156.152,859.825,266.359,859.825,393.748Z" transform="translate(-339.825 417.045)"/><circle class="a" cx="33" cy="33" r="33" transform="translate(261 312.085)"/><g transform="translate(-63.192 -45.451)"><ellipse class="c" cx="9.175" cy="41.286" rx="9.175" ry="41.286" transform="translate(215.847 722.599) rotate(-65.69)"/><ellipse class="c" cx="9.175" cy="41.286" rx="9.175" ry="41.286" transform="translate(291.538 741.714) rotate(-65.69)"/><path class="d" d="M459.856,191.99l5.752.528,19.575,1.8,31.6,2.906,3.147-34.17a24.534,24.534,0,0,0-22.2-26.707A32.588,32.588,0,0,0,464.743,156l0,.011a32.625,32.625,0,0,0-2.478,9.819Z" transform="translate(-217.109 235.045)"/><path class="e" d="M488.264,189.54s2.294,19.114,0,19.879-9.939,3.823-9.939,3.823l13.762,14.527,19.879.765,4.587-14.527-4.587-3.823-1.529-19.114Z" transform="translate(-221.457 222.489)"/><path class="c" d="M488.264,189.54s2.294,19.114,0,19.879-9.939,3.823-9.939,3.823l13.762,14.527,19.879.765,4.587-14.527-4.587-3.823-1.529-19.114Z" transform="translate(-221.457 222.489)"/><path class="e" d="M447.291,235.54l-6.116,52.755-8.41,53.519s-6.881,25.995,6.116,25.23,3.823-26.76,3.823-26.76l12.233-45.109,5.352-45.873Z" transform="translate(-210.302 211.659)"/><path class="e" d="M555.793,235.363l5.352,54.284,31.347,29.818s20.643,10.7,16.82,17.585-25.23-11.468-25.23-11.468l-37.463-26.76-2.294-33.641,2.294-33.641Z" transform="translate(-236.996 212.6)"/><path class="d" d="M453.215,572.465s-10.7,18.349-5.352,20.643,20.643,9.175,20.643,9.175,23.7,4.587,22.937-2.294-9.939-6.881-9.939-6.881-12.949-13-12.591-17.585S453.215,572.465,453.215,572.465Z" transform="translate(-213.933 132.39)"/><path class="c" d="M453.215,572.465s-10.7,18.349-5.352,20.643,20.643,9.175,20.643,9.175,23.7,4.587,22.937-2.294-9.939-6.881-9.939-6.881-12.949-13-12.591-17.585S453.215,572.465,453.215,572.465Z" transform="translate(-213.933 132.39)"/><path class="d" d="M521.9,376.54l2.294,12.233-16.82,68.046-9.939,10.7-25.995,61.929H452.325s12.233-48.167,21.408-62.694S498.2,378.069,498.2,378.069Z" transform="translate(-215.336 178.461)"/><path class="c" d="M490.171,430.148l13.762,2.294,3.441,24.848-9.939,10.7-25.995,61.929H452.325s12.233-48.167,21.408-62.694S498.2,378.54,498.2,378.54Z" transform="translate(-215.336 177.99)"/><path class="d" d="M470.178,349.017s-12.233,22.937,7.646,51.225a218.649,218.649,0,0,1,28.289,56.577s-1.529,51.225,14.527,71.868l6.116,13.762,18.349-10.7s-20.643-31.347-16.056-69.575c0,0,4.587-12.233,0-22.172s-16.82-57.342-16.82-57.342l15.291-.765s4.587-29.053-3.058-32.876S470.178,349.017,470.178,349.017Z" transform="translate(-218.662 185.342)"/><path class="d" d="M558.558,585.54s16.82,14.527,26.76,16.056,9.939,8.41-1.529,9.939c0,0-22.937,9.175-37.463,2.294V594.715Z" transform="translate(-237.467 129.254)"/><circle class="e" cx="18.349" cy="18.349" r="18.349" transform="translate(261.073 383.358)"/><path class="f" d="M479.056,220.01l2.676-4.97s-36.316,12.615-32.494,18.732,14.527,15.291,14.527,15.291V261.3s11.468,35.17,0,55.048,62.694,13.762,60.4,0-5.352-28.289-2.294-35.17,8.41-14.527,3.823-32.876l11.468-12.233s-3.823-12.233-13.762-14.527-17.967-4.97-17.967-4.97,4.97,9.557-3.44,10.322S479.056,220.01,479.056,220.01Z" transform="translate(-214.543 216.485)"/><path class="d" d="M466.351,192.892a14.046,14.046,0,0,0,24.693-7.786c-15.46-8.757-10.414-20.541,3.092-33.581A14.033,14.033,0,0,0,486.65,137.8a32.7,32.7,0,0,0-21.164,18.581l0,.011-2.411,26.141a13.978,13.978,0,0,0,3.28,10.363Z" transform="translate(-217.852 234.672)"/><path class="d" d="M495.534,158.153l28.153.646.261-11.389a24.578,24.578,0,0,0-8.608-7.585l-19.376-.441Z" transform="translate(-225.509 234.298)"/></g><circle class="g" cx="2" cy="2" r="2" transform="translate(740 958.085)"/><line class="h" y1="74.412" transform="translate(87.975 576.558)"/><circle class="d" cx="10.523" cy="10.523" r="10.523" transform="translate(77.453 566.035)"/><path class="d" d="M291.8,476.374s-1.5-32.332-32.32-28.574Z" transform="translate(-203.825 146.045)"/><path class="d" d="M569.4,830.04s-89.587,97.537-109.524,0c-42.557-9.6-81.839,11.831-123.646,58.255-61.28,6.351-115.4-58.255-115.4-58.255V622.89c12.97,1.37,22.78-12.38,34.59-18.73,9.24-4.97,20.18-5.38,30.67-5.44,16.91-.09,34.13.5,50.14,5.94a73.633,73.633,0,0,1,14.71,6.85c9.92,6.04,18.24,14.52,22.66,25.16,2.67,6.42,4.59,14.29,10.98,17.04,3.56,1.54,7.63.99,11.47.42q20.235-3.03,40.47-6.05c9.98-1.5,20.95-2.8,29.47,2.61,13.14,8.34,13.15,27.25,10.94,42.66s-4.24,33.59,7.16,44.19c13.82,12.86,36.05,4.83,54.73,7.52a46.841,46.841,0,0,1,37.55,32.93C581.185,795.16,575.685,813.16,569.4,830.04Z" transform="translate(-220.825 147.045)"/><line class="i" y1="207.322" x2="3.231" transform="translate(102.098 768.274)"/><circle class="b" cx="14.401" cy="14.401" r="14.401" transform="translate(90.928 753.873)"/><path class="b" d="M308.24,680.872s-1.368-44.276-43.618-39.79Z" transform="translate(-203.825 146.045)"/><path class="i" d="M305.985,825.592s10.583-84.936-42.837-89.884" transform="translate(-203.825 146.045)"/><line class="i" y1="74.412" transform="translate(175.975 838.558)"/><circle class="b" cx="10.523" cy="10.523" r="10.523" transform="translate(174.452 891.035)"/><path class="b" d="M388.8,801.374s-1.5-32.332-32.32-28.574Z" transform="translate(-203.825 146.045)"/><g transform="translate(-130.206 -391.777)"><rect class="b" width="11.554" height="176.202" transform="translate(603.437 883.66)"/><rect class="b" width="150.205" height="70.481" transform="translate(537 862.285)"/><circle class="f" cx="8.088" cy="8.088" r="8.088" transform="translate(609.214 857.085)"/><circle class="j" cx="7.51" cy="7.51" r="7.51" transform="translate(645.032 911.968)"/><circle class="f" cx="1.155" cy="1.155" r="1.155" transform="translate(648.499 915.434)"/><path class="f" d="M800.825,463.04s2.889,4.044,6.932,0Z" transform="translate(-151.749 458.171)"/><path class="f" d="M801.825,442.127l5.777-8.087,2.672,9.975S807.6,440.393,801.825,442.127Z" transform="translate(-152.171 470.418)"/><rect class="f" width="95.9" height="2.311" transform="translate(568.196 883.66)"/><rect class="f" width="95.9" height="2.311" transform="translate(568.196 890.593)"/><rect class="f" width="95.9" height="2.311" transform="translate(568.196 897.525)"/></g><g transform="translate(559.509 604.025)"><path class="k" d="M823.369,198.371s-7.981,10.225-6.983,17.458-16.46-9.976-16.46-9.976,5.985-12.47,2.743-18.455S823.369,198.371,823.369,198.371Z" transform="translate(-783.965 -159.148)"/><path class="d" d="M800.219,705.452s-10.474,11.472-8.729,13.966,32.421,11.971,35.913,11.472,5.237-2.993,3.99-3.741-9.227-4.988-9.227-4.988l-6.734-7.731s-4.988-2.743-4.988-4.24S800.219,705.452,800.219,705.452Z" transform="translate(-788.747 -459.233)"/><path class="k" d="M827.936,735.579s3.99,6.484,4.738,6.734-3.741,9.228-3.741,9.228L818.459,748.3l-5.736-4.739,1.247-6.484Z" transform="translate(-798.756 -476.641)"/><path class="l" d="M794.419,442.574l4.988,22.2s17.208,38.656,5.237,45.39l-26.186,50.128-13.966-6.235,23.443-51.375-10.724-59.106Z" transform="translate(-754.516 -307.335)"/><path class="c" d="M794.419,442.574l4.988,22.2s17.208,38.656,5.237,45.39l-26.186,50.128-13.966-6.235,23.443-51.375-10.724-59.106Z" transform="translate(-754.516 -307.335)"/><path class="l" d="M832.3,448.8h2.53a141,141,0,0,1-1.283,22.944c-1.746,12.719-6.235,41.9-6.235,41.9s.5,5.487-1,7.232-1.746-.5-2,3.492S821.7,556.1,821.7,556.1s-1.621,5.676.125,6.922S827.063,571,824.57,572s-19.7,2.245-20.45,1.5,0-47.634,0-47.634.5-9.477,1-9.976,2.743-7.232,2-8.729-.249-5.985-.249-6.734,2.245,0,.249-3.242S804.867,468,804.867,468s-10.724-16.46-7.482-20.7Z" transform="translate(-794.143 -310.066)"/><ellipse class="k" cx="16.46" cy="16.46" rx="16.46" ry="16.46" transform="translate(15.962 10.043)"/><path class="d" d="M806.214,226.365s9.976,2.494,13.966,8.479l3.492.748v3.492s6.484,20.7,4.988,29.678,0,26.436,2.494,31.174,3.242,5.736,2,7.731-2.993,8.729-1.746,11.721,0,5.985-11.472,6.734-27.683.748-27.683-3.242,1-15.213,0-18.206-1.5-4.988-1-7.731-1-33.419-1-33.419S790,232.849,806.214,226.365Z" transform="translate(-790.253 -182.404)"/><path class="k" d="M753.845,408.9l13.717,20.45s14.465,13.218,9.228,19.2S757.835,431.1,757.835,431.1l-14.964-16.959Z" transform="translate(-714.441 -287.879)"/><path class="d" d="M775.369,750.046s.5-3.242,2.245-3.242,13.467,7.981,13.467,7.981,16.091,6.922,9.3,7.347c-6.755.422-42.467,1.382-42.716.135s-.748-13.544,1-13.506,15.712,2.782,15.712,2.782Z" transform="translate(-744.694 -483.127)"/><path class="d" d="M799.445,140.235a4.128,4.128,0,0,0,1.881.425c.673.038,1.476,0,1.833-.574a2.626,2.626,0,0,0,.229-1.2A3.946,3.946,0,0,1,808,135.527a5.676,5.676,0,0,1-.735,2.34,5,5,0,0,0,4.4-.586l.253,3.359a2.741,2.741,0,0,0,2.821-.1,1.563,1.563,0,0,0-.04-2.5c1.09-.227,2.423-.716,2.5-1.826.073-1.013-1-1.755-1.2-2.752-.162-.813.284-1.7-.031-2.462-.414-1.007-1.918-1.265-2.22-2.311a9.072,9.072,0,0,1,.015-1.654c-.138-1.445-1.955-2.045-3.4-1.963s-3.031.467-4.262-.3a12.355,12.355,0,0,1-1.539-1.439,4.569,4.569,0,0,0-5.306-.461,9.017,9.017,0,0,1-1.742,1.085c-1.33.451-2.718-.4-4.109-.6a3.414,3.414,0,0,0-2.862.829,2.343,2.343,0,0,0-.426,2.823,4.587,4.587,0,0,0-2.45.035,1.581,1.581,0,0,0-1,1.974,2.556,2.556,0,0,1,.31.634c.072.435-.346.806-.769.931s-.881.1-1.3.253c-1.709.626-1.3,3.359-2.645,4.585a10.724,10.724,0,0,1-1.459.892,3.549,3.549,0,0,0-1.251,4.287,3.931,3.931,0,0,1,.667,1.82c-.076.916-1.058,1.418-1.746,2.026a4.063,4.063,0,0,0-.946,4.665c.633,1.321,2,2.322,2.143,3.78.06.634-.13,1.266-.119,1.9a3.921,3.921,0,0,0,1.685,2.96,8.767,8.767,0,0,0,3.235,1.346c.544.13,1.192.334,1.324.877.156.644-.563,1.23-.488,1.889a1.1,1.1,0,0,0,.44.712c.973.761,2.513.109,3.107-.974a6.478,6.478,0,0,0,.427-3.626l-.335-4.479c-.1-1.394-.094-3.048,1.042-3.862,1.256-.9,3.085-.171,4.505-.779,1.48-.633,2.011-2.487,1.951-4.1s-.521-3.22-.256-4.808c.328-1.968,2.079-3.29,3.846-2.015C798.486,137.731,798.217,139.513,799.445,140.235Z" transform="translate(-768.194 -122.235)"/><path class="c" d="M809.957,254.537s9.976,3.99,9.976,12.47-.5,19.7,1.247,23.443,3.242,4.988,2.245,7.981-2.743,2.494,0,4.738,2.494-1.5,2.743,2.245-2.494,4.24,0,5.985,8.978,8.729,6.235,10.973-9.976,9.477-12.47,6.734-3.741-9.726-7.232-9.228-3.99.748-3.492-1.746,2.743-2.494-.249-3.242-4.24,1-3.242-1.5,1.746-3.491-.249-6.235-2.993-3.492-2.743-6.235-5.487-27.433-5.487-27.433S795.492,252.541,809.957,254.537Z" transform="translate(-792.499 -198.605)"/><path class="c" d="M803.459,253.355s9.976,3.99,9.976,12.47-.5,19.7,1.247,23.443,3.242,4.988,2.245,7.981-2.743,2.494,0,4.738,2.494-1.5,2.743,2.245-2.494,4.24,0,5.985,8.978,8.729,6.235,10.973-9.976,9.477-12.47,6.734-3.741-9.726-7.232-9.228-3.99.748-3.492-1.746,2.743-2.494-.249-3.242-4.24,1-3.242-1.5,1.746-3.492-.249-6.235-2.993-3.492-2.743-6.235-5.487-27.433-5.487-27.433S788.994,251.36,803.459,253.355Z" transform="translate(-783.257 -197.922)"/><path class="d" d="M806.412,251.583s9.976,3.99,9.976,12.47-.5,19.7,1.247,23.443,3.242,4.988,2.245,7.981-2.743,2.494,0,4.738,2.494-1.5,2.743,2.245-2.494,4.24,0,5.985,8.978,8.729,6.235,10.973-9.976,9.477-12.47,6.734-3.741-9.726-7.232-9.228-3.99.748-3.492-1.746,2.743-2.494-.249-3.242-4.24,1-3.242-1.5,1.746-3.491-.249-6.235-2.993-3.492-2.743-6.235-5.487-27.433-5.487-27.433S791.947,249.587,806.412,251.583Z" transform="translate(-787.458 -196.898)"/></g></g></svg>