<svg xmlns="http://www.w3.org/2000/svg" xmlns:xlink="http://www.w3.org/1999/xlink" width="515.313" height="405.341" viewBox="0 0 515.313 405.341"><defs><style>.a{opacity:0.5;}.b,.d{fill:#ff6484;}.c,.y,.z{fill:none;stroke-miterlimit:10;}.c{stroke:#535461;stroke-width:2px;}.d,.k,.r{opacity:0.1;}.e{fill:url(#a);}.f{fill:#fdc2cc;}.g,.n{opacity:0.05;}.h{fill:#47465a;}.i{fill:#fff;}.aa,.i{opacity:0.3;}.j{fill:#565171;}.l{fill:#f68080;}.m{fill:#b96b6b;}.o{fill:url(#b);}.p{fill:#4f4d59;}.q{fill:#787c9c;}.s{fill:#714b4f;}.t{fill:#e6e6f0;}.u{fill:#ba7855;}.v{fill:#503f43;}.w{fill:#fafbfc;}.x{fill:#7983a6;}.y,.z{stroke:#7983a6;}.z{stroke-dasharray:11.78 11.78;}.ab{opacity:0.7;}</style><linearGradient id="a" x1="0.501" y1="1.001" x2="0.501" gradientUnits="objectBoundingBox"><stop offset="0" stop-color="gray" stop-opacity="0.251"/><stop offset="0.54" stop-color="gray" stop-opacity="0.122"/><stop offset="1" stop-color="gray" stop-opacity="0.102"/></linearGradient><linearGradient id="b" x1="0.5" y1="1" x2="0.5" y2="0" xlink:href="#a"/></defs><g transform="translate(0 0.048)"><g class="a" transform="translate(338.657 0.035)"><path class="b" d="M782.119,67.969a6.45,6.45,0,0,0-6.13,3.325c-3.055,5.494,1.861,10.9-.674,16.753a9.747,9.747,0,0,1-3.288,3.967c-2.45,1.766-4.948,2.291-7.424,3.346a13.608,13.608,0,0,0-6.952,6.2,16.238,16.238,0,0,0-1.464,9.848,39.019,39.019,0,0,0,2.588,7.753,48.639,48.639,0,0,1,2.487,9.578,17.69,17.69,0,0,1,.244,4.624,29.121,29.121,0,0,1-1.427,5.775l-5.452,17.071a39.865,39.865,0,0,0-1.75,6.841,28.746,28.746,0,0,0,.212,7.292c.594,5,1.257,10.193,3.622,13.316s7.006,3.325,10.4-1.1c3.23-4.243,4.062-10.659,7.021-15.273,4.661-7.276,12.118-6.645,17.113-13.46,4.773-6.534,4.7-15.963,7.695-24,2.121-5.759,5.834-10.606,8.337-16.2a43.225,43.225,0,0,0,3.182-24.273,36.025,36.025,0,0,0-8.034-17.018c-1.549-1.877-3.235-3.622-5.383-4.243-2.286-.679-4.566,1.061-6.921,1.22C787.4,69.449,784.861,68.012,782.119,67.969Z" transform="translate(-752.739 -67.935)"/><path class="c" d="M801.3,68.1s-13.152,76.181-35,117.774" transform="translate(-759.108 -68.012)"/><path class="c" d="M796.3,74.93s16.048,16.44,9.906,39.159" transform="translate(-773.199 -71.22)"/><path class="c" d="M760.63,134.52s28.24,11.253,24.506,24.045" transform="translate(-756.445 -99.208)"/><path class="c" d="M839.036,108s-12.59,5.128-25.636,24.983" transform="translate(-781.23 -86.753)"/><path class="c" d="M813.6,216.429s-8.522,2.959-12.876-15.379" transform="translate(-775.275 -130.456)"/><path class="c" d="M758.15,228.643s16.4,2.185,18.837-5.3" transform="translate(-755.281 -140.925)"/></g><g class="a" transform="translate(52.328 79.47)"><path class="b" d="M214.174,232.613a6.44,6.44,0,0,0-.583,6.947c2.917,5.568,10.129,4.423,13.635,9.753a9.747,9.747,0,0,1,1.511,4.927c.133,3.018-.8,5.393-1.283,8.05a13.608,13.608,0,0,0,1.374,9.2,16.238,16.238,0,0,0,7.424,6.624,39.5,39.5,0,0,0,7.9,2.089,48.637,48.637,0,0,1,9.371,3.182,17.693,17.693,0,0,1,4,2.333,29.123,29.123,0,0,1,4.046,4.359L272.849,304a39.87,39.87,0,0,0,4.773,5.218,28.747,28.747,0,0,0,6.215,3.824c4.5,2.243,9.212,4.54,13.12,4.28s6.624-4.03,4.773-9.3c-1.75-5.017-6.682-9.243-8.92-14.25-3.527-7.891,1.092-13.788-1.861-21.69-2.832-7.594-10.771-12.685-15.841-19.622-3.638-4.953-5.664-10.691-8.968-15.862a43.388,43.388,0,0,0-18.561-15.979A36.025,36.025,0,0,0,228.938,218c-2.418.265-4.8.716-6.518,2.164-1.824,1.538-1.591,4.412-2.779,6.454C218.316,229.006,215.717,230.343,214.174,232.613Z" transform="translate(-212.823 -217.722)"/><path class="c" d="M228.72,225.66s56.469,52.793,79.241,93.9" transform="translate(-220.29 -221.451)"/><path class="c" d="M214.68,259.07s22.565-4.386,38.183,13.2" transform="translate(-213.695 -236.914)"/><path class="c" d="M244.92,312.735s24.925-17.432,33.548-7.292" transform="translate(-227.898 -257.434)"/><path class="c" d="M277.943,223s-2.625,13.343,6.82,35.139" transform="translate(-243.251 -220.201)"/><path class="c" d="M342.45,320.61s-2.206,8.75-19.94,2.318" transform="translate(-264.341 -266.047)"/><path class="c" d="M326.17,361.8s10.824-12.51,5.9-18.651" transform="translate(-266.06 -276.633)"/></g><path class="b" d="M191.923,102.3c-2.652,3.134-5.134,7.472-3.182,11.752,3.786,8.384,17.676,4.3,22.634,12.113a11.551,11.551,0,0,1,1.342,7.748c-.668,4.99-3.14,9.228-4.847,13.788s-2.593,10.076-.186,14.891c2.317,4.662,7.2,7.6,11.932,8.777s9.472.907,14.2,1.061a78.593,78.593,0,0,1,16.626,2.45,22.968,22.968,0,0,1,6.8,2.652,30.144,30.144,0,0,1,6.274,6.035l16.97,19.776a40.443,40.443,0,0,0,7.35,7.25c3.224,2.243,6.894,3.383,10.506,4.481,7.769,2.376,15.91,4.773,23.334,3.145s13.656-8.724,11.8-16.938c-1.766-7.822-9.731-13.369-12.415-21.033-4.243-12.075,6.231-23.276,3.086-35.563-3.012-11.784-16.366-17.861-23.79-27.837-5.3-7.149-7.393-16.09-12.028-23.695C281.648,82.193,270,74.922,258.361,72.164s-23.345-1.427-34.238,1.32c-4.614,1.172-9.228,2.652-12.887,5.579-3.887,3.113-4.338,7.833-7.17,11.593C200.785,95.037,195.5,98.049,191.923,102.3Z" transform="translate(-148.855 -69.173)"/><path class="c" d="M226.51,92.73s89.98,70.8,120.256,132.347" transform="translate(-166.923 -79.546)"/><path class="c" d="M189.9,149.769s43.683-14.149,67.642,10.415" transform="translate(-149.728 -104.431)"/><path class="c" d="M227.7,225.606s52.03-36.592,65.182-22.321" transform="translate(-167.482 -129.919)"/><path class="c" d="M317.257,73.21s-8.968,23.011,2.121,56.458" transform="translate(-207.937 -70.378)"/><path class="c" d="M410.57,211s-6.793,15.236-38.13,9.906" transform="translate(-235.463 -135.095)"/><path class="c" d="M363.13,288.31s24.114-24.119,16.742-32.88" transform="translate(-231.091 -155.962)"/><ellipse class="d" cx="257.657" cy="21.786" rx="257.657" ry="21.786" transform="translate(0 361.722)"/><path class="e" d="M901.434,426.44c-1.1-3.214-2.683-7.287-3.935-8.246a1.173,1.173,0,0,0-.249-.154H897.1v-3.972l-2.959.472a28.287,28.287,0,0,1-1.061-4.4,2.042,2.042,0,0,0,2.222.445c-.048-.08-.09-.164-.133-.249l.133-.058a5.5,5.5,0,0,1-.716-2.694,9.819,9.819,0,0,1,.408-2.546c.53-1.83,1.427-3.537,1.925-5.377a13.07,13.07,0,0,0,.445-3.633,13.259,13.259,0,0,0-1.379-5.993,3.5,3.5,0,0,0-1.061-1.368,13.523,13.523,0,0,0-1.283-.626,6.932,6.932,0,0,1-1.867-1.861,16.737,16.737,0,0,0-8.087-5.4,4.736,4.736,0,0,0-2.588-.207c-1.989.53-2.71,3-4.322,4.29-1.421,1.14-3.373,1.257-5.16,1.639a8.772,8.772,0,0,0-4.8,2.519,5.213,5.213,0,0,0-1.289,3.474,3.5,3.5,0,0,0,1.421,3.108,4.465,4.465,0,0,0,3.771.53,12.823,12.823,0,0,0,9.71,16.122l.345.62h0a26.558,26.558,0,0,1,2.408,6.284c-2.726,1.543-5.7,2.991-7.5,3.129a12.637,12.637,0,0,1-.392,2.079,11.465,11.465,0,0,1-2.36,4.64c-2.445,2.747-13.438,23.514-13.438,23.514s-.345.827-.912,2.238c-6.825.838-17.967,2.047-21.075,1.427l-12.2-11.6s-3.946,3.012-3.6,6.671l-2.169-2.09s-11.6,8.856,6.719,14.658l27.879,3.235c-2.652,8.013-5.134,17.341-4.365,22.417h.228a10.543,10.543,0,0,0,1.591-.122l-.048.9-2.7,48.095s-.61,8.856,7.637,12.823c0,0,10.076,29.618,6.109,32.981,0,0,.472.249,1.267.594l-8.289,7.345s-6.109,1.527-9.466,1.22a2.424,2.424,0,0,0-2.678,1.8.4.4,0,0,1-.032.191v.589a.455.455,0,0,0,.037.2v.074a1.646,1.646,0,0,0,.069.212l.026.064a1.8,1.8,0,0,0,.1.207v.048c.037.069.08.133.122.2l.037.058q.074.106.164.212l.048.053c.064.074.133.143.2.212l.032.026.228.2.048.037c.085.069.18.133.276.2l.064.042c.1.064.207.127.318.186h.048l.345.17h.048l.4.159.085.032.44.143h.074l.483.127h.037l.53.106h.106l.573.085h.111l.647.064c1.257.1,2.949.133,4.906.122h0v.313a.371.371,0,0,0,.037.2v.074a1.64,1.64,0,0,0,.069.212l.026.064a1.8,1.8,0,0,0,.1.207v.048c.037.069.08.133.122.2l.037.058q.074.106.164.212l.048.053c.064.074.133.143.2.212l.032.026.228.2.048.037c.085.069.18.133.276.2l.069.042c.1.064.207.127.318.186h.048l.345.17h.048l.4.159.085.032.44.143h.074l.483.127h.037l.53.106h.106l.573.085h.111l.647.064c7.955.61,33.283-1.22,33.283-1.22v-.069h0v-.09h0c.249-1.183,1.469-8.056-2.858-13.136.127-.133.255-.276.371-.424,0,0-3.357-5.8-1.527-7.637s-9.159-33.591-9.159-33.591-5.8-9.159-2.445-19.542-.308-21.68-.308-21.68,8.008-2.381,8.172-12.24V492a3.245,3.245,0,0,0,.53.032,2.377,2.377,0,0,0,.339,0s-1.527-5.494.308-9.466,5.8-.308,9.466-16.488c2.652-11.71,4.985-25.18,6.072-31.734A16.71,16.71,0,0,0,901.434,426.44Zm-69.69,34.354-2.784-2.652c.923.382,1.946.758,3.092,1.119l10.5,1.22C837.864,460.906,833.51,461.145,831.744,460.795Z" transform="translate(-443.751 -214.698)"/><path class="f" d="M858.972,520.752s-21.6,3-26.1,2.121L820.847,511.44s-11.4,8.7,6.6,14.4l33.622,3.93Z" transform="translate(-444.398 -276.205)"/><path class="g" d="M858.972,520.752s-21.6,3-26.1,2.121L820.847,511.44s-11.4,8.7,6.6,14.4l33.622,3.93Z" transform="translate(-444.398 -276.205)"/><path class="h" d="M890.686,758.65l-10.5,9.3s-6,1.5-9.3,1.2-4.8,5.1,3,5.7,32.7-1.2,32.7-1.2,2.4-9.6-4.8-15Z" transform="translate(-468.312 -392.314)"/><path class="g" d="M890.686,758.65l-10.5,9.3s-6,1.5-9.3,1.2-4.8,5.1,3,5.7,32.7-1.2,32.7-1.2,2.4-9.6-4.8-15Z" transform="translate(-468.312 -392.314)"/><path class="i" d="M906.964,779.11a16.547,16.547,0,0,1-.377,3.251s-24.925,1.8-32.7,1.2c-3.749-.286-5.346-1.686-5.632-3.028-.339,1.538,1.018,3.574,5.632,3.93,7.8.6,32.7-1.2,32.7-1.2a17.332,17.332,0,0,0,.376-4.152Z" transform="translate(-468.314 -401.924)"/><path class="f" d="M933.79,430.46s6.6,9.3,4.2,15.6,12.6-6.6,12.6-6.6-4.8-8.4-2.4-17.4Z" transform="translate(-499.117 -234.225)"/><path class="h" d="M910.484,765.44l-10.5,9.313s-6,1.5-9.3,1.2-4.8,5.091,3,5.7,32.7-1.2,32.7-1.2,2.4-9.6-4.8-15Z" transform="translate(-477.61 -395.503)"/><path class="j" d="M908.955,664.764a8.028,8.028,0,0,1-6.078,2.784c-5.245.249-11.02-2.784-11.02-2.784,3.9-3.3-6-32.4-6-32.4-8.1-3.9-7.5-12.6-7.5-12.6l2.652-47.236.663-11.863,8.4-5.1,6.624,5.081,6.279,4.821a25.248,25.248,0,0,1,.785,4.683c.726,11.025-7.987,13.619-7.987,13.619s3.6,11.1.3,21.3,2.4,19.2,2.4,19.2,10.8,31.2,9.015,33S908.955,664.764,908.955,664.764Z" transform="translate(-473.079 -296.927)"/><path class="g" d="M908.955,664.764a8.028,8.028,0,0,1-6.078,2.784c-5.245.249-11.02-2.784-11.02-2.784,3.9-3.3-6-32.4-6-32.4-8.1-3.9-7.5-12.6-7.5-12.6l2.652-47.236.663-11.863,8.4-5.1,6.624,5.081,6.279,4.821a25.248,25.248,0,0,1,.785,4.683c.726,11.025-7.987,13.619-7.987,13.619s3.6,11.1.3,21.3,2.4,19.2,2.4,19.2,10.8,31.2,9.015,33S908.955,664.764,908.955,664.764Z" transform="translate(-473.079 -296.927)"/><path class="j" d="M924.5,671.558c-5.1,6.3-17.1,0-17.1,0a1.909,1.909,0,0,0,.53-.817c2.2-5.982-7.424-34.582-7.424-34.582-8.1-3.9-9.015-13.2-9.015-13.2l-2.121-48.074-.276-6.226,12.622-4.821,3.877-1.48,12.9,9.885a23.4,23.4,0,0,1,.827,6.274c-.159,9.7-8.008,12.038-8.008,12.038s3.6,11.1.3,21.3,2.4,19.2,2.4,19.2,10.8,31.2,9.015,33S924.5,671.558,924.5,671.558Z" transform="translate(-478.128 -300.121)"/><path class="k" d="M916.614,575.35c-2.593-.371-7.844-3.495-10.543-5.192l-1.686-1.061s-2.7-7.5-9.9-1.8a26.952,26.952,0,0,1-7.822,4.418,18.3,18.3,0,0,1-3.341.838l.663-11.863,8.4-5.1,6.624,5.081,3.877-1.48,12.9,9.875a23.4,23.4,0,0,1,.827,6.284Z" transform="translate(-475.413 -296.941)"/><path class="l" d="M931.183,466.515c-1.061,6.438-3.362,19.67-5.966,31.178-3.6,15.91-7.5,12.3-9.3,16.2s-.3,9.3-.3,9.3c-3,.3-12.9-6.3-12.9-6.3s-2.7-7.5-9.9-1.8-12.9,5.4-12.9,5.4c-1.5-9.9,9.6-36.3,9.6-36.3s10.813-20.4,13.189-23.1a11.264,11.264,0,0,0,2.318-4.561,12.4,12.4,0,0,0,.382-2.042c3.9-.3,13.5-6.894,13.5-6.894l7.5-1.2v3.9a1.151,1.151,0,0,1,.244.148c1.236.944,2.789,4.948,3.866,8.1a16.441,16.441,0,0,1,.679,7.965Z" transform="translate(-473.744 -245.657)"/><path class="k" d="M935.448,460.287s-7.8-6.3-19.5,14.1-14.4,17.1-14.4,17.1,2.4,9.015,1.2,10.8c0,0,8.1-.6,11.1,0s21.6-22.8,21.6-22.8S945.052,466.285,935.448,460.287Z" transform="translate(-483.975 -251.748)"/><path class="k" d="M934.893,458.023s-7.8-6.274-19.5,14.1S901,489.227,901,489.227s9.291,10.2,12.293,10.781,21.6-22.8,21.6-22.8S944.486,464.026,934.893,458.023Z" transform="translate(-483.717 -250.688)"/><path class="k" d="M902.229,529.044a36.262,36.262,0,0,0-1.2-8.156c1.824-.239,2.975-.4,2.975-.4l2.121,9.015Z" transform="translate(-483.731 -280.456)"/><path class="k" d="M948.758,423.19l-14.4,8.384a30.791,30.791,0,0,1,1.676,2.747,12.655,12.655,0,0,0,2.524.255c3.845,0,5.637-4.036,7.955-6.751C946.366,425.661,948.116,425.608,948.758,423.19Z" transform="translate(-499.385 -234.756)"/><circle class="f" cx="12.6" cy="12.6" r="12.6" transform="translate(426.278 174.036)"/><path class="k" d="M910.531,393.168a8.612,8.612,0,0,1,4.72-2.477c1.75-.376,3.67-.493,5.07-1.591,1.591-1.267,2.291-3.675,4.243-4.211a4.651,4.651,0,0,1,2.54.2,16.44,16.44,0,0,1,7.955,5.3,6.809,6.809,0,0,0,1.83,1.83,13.274,13.274,0,0,1,1.262.615,3.437,3.437,0,0,1,1.029,1.342,13.041,13.041,0,0,1,.912,9.159c-.488,1.808-1.368,3.484-1.888,5.3a6.961,6.961,0,0,0,.3,5.446,2.2,2.2,0,0,1-2.652-.981,11.3,11.3,0,0,1-1.061-2.911,11.137,11.137,0,0,0-3.251-5.054c-.944-.838-2.652-1.4-3.293-.318-.255.419-.239.949-.456,1.384a1.818,1.818,0,0,1-2.492.53,3.824,3.824,0,0,1-1.559-2.312c-1.236-4.179-3.341-6.809-7.812-5.022-1.665.668-3.627,1.119-5.229-.027C908.59,397.866,909.019,394.875,910.531,393.168Z" transform="translate(-487.594 -216.724)"/><path class="m" d="M910.531,392.588a8.612,8.612,0,0,1,4.72-2.477c1.75-.376,3.67-.493,5.07-1.591,1.591-1.267,2.291-3.675,4.243-4.211a4.651,4.651,0,0,1,2.54.2,16.44,16.44,0,0,1,7.955,5.3,6.809,6.809,0,0,0,1.83,1.83,13.259,13.259,0,0,1,1.262.615,3.436,3.436,0,0,1,1.029,1.342,13.041,13.041,0,0,1,.912,9.159c-.488,1.808-1.368,3.484-1.888,5.3a6.961,6.961,0,0,0,.3,5.446,2.2,2.2,0,0,1-2.652-.981,11.3,11.3,0,0,1-1.061-2.911,11.136,11.136,0,0,0-3.251-5.054c-.944-.838-2.652-1.4-3.293-.318-.255.419-.239.949-.456,1.384a1.818,1.818,0,0,1-2.492.53,3.824,3.824,0,0,1-1.559-2.312c-1.236-4.179-3.341-6.809-7.812-5.022-1.665.668-3.627,1.119-5.229-.026C908.59,397.292,909.019,394.306,910.531,392.588Z" transform="translate(-487.594 -216.451)"/><path class="g" d="M949.042,450.421h-6.1s-12,6-12.3,5.7c-.2-.2-2.058.143-3.235.392a12.414,12.414,0,0,0,.382-2.042c3.9-.3,13.5-6.894,13.5-6.894l7.5-1.2v3.9a1.149,1.149,0,0,1,.249.143Z" transform="translate(-496.121 -245.648)"/><path class="i" d="M926.764,785.9a16.552,16.552,0,0,1-.377,3.251s-24.925,1.8-32.7,1.2c-3.749-.286-5.346-1.686-5.632-3.028-.339,1.538,1.018,3.574,5.632,3.93,7.8.6,32.7-1.2,32.7-1.2a17.339,17.339,0,0,0,.377-4.152Z" transform="translate(-477.614 -405.113)"/><g class="n" transform="translate(406.247 204.636)"><path d="M890.165,573.476a25.477,25.477,0,0,1-9.975,5.043,4.456,4.456,0,0,0,.074.658s5.7.3,12.9-5.4a9.668,9.668,0,0,1,3.855-2.015C895.469,571.015,893.209,571.063,890.165,573.476Z" transform="translate(-880.19 -508.973)"/><path d="M959.382,461.992c-1.061-3.182-2.652-7.159-3.866-8.1a1.154,1.154,0,0,0-.244-.148s-2.482.085-2.4.148c1.236.944,2.434,4.646,3.511,7.8a16.44,16.44,0,0,1,.652,7.955c-1.061,6.438-3.362,19.67-5.966,31.178-3.6,15.91-7.5,12.3-9.3,16.2-1.474,3.182-.737,7.393-.419,8.809a7.586,7.586,0,0,0,3.118.79s-1.5-5.4.3-9.3,5.7-.3,9.3-16.2c2.6-11.5,4.895-24.739,5.966-31.178A16.441,16.441,0,0,0,959.382,461.992Z" transform="translate(-908.694 -453.74)"/></g><path class="o" d="M302.409,592.186s-6.894.477-11.19-6.894a24.779,24.779,0,0,0-2.938-4.174,14.107,14.107,0,0,1-2.063-7.494c.239-5.473-5.473-35.468-5.473-35.468s.716-11.428-5-18.561c-3.76-4.7-9.169-18.169-12.431-26.824a1.8,1.8,0,0,0,.769.4l-.133-.748.133.032-1.665-9.286a42.256,42.256,0,0,1-6.152-9.328l.382-.08L261.7,472.7s8.215-11.667,8.718-17.416l.668.032h.944a197.2,197.2,0,0,1,22.756,1.193h0c0-.037-.058-.186-.122-.419h0a28.56,28.56,0,0,1-.737-3.516l.472-.032,4.677-.313s16.185-18.089,10.235-21.425-12.139,15-12.139,15l-2,.366-.53.1a2.311,2.311,0,0,1,.17-.228c.064-.074-26.426-1.188-30.472-7.615,0,0-11.667-9.286-12.139-15.475a6.981,6.981,0,0,0-4.195-5.94,9.153,9.153,0,0,0-4.624-.864l-5.462.376.387.689h-.154a18.371,18.371,0,0,1-.859-2.418h.111c-.037-.17-.074-.339-.106-.53a12.855,12.855,0,0,0,9.466-15.83,5.144,5.144,0,0,0,1.591-.042,4.718,4.718,0,0,0,3.484-4.5v-.477a6.894,6.894,0,0,0-2.652-5.3c-1.092-.907-2.392-1.554-3.383-2.561a25.114,25.114,0,0,1-2.736-4.243,12.563,12.563,0,0,0-6.449-5.022c-1.973-.668-4.386-.742-5.9.689-.78.737-1.23,1.793-2.121,2.413-1.257.9-2.965.631-4.5.811a8.585,8.585,0,0,0-6.47,4.847,11.137,11.137,0,0,0-1.061,5.118,13.677,13.677,0,0,0,.43,3.6c.3,1.172.737,2.3,1.061,3.463.668,2.418.822,4.964,1.591,7.356a9.254,9.254,0,0,0,2.98,4.518l-.228.986c-.148.032-3.855.827-6.422,6.427-2.026,4.412-8.878,8.973-11.89,10.813a4.959,4.959,0,0,0-2.243,3.113,16.191,16.191,0,0,0-.382,3.956,27.149,27.149,0,0,0,2.853,11.869c5.24,11.428,9.047,16.44,9.047,16.44s.292,3.5.308,7.191c0,2.747-.2,5.484-.785,6.852-.493,1.156-.647,4.11-.636,7.478,0,6.465.636,14.9.636,14.9s1.819.345,4.64.758l1.755,30.859a14.849,14.849,0,0,1-3.357,10.309,22.8,22.8,0,0,1-4.243,4.02c-5,3.569-15.713,41.185-15.713,41.185s.53.032,1.389.1l-3.293,9.185s13.152,10.076,21.16,7.324a7.752,7.752,0,0,1,2.652-.377c1.591,0,4.959-1.246,3.076-2.9A121.915,121.915,0,0,1,210.7,588.93a5.465,5.465,0,0,1,.742.435v-.074l.111.074s.027-.371.085-.971l-.117-.037c.244-2.477,1.008-8.7,2.53-9.466,1.9-.955,15.947-28.8,15.947-28.8l14.043-36.184s11.19,19.282,20.709,22.613v8.045s5.24,23.806,7.143,26.426,0,13.094,0,13.094a6.523,6.523,0,0,0,1.283,1.13l-1.522,8.628s10.951-.477,29.518,5.24C301.216,599.091,308.359,596,302.409,592.186ZM258.6,467.667l-2.318.578-.456.117c-.048-.286-.08-.456-.08-.456a4.73,4.73,0,0,1-1.681.408,31.007,31.007,0,0,1-1.411-8.029,54.12,54.12,0,0,1-1.421-9.944,7.3,7.3,0,0,1,.944-4.1l.774.064.53.53.037.037.276.249h0l.286.26.048.042.313.271.053.048.318.27.032.026.355.292.08.064.377.3h.032l.371.292.085.064.408.313.085.064.392.286.069.048.445.318.106.074.467.323.042.027.456.3.111.074.493.313.106.064.461.281.085.053.53.308.127.074.53.308h.042l.53.281.133.069.562.281.117.053.53.244.1.048.589.255.143.058.615.244h0C260.556,457.946,258.6,467.667,258.6,467.667Z" transform="translate(-151.687 -212.513)"/><path class="p" d="M201.138,762.12l-4.418,12.319s12.1,9.275,19.956,7.356a21.959,21.959,0,0,1,3.606-.583c1.628-.122,4.428-1.3,2.7-2.816-5.579-4.879-13.014-13.942-13.014-13.942Z" transform="translate(-152.931 -393.944)"/><path class="p" d="M341.679,757.414l-2.089,11.853s10.691-.467,28.818,5.112c0,0,6.974-3.023,1.161-6.74,0,0-6.74.467-10.925-6.74s-6.74-6.274-6.74-6.274Z" transform="translate(-220.034 -390.405)"/><path class="q" d="M220.908,578.18l2.047,36.062A14.918,14.918,0,0,1,219.4,624.79a21.866,21.866,0,0,1-3.84,3.58c-4.879,3.484-15.337,40.2-15.337,40.2s11.853.695,15.1,3.023c0,0,.695-9.3,2.556-10.225s15.57-28.107,15.57-28.107l13.719-35.346S258.094,616.745,267.39,620v7.9s5.112,23.239,6.974,25.795,0,12.781,0,12.781,5.346,6.74,17.66-.467c0,0-3.951-4.418-3.712-9.763s-5.346-34.625-5.346-34.625.695-11.137-4.879-18.126-14.875-33.681-14.875-33.681l-6.4-13.762Z" transform="translate(-154.575 -297.157)"/><g class="r" transform="translate(45.777 258.898)"><path d="M202.549,668.589s10.458-36.719,15.337-40.2a22.141,22.141,0,0,0,4.036-3.813,14.748,14.748,0,0,0,3.357-10.309L223.231,578.2,257.5,557.062l-.467-1-35.9,22.125,2.047,36.062a14.748,14.748,0,0,1-3.336,10.32,22.139,22.139,0,0,1-4.036,3.813c-4.879,3.484-15.337,40.2-15.337,40.2s11.853.695,15.1,3.023c0,0,.027-.361.085-.949C211.076,669.093,202.549,668.589,202.549,668.589Z" transform="translate(-200.47 -556.06)"/><path d="M319.386,703.576s1.861-10.225,0-12.781-6.995-25.8-6.995-25.8v-7.9c-9.275-3.251-20.2-22.093-20.2-22.093l-.811,2.121c3.15,5,11.556,17.4,18.938,19.982v7.9s5.112,23.239,6.974,25.795,0,12.781,0,12.781,2.593,3.261,8.321,2.821A9.016,9.016,0,0,1,319.386,703.576Z" transform="translate(-243.169 -593.136)"/></g><path class="s" d="M383.824,502.633l-4.566.3-2.408.159v-5.834l3.182-.573,1.957-.355s6.04-17.893,11.853-14.642S383.824,502.633,383.824,502.633Z" transform="translate(-237.535 -262.047)"/><path class="s" d="M248.416,431.26s-3.023,11.619-3.951,18.826,21.611,1.395,21.611,1.395-8.6-10.458-3.712-16.037Z" transform="translate(-175.343 -238.546)"/><path class="t" d="M272.046,487.424l.467,4.418-7.2-.467-7.234-6.29-7.2-20.205-4.646-7.2-3.49-4.412,1.395-5.346s.636.53,1.713,1.379c3.537,2.71,11.842,8.337,17.909,6.783a7.228,7.228,0,0,0,.827-.26l9.053,15.565Z" transform="translate(-174.546 -246.371)"/><path class="k" d="M230.76,445.28s-3.712.695-6.274,6.274c-1.967,4.29-8.6,8.713-11.566,10.532a4.958,4.958,0,0,0-2.249,3.134c-.6,2.652-.827,7.584,2.429,14.69,5.112,11.137,8.83,16.037,8.83,16.037s.928,11.137-.467,14.409,0,21.149,0,21.149,24.395,4.646,32.535,0,6.974-22.544,6.974-22.544,7.668,16.249,10.458,16.732l-1.628-9.063s-9.063-9.763-9.546-22.311c0,0-2.789-11.386-.467-14.409,0,0,39.276,3.256,41.6.467,0,0-25.795-1.161-29.746-7.424,0,0-11.386-9.063-11.853-15.1a6.682,6.682,0,0,0-3.484-5.473,9.1,9.1,0,0,0-5.208-1.161l-5.25.361s9.063,16.037,8.6,18.126.467,19.054.467,19.054-10.437-22.56-15.066-25.116-9.991-13.051-9.991-13.051l.928-5.3" transform="translate(-159.315 -245.131)"/><path class="k" d="M272.046,487.424l.467,4.418-7.2-.467-7.234-6.29-7.2-20.205-4.646-7.2-3.49-4.412,1.395-5.346s.636.53,1.713,1.379l-.318,1.846s5.346,10.5,9.991,13.051,15.1,25.1,15.1,25.1-.928-16.97-.467-19.054c.318-1.421-3.755-9.254-6.4-14.149a7.234,7.234,0,0,0,.827-.26l9.053,15.554Z" transform="translate(-174.546 -246.371)"/><path class="k" d="M379.238,516.577l-2.408.159V510.9l3.182-.573C378.893,511.81,378.93,514.4,379.238,516.577Z" transform="translate(-237.525 -275.684)"/><path class="q" d="M230.76,444s-3.712.695-6.274,6.274c-1.967,4.29-8.6,8.713-11.566,10.532a4.959,4.959,0,0,0-2.249,3.134c-.6,2.652-.827,7.584,2.429,14.69,5.112,11.137,8.83,16.037,8.83,16.037s.928,11.137-.467,14.409,0,21.149,0,21.149,24.395,4.646,32.535,0,6.974-22.586,6.974-22.586,7.668,16.27,10.458,16.732l-1.628-9.063s-9.063-9.763-9.546-22.311c0,0-2.789-11.386-.467-14.409,0,0,9.063,9.763,19.288,9.546a196.352,196.352,0,0,1,22.311,1.161s-2.323-7.424,0-10.225c0,0-25.795-1.161-29.746-7.424,0,0-11.386-9.063-11.853-15.1a6.682,6.682,0,0,0-3.484-5.473,9.1,9.1,0,0,0-5.208-1.161l-5.25.361s9.084,16.005,8.618,18.126.467,19.054.467,19.054-10.458-22.549-15.088-25.105S229.831,449.3,229.831,449.3l.928-5.3" transform="translate(-159.315 -244.53)"/><path class="k" d="M233.472,490s5.579,18.826,8.83,21.149,23.005,14.176,28.818,11.386c0,0,1.395,6.974-.695,8.6,0,0-21.669-.849-21.844-.928,0,0-14.175-1.861-16.5-8.83s-5.112-18.826-5.112-18.826Z" transform="translate(-167.139 -266.135)"/><ellipse class="u" cx="0.811" cy="1.161" rx="0.811" ry="1.161" transform="translate(95.272 242.797)"/><ellipse class="u" cx="0.811" cy="1.161" rx="0.811" ry="1.161" transform="translate(97.595 250.933)"/><g class="r" transform="translate(51.001 199.428)"><path d="M223.1,529.933s-1.395-17.893,0-21.149.467-14.409.467-14.409-3.712-4.879-8.83-16.037c-3.256-7.106-3.023-12.038-2.429-14.69a4.959,4.959,0,0,1,2.254-3.134c2.964-1.819,9.6-6.242,11.561-10.532a12.072,12.072,0,0,1,4.561-5.531l.09-.53s-3.712.695-6.274,6.274c-1.967,4.29-8.6,8.713-11.561,10.532a4.958,4.958,0,0,0-2.254,3.134c-.6,2.652-.827,7.584,2.429,14.69,5.112,11.137,8.83,16.037,8.83,16.037s.928,11.137-.467,14.409,0,21.149,0,21.149,17.432,3.32,27.741,1.543C238.788,532.924,223.1,529.933,223.1,529.933Z" transform="translate(-210.321 -443.92)"/><path d="M285.952,473.824c-.318,1.432,0,9.853.26,15.008,1.124,2.3,1.83,3.813,1.83,3.813s-.928-16.97-.467-19.054c.44-1.989-7.721-16.573-8.533-18.031l-1.692.117S286.418,471.7,285.952,473.824Z" transform="translate(-241.803 -449.387)"/><path d="M325.486,518.336c-10.225.233-19.288-9.546-19.288-9.546a3.713,3.713,0,0,0-.589,1.262c2.652,2.5,10.076,8.687,18.248,8.485a192.29,192.29,0,0,1,22.311,1.161s-.048-.154-.122-.419a185,185,0,0,0-20.561-.944Z" transform="translate(-255.076 -474.388)"/><path d="M308.91,563.6s.1,1.453.042,3.633c2.418,4.773,6.82,13,8.787,13.332l-.345-1.909C314,574.419,308.91,563.6,308.91,563.6Z" transform="translate(-256.626 -500.131)"/></g><path class="s" d="M313.36,541.469l-4.937,1.061-3.893.822,2.089-5.833,1.453-.366,2.264-.562s3.256-16.27,9.763-15.1S313.36,541.469,313.36,541.469Z" transform="translate(-203.567 -280.896)"/><path class="k" d="M308.423,556.417l-3.893.822,2.089-5.834,1.453-.366A23.211,23.211,0,0,1,308.423,556.417Z" transform="translate(-203.567 -294.804)"/><path class="q" d="M233.472,489.1s5.579,18.826,8.83,21.149,23.005,14.175,28.818,11.386c0,0,1.395,6.974-.695,8.6,0,0-21.669-.849-21.844-.928,0,0-14.175-1.861-16.5-8.83s-5.112-18.826-5.112-18.826Z" transform="translate(-167.139 -265.712)"/><path class="k" d="M251.4,432.14s-.472,1.819-1.1,4.465a12.542,12.542,0,0,0,13.852,6.364c-.557-2.386-.435-4.773,1.2-6.666Z" transform="translate(-178.097 -238.959)"/><circle class="s" cx="12.547" cy="12.547" r="12.547" transform="translate(70.522 178.772)"/><path class="k" d="M266.326,403.179a6.719,6.719,0,0,0,2.8.17,4.6,4.6,0,0,0,3.4-4.391,6.746,6.746,0,0,0-2.588-5.181c-1.061-.886-2.333-1.517-3.3-2.5a23.429,23.429,0,0,1-2.652-4.131,12.266,12.266,0,0,0-6.316-4.9c-1.925-.652-4.28-.727-5.759.673-.758.716-1.2,1.75-2.052,2.355-1.23.875-2.9.615-4.4.79a8.379,8.379,0,0,0-6.316,4.73,11.837,11.837,0,0,0-.615,8.04c.292,1.14.716,2.249,1.029,3.383.652,2.365.806,4.847,1.559,7.181s2.307,4.614,4.656,5.3a14.722,14.722,0,0,1,1.5-7.584,2.174,2.174,0,0,1,1.061-1.177,2.572,2.572,0,0,1,1.278,0,12.728,12.728,0,0,0,8.485-1.718c.891-.53,2.28-2.392,3.235-2.577C262.545,401.423,265.054,402.892,266.326,403.179Z" transform="translate(-172.364 -215.312)"/><path class="v" d="M266.33,402.3a6.719,6.719,0,0,0,2.8.17,4.6,4.6,0,0,0,3.4-4.391,6.746,6.746,0,0,0-2.588-5.181c-1.061-.886-2.333-1.517-3.3-2.5a23.43,23.43,0,0,1-2.652-4.131,12.266,12.266,0,0,0-6.316-4.9c-1.925-.652-4.28-.727-5.759.674-.758.716-1.2,1.75-2.052,2.355-1.23.875-2.9.615-4.4.79a8.379,8.379,0,0,0-6.316,4.73,11.837,11.837,0,0,0-.615,8.018c.292,1.14.716,2.249,1.029,3.383.652,2.365.806,4.847,1.559,7.181s2.307,4.614,4.656,5.3a14.722,14.722,0,0,1,1.5-7.584,2.174,2.174,0,0,1,1.061-1.177,2.572,2.572,0,0,1,1.278,0,12.728,12.728,0,0,0,8.485-1.718c.891-.53,2.28-2.392,3.235-2.577C262.548,400.543,265.057,402.018,266.33,402.3Z" transform="translate(-172.367 -214.899)"/><rect class="w" width="274.044" height="327.739" transform="translate(120.028 57.206)"/><rect class="x" width="274.044" height="11.11" transform="translate(120.028 57.206)"/><line class="y" x2="199.979" transform="translate(157.06 190.757)"/><g class="a" transform="translate(157.06 168.998)"><line class="y" x2="3.182"/><line class="z" x2="184.244" transform="translate(9.429)"/><line class="y" x2="3.182" transform="translate(196.797)"/></g><g class="a" transform="translate(157.06 147.244)"><line class="y" x2="3.182"/><line class="z" x2="184.244" transform="translate(9.429)"/><line class="y" x2="3.182" transform="translate(196.797)"/></g><g class="a" transform="translate(157.06 125.485)"><line class="y" x2="3.182"/><line class="z" x2="184.244" transform="translate(9.429)"/><line class="y" x2="3.182" transform="translate(196.797)"/></g><g class="a" transform="translate(157.06 103.731)"><line class="y" x2="3.182"/><line class="z" x2="184.244" transform="translate(9.429)"/><line class="y" x2="3.182" transform="translate(196.797)"/></g><g class="aa" transform="translate(167.014 147.244)"><rect class="b" width="14.35" height="43.513"/></g><rect class="b" width="14.35" height="65.733" transform="translate(207.053 125.252)"/><g class="aa" transform="translate(247.098 168.765)"><rect class="b" width="14.35" height="22.448"/></g><rect class="b" width="14.35" height="87.954" transform="translate(287.137 103.037)"/><g class="aa" transform="translate(327.176 124.329)"><rect class="b" width="14.35" height="66.428"/></g><circle class="b" cx="3.702" cy="3.702" r="3.702" transform="translate(170.488 197.004)"/><circle class="b" cx="3.702" cy="3.702" r="3.702" transform="translate(210.76 197.004)"/><circle class="b" cx="3.702" cy="3.702" r="3.702" transform="translate(251.033 197.004)"/><circle class="b" cx="3.702" cy="3.702" r="3.702" transform="translate(291.305 197.004)"/><circle class="b" cx="3.702" cy="3.702" r="3.702" transform="translate(331.578 197.004)"/><line class="y" x2="199.979" transform="translate(157.06 330.555)"/><g class="a" transform="translate(157.06 308.796)"><line class="y" x2="3.182"/><line class="z" x2="184.244" transform="translate(9.429)"/><line class="y" x2="3.182" transform="translate(196.797)"/></g><g class="a" transform="translate(157.06 287.042)"><line class="y" x2="3.182"/><line class="z" x2="184.244" transform="translate(9.429)"/><line class="y" x2="3.182" transform="translate(196.797)"/></g><g class="a" transform="translate(157.06 265.283)"><line class="y" x2="3.182"/><line class="z" x2="184.244" transform="translate(9.429)"/><line class="y" x2="3.182" transform="translate(196.797)"/></g><g class="a" transform="translate(157.06 243.529)"><line class="y" x2="3.182"/><line class="z" x2="184.244" transform="translate(9.429)"/><line class="y" x2="3.182" transform="translate(196.797)"/></g><rect class="b" width="14.35" height="43.513" transform="translate(167.014 287.042)"/><rect class="b" width="14.35" height="43.974" transform="translate(207.053 286.809)"/><rect class="b" width="14.35" height="22.448" transform="translate(247.098 308.568)"/><rect class="b" width="14.35" height="87.954" transform="translate(287.137 242.835)"/><rect class="b" width="14.35" height="66.428" transform="translate(381.799 190.943)"/><g class="ab" transform="translate(170.488 336.802)"><circle class="b" cx="3.702" cy="3.702" r="3.702"/></g><g class="ab" transform="translate(210.76 336.802)"><circle class="b" cx="3.702" cy="3.702" r="3.702"/></g><g class="ab" transform="translate(251.033 336.802)"><circle class="b" cx="3.702" cy="3.702" r="3.702"/></g><g class="ab" transform="translate(291.305 336.802)"><circle class="b" cx="3.702" cy="3.702" r="3.702"/></g><g class="ab" transform="translate(331.578 336.802)"><circle class="b" cx="3.702" cy="3.702" r="3.702"/></g><path class="b" d="M284.726,782.781a6.189,6.189,0,0,0,2.031-3.065,2.721,2.721,0,0,0-1.421-3.124c-1.3-.5-2.7.4-3.755,1.321s-2.27,1.957-3.654,1.761a5.558,5.558,0,0,0,1.718-5.2,2.174,2.174,0,0,0-.477-1.061c-.727-.774-2.036-.44-2.906.17-2.758,1.941-3.527,5.685-3.543,9.058a17.365,17.365,0,0,1-.053-3.712,3.833,3.833,0,0,0-1.4-3.3,4.242,4.242,0,0,0-2.121-.5,4.416,4.416,0,0,0-3.468.986c-1.061,1.124-.78,3.018.138,4.243a13.8,13.8,0,0,0,3.59,2.874,7.955,7.955,0,0,1,2.567,2.445,2.426,2.426,0,0,1,.191.435h7.769a21.652,21.652,0,0,0,4.794-3.325Z" transform="translate(-184.999 -399.035)"/><path class="b" d="M996.726,770.781a6.188,6.188,0,0,0,2.031-3.065,2.721,2.721,0,0,0-1.421-3.124c-1.3-.5-2.7.4-3.755,1.321s-2.27,1.957-3.654,1.761a5.558,5.558,0,0,0,1.718-5.2,2.174,2.174,0,0,0-.477-1.061c-.727-.774-2.036-.44-2.906.17-2.758,1.941-3.527,5.685-3.543,9.058a17.365,17.365,0,0,1-.053-3.712,3.832,3.832,0,0,0-1.4-3.3,4.242,4.242,0,0,0-2.121-.5,4.416,4.416,0,0,0-3.468.986c-1.061,1.124-.78,3.018.138,4.243a13.8,13.8,0,0,0,3.59,2.874,7.954,7.954,0,0,1,2.567,2.445,2.423,2.423,0,0,1,.191.435h7.769A21.659,21.659,0,0,0,996.726,770.781Z" transform="translate(-519.41 -393.399)"/><path class="f" d="M871.848,521.275l-3.877-.451-29.7-3.452C820.248,511.676,831.65,503,831.65,503l12,11.4c3.463.695,17.039-.923,23.122-1.7,1.824-.239,2.975-.4,2.975-.4Z" transform="translate(-449.474 -272.241)"/><path class="l" d="M935.448,459.187s-7.8-6.3-19.5,14.1-14.4,17.1-14.4,17.1,2.4,9.015,1.2,10.8c0,0,8.1-.6,11.1,0s21.6-22.8,21.6-22.8S945.052,465.169,935.448,459.187Z" transform="translate(-483.975 -251.231)"/></g></svg>