<svg xmlns="http://www.w3.org/2000/svg" xmlns:xlink="http://www.w3.org/1999/xlink" width="473.827" height="319.496" viewBox="0 0 473.827 319.496"><defs><style>.a{fill:#3f3d56;}.b{fill:#ff6484;}.c{fill:url(#a);}.d{fill:#e7effd;}.e{opacity:0.3;}.f{opacity:0.4;}.g{fill:url(#b);}.h{fill:#65617d;}.i{opacity:0.1;}.j{fill:#fbbebe;}.k{opacity:0.2;}.l{fill:#d4dfec;}</style><linearGradient id="a" x1="0.5" y1="1" x2="0.5" gradientUnits="objectBoundingBox"><stop offset="0.2" stop-color="gray" stop-opacity="0.4"/><stop offset="0.46" stop-color="gray" stop-opacity="0.502"/><stop offset="1" stop-opacity="0.6"/></linearGradient><linearGradient id="b" x1="0.5" y1="1" x2="0.5" gradientUnits="objectBoundingBox"><stop offset="0" stop-color="gray" stop-opacity="0.251"/><stop offset="0.54" stop-color="gray" stop-opacity="0.122"/><stop offset="1" stop-color="gray" stop-opacity="0.102"/></linearGradient></defs><g transform="translate(0.043)"><path class="a" d="M524.7,603.861c0,18.943-104.276,88.7-234.5,88.7S57.45,618.223,57.45,599.28s102.512,24.673,232.742,24.673S524.7,584.9,524.7,603.861Z" transform="translate(-52.206 -373.066)"/><path class="b" d="M518.894,299.064v.76c-.286,7.873-4.671,15.7-12.672,21.232-8.488,5.858-19.87,8.94-31.555,10.908-1.827.307-3.663.585-5.495.854-.935.128-1.866.256-2.792.376-26.013,3.415-52.573,4.069-79.009,4.7-27.653.683-55.331,1.358-83.014,1.708l-5.49.064c-42,.453-83.987.073-125.836-2.31-12.987-.734-26.1-1.708-38.98-3.347q-2.754-.337-5.49-.739c-17.078-2.446-33.647-6.2-48.744-12.292a108.63,108.63,0,0,1-10.443-4.824c-9.482-5.034-17.479-11.4-21.437-19.212a26.948,26.948,0,0,1-2.732-14.823,34.675,34.675,0,0,1,.952-5.495,48.962,48.962,0,0,1,5.392-12.684c6.165-10.426,15.425-19.772,23.409-29.561C92,213.509,103.1,187.146,87.374,165.76c-4.513-6.144-11.036-11.527-14.712-17.953a28.912,28.912,0,0,1-3.6-11.28,40.588,40.588,0,0,1-.226-5.495,76.223,76.223,0,0,1,1.6-12.74c2.562-13.116,7.348-27.256,22.128-35.436,10.089-5.584,22.948-7.318,35.987-6.989q2.745.064,5.49.256c5,.329,9.969.935,14.768,1.708,29.647,4.735,57.009,14.627,84.632,23.559,21.031,6.8,42.813,13.154,65.416,16.185,1.827.243,3.655.47,5.49.666,5.3.581,10.644.965,16.032,1.123,26.816.768,58.1-5.038,75.91-20.117,17.2-14.576,49.461-15.75,72.874-7.044l.35.132q2.643,1.008,5.123,2.169c17.253,8.112,28.81,22,30.441,36.542a31.72,31.72,0,0,1,.145,5.439.228.228,0,0,1,0,.056c-1.119,17.884-15.737,32.9-30.582,47.95-1.836,1.857-3.676,3.714-5.495,5.584a196.77,196.77,0,0,0-13.53,15.054,70.6,70.6,0,0,0-5.089,7.3,47.151,47.151,0,0,0-3.616,7.352,30.579,30.579,0,0,0-1.994,8.24,21.547,21.547,0,0,0,2.135,11.784l.038.085c3.962,7.856,12.347,13.423,22.056,18.358,1.789.914,3.629,1.8,5.495,2.681,10.528,4.97,21.872,9.585,30.5,15.72a45.723,45.723,0,0,1,6.481,5.465,33.036,33.036,0,0,1,2.288,2.634,23.114,23.114,0,0,1,4.987,13.957C518.894,298.833,518.894,298.948,518.894,299.064Z" transform="translate(-45.11 -75.83)"/><path class="c" d="M518.894,299.064v.76c-.286,7.873-4.671,15.7-12.672,21.232-8.488,5.858-19.87,8.94-31.555,10.908-1.827.307-3.663.585-5.495.854-.935.128-1.866.256-2.792.376-26.013,3.415-52.573,4.069-79.009,4.7-27.653.683-55.331,1.358-83.014,1.708l-5.49.064c-42,.453-83.987.073-125.836-2.31-12.987-.734-26.1-1.708-38.98-3.347q-2.754-.337-5.49-.739c-17.078-2.446-33.647-6.2-48.744-12.292a108.63,108.63,0,0,1-10.443-4.824c-9.482-5.034-17.479-11.4-21.437-19.212a26.948,26.948,0,0,1-2.732-14.823,34.675,34.675,0,0,1,.952-5.495,48.962,48.962,0,0,1,5.392-12.684c6.165-10.426,15.425-19.772,23.409-29.561C92,213.509,103.1,187.146,87.374,165.76c-4.513-6.144-11.036-11.527-14.712-17.953a28.912,28.912,0,0,1-3.6-11.28,40.588,40.588,0,0,1-.226-5.495,76.223,76.223,0,0,1,1.6-12.74c2.562-13.116,7.348-27.256,22.128-35.436,10.089-5.584,22.948-7.318,35.987-6.989q2.745.064,5.49.256c5,.329,9.969.935,14.768,1.708,29.647,4.735,57.009,14.627,84.632,23.559,21.031,6.8,42.813,13.154,65.416,16.185,1.827.243,3.655.47,5.49.666,5.3.581,10.644.965,16.032,1.123,26.816.768,58.1-5.038,75.91-20.117,17.2-14.576,49.461-15.75,72.874-7.044l.35.132q2.643,1.008,5.123,2.169c17.253,8.112,28.81,22,30.441,36.542a31.72,31.72,0,0,1,.145,5.439.228.228,0,0,1,0,.056c-1.119,17.884-15.737,32.9-30.582,47.95-1.836,1.857-3.676,3.714-5.495,5.584a196.77,196.77,0,0,0-13.53,15.054,70.6,70.6,0,0,0-5.089,7.3,47.151,47.151,0,0,0-3.616,7.352,30.579,30.579,0,0,0-1.994,8.24,21.547,21.547,0,0,0,2.135,11.784l.038.085c3.962,7.856,12.347,13.423,22.056,18.358,1.789.914,3.629,1.8,5.495,2.681,10.528,4.97,21.872,9.585,30.5,15.72a45.723,45.723,0,0,1,6.481,5.465,33.036,33.036,0,0,1,2.288,2.634,23.114,23.114,0,0,1,4.987,13.957C518.894,298.833,518.894,298.948,518.894,299.064Z" transform="translate(-45.11 -75.83)"/><path class="a" d="M1043.895,116.481v89.982c-1.836,1.861-3.676,3.719-5.495,5.589V114.18Z" transform="translate(-614.35 -97.807)"/><path class="a" d="M537.12,210.6a.241.241,0,0,1,0,.055H100.937a40.649,40.649,0,0,1-.226-5.495H536.974a31.7,31.7,0,0,1,.145,5.439Z" transform="translate(-76.989 -149.944)"/><circle class="d" cx="1.601" cy="1.601" r="1.601" transform="translate(101.403 29.057)"/><circle class="d" cx="1.601" cy="1.601" r="1.601" transform="translate(50.128 25.851)"/><circle class="d" cx="0.687" cy="0.687" r="0.687" transform="translate(120.402 29.971)"/><circle class="d" cx="0.687" cy="0.687" r="0.687" transform="translate(68.896 28.37)"/><circle class="d" cx="0.687" cy="0.687" r="0.687" transform="translate(68.213 76.379)"/><circle class="d" cx="0.687" cy="0.687" r="0.687" transform="translate(385.246 40.098)"/><circle class="d" cx="0.687" cy="0.687" r="0.687" transform="translate(152.448 40.73)"/><circle class="d" cx="0.687" cy="0.687" r="0.687" transform="translate(351.368 39.355)"/><circle class="d" cx="0.687" cy="0.687" r="0.687" transform="translate(437.896 41.417)"/><path class="b" d="M551.52,466.867v.76c-.218,7.933-4.611,15.844-12.672,21.411-8.488,5.858-19.87,8.94-31.555,10.908-1.827.307-3.663.585-5.495.854-.935.128-1.866.256-2.792.376-6.4.854-12.842,1.507-19.3,2.054-8.667.734-17.376,1.242-26.095,1.618-11.194.491-22.41.768-33.613,1.046-21.9.538-43.812,1.076-65.749,1.447l-7.783.128-9.5.128-5.49.064c-34.582.367-69.113.179-103.584-1.23q-3.441-.137-6.869-.3-7.685-.337-15.37-.781c-10.268-.581-20.617-1.315-30.855-2.4q-4.073-.427-8.112-.944-2.754-.337-5.49-.739-3.048-.427-6.071-.931c-14.943-2.442-29.369-5.977-42.673-11.365A110.747,110.747,0,0,1,102,484.133V408.991c1.9-2.2,3.778-4.4,5.589-6.622,2.177-2.673,4.269-5.426,6.191-8.253h41.328V368.65H227.9v55.989H346.465v-44.4H483.257a47.817,47.817,0,0,0-3.582,7.109v.239h-.158a30.577,30.577,0,0,0-1.994,8.24,21.547,21.547,0,0,0,2.135,11.784v.179l.038.085c3.962,7.856,12.347,13.423,22.056,18.358,1.789.914,3.629,1.8,5.495,2.681,10.422,4.918,21.65,9.5,30.24,15.541l.256.179a45.938,45.938,0,0,1,6.323,5.285c.064.06.12.12.175.179a33.018,33.018,0,0,1,2.288,2.634,23.144,23.144,0,0,1,4.987,13.777C551.52,466.637,551.52,466.752,551.52,466.867Z" transform="translate(-77.736 -243.634)"/><path class="e" d="M551.52,466.867v.76c-.218,7.933-4.611,15.844-12.672,21.411-8.488,5.858-19.87,8.94-31.555,10.908-1.827.307-3.663.585-5.495.854-.935.128-1.866.256-2.792.376-6.4.854-12.842,1.507-19.3,2.054-8.667.734-17.376,1.242-26.095,1.618-11.194.491-22.41.768-33.613,1.046-21.9.538-43.812,1.076-65.749,1.447l-7.783.128-9.5.128-5.49.064c-34.582.367-69.113.179-103.584-1.23q-3.441-.137-6.869-.3-7.685-.337-15.37-.781c-10.268-.581-20.617-1.315-30.855-2.4q-4.073-.427-8.112-.944-2.754-.337-5.49-.739-3.048-.427-6.071-.931c-14.943-2.442-29.369-5.977-42.673-11.365A110.747,110.747,0,0,1,102,484.133V408.991c1.9-2.2,3.778-4.4,5.589-6.622,2.177-2.673,4.269-5.426,6.191-8.253h41.328V368.65H227.9v55.989H346.465v-44.4H483.257a47.817,47.817,0,0,0-3.582,7.109v.239h-.158a30.577,30.577,0,0,0-1.994,8.24,21.547,21.547,0,0,0,2.135,11.784v.179l.038.085c3.962,7.856,12.347,13.423,22.056,18.358,1.789.914,3.629,1.8,5.495,2.681,10.422,4.918,21.65,9.5,30.24,15.541l.256.179a45.938,45.938,0,0,1,6.323,5.285c.064.06.12.12.175.179a33.018,33.018,0,0,1,2.288,2.634,23.144,23.144,0,0,1,4.987,13.777C551.52,466.637,551.52,466.752,551.52,466.867Z" transform="translate(-77.736 -243.634)"/><rect class="f" width="12.21" height="8.24" transform="translate(37.841 160.866)"/><rect class="f" width="12.21" height="8.24" transform="translate(57.378 160.866)"/><rect class="f" width="12.21" height="8.24" transform="translate(281.704 143.93)"/><rect class="f" width="12.21" height="8.24" transform="translate(314.668 143.93)"/><rect class="f" width="12.21" height="8.24" transform="translate(350.07 143.93)"/><rect class="f" width="12.21" height="8.24" transform="translate(281.704 169.111)"/><rect class="f" width="12.21" height="8.24" transform="translate(314.668 169.111)"/><rect class="b" width="12.21" height="8.24" transform="translate(350.07 169.111)"/><rect class="f" width="12.21" height="8.24" transform="translate(281.704 194.287)"/><rect class="f" width="12.21" height="8.24" transform="translate(314.668 194.287)"/><rect class="f" width="12.21" height="8.24" transform="translate(350.07 194.287)"/><rect class="f" width="12.21" height="8.24" transform="translate(281.704 219.468)"/><rect class="f" width="12.21" height="8.24" transform="translate(314.668 219.468)"/><rect class="f" width="12.21" height="8.24" transform="translate(350.07 219.468)"/><rect class="f" width="12.21" height="8.24" transform="translate(281.704 244.649)"/><rect class="f" width="12.21" height="8.24" transform="translate(314.668 244.649)"/><rect class="f" width="12.21" height="8.24" transform="translate(350.07 244.649)"/><path class="f" d="M974.612,413a30.578,30.578,0,0,0-1.994,8.24h-6.7V413Z" transform="translate(-572.815 -269.049)"/><rect class="b" width="12.21" height="8.24" transform="translate(393.105 169.111)"/><rect class="f" width="12.21" height="8.24" transform="translate(393.105 194.287)"/><rect class="f" width="12.21" height="8.24" transform="translate(393.105 219.468)"/><rect class="f" width="12.21" height="8.24" transform="translate(393.105 244.649)"/><rect class="f" width="12.21" height="8.24" transform="translate(105.6 134.315)"/><rect class="b" width="12.21" height="8.24" transform="translate(105.6 152.789)"/><rect class="f" width="12.21" height="8.24" transform="translate(105.6 171.258)"/><rect class="f" width="12.21" height="8.24" transform="translate(105.6 189.732)"/><rect class="f" width="12.21" height="8.24" transform="translate(105.6 208.201)"/><rect class="f" width="12.21" height="8.24" transform="translate(105.6 226.675)"/><rect class="f" width="12.21" height="8.24" transform="translate(105.6 245.144)"/><rect class="f" width="12.21" height="8.24" transform="translate(37.841 182.401)"/><rect class="f" width="12.21" height="8.24" transform="translate(57.378 182.401)"/><rect class="f" width="12.21" height="8.24" transform="translate(37.841 203.936)"/><rect class="f" width="12.21" height="8.24" transform="translate(57.378 203.936)"/><rect class="f" width="12.21" height="8.24" transform="translate(37.841 225.471)"/><rect class="f" width="12.21" height="8.24" transform="translate(57.378 225.471)"/><rect class="f" width="61.044" height="7.365" transform="translate(174.577 190.607)"/><rect class="f" width="61.044" height="7.365" transform="translate(174.577 214.106)"/><rect class="f" width="61.044" height="7.365" transform="translate(174.577 237.609)"/><path class="a" d="M246.09,76.176V334.047q-2.754-.337-5.49-.739V75.92C242.432,75.954,244.259,76.048,246.09,76.176Z" transform="translate(-157.162 -75.882)"/><path class="a" d="M644.99,174.25V395.623l-5.49.064V173.58Q642.241,173.951,644.99,174.25Z" transform="translate(-385.756 -131.847)"/><path class="a" d="M511.8,551.625H45.39a34.675,34.675,0,0,1,.952-5.495H505.336a45.2,45.2,0,0,1,6.464,5.495Z" transform="translate(-45.295 -345.34)"/><path class="a" d="M1038.4,503.06c1.789.914,3.629,1.8,5.495,2.681v71.051c-1.827.307-3.663.585-5.495.854Z" transform="translate(-614.35 -320.659)"/><path class="d" d="M334.258,228.4h-1.05v-1.05h-.188v1.05h-1.05v.188h1.05v1.05h.188v-1.05h1.05Z" transform="translate(-190.263 -130.285)"/><path class="d" d="M845.538,177.27h-1.05v-1.05H844.3v1.05H843.25v.188H844.3v1.05h.192v-1.05h1.05Z" transform="translate(-483.258 -100.985)"/><path class="d" d="M392.528,167.32h-1.05v-1.05h-.192v1.05H390.24v.192h1.046v1.046h.192v-1.046h1.05Z" transform="translate(-223.656 -95.283)"/><circle class="d" cx="0.687" cy="0.687" r="0.687" transform="translate(166.584 138.478)"/><circle class="d" cx="0.687" cy="0.687" r="0.687" transform="translate(323.344 77.067)"/><circle class="d" cx="0.687" cy="0.687" r="0.687" transform="translate(392.418 109.621)"/><circle class="d" cx="0.687" cy="0.687" r="0.687" transform="translate(284.24 115.517)"/><path class="g" d="M540.451,392.213S525.8,395.757,520,402.387a19.727,19.727,0,0,1-7.8,4.952v-10c3.351-5.627,6.729-11.886,6.729-11.886.154-.307,1.375-4.624,1.375-4.624,2.75-2.16-.154-9.709-.154-9.709s1.682-4.777.764-5.7-.154-3.39.611-4.47a5.577,5.577,0,0,0,.61-3.39c0-.922-1.221-2.314-3.206-3.082s.154-2,1.375-2.314,1.528-3.236.154-4.777.154-2.463.914-4.158-2.455-1.388-2.455-1.388V326.251h0s-.918-5.085-1.832-14.025-4.427-9.862-4.427-9.862a40.213,40.213,0,0,1-5.495-2.16,37.634,37.634,0,0,0-5.8-2.156,29.844,29.844,0,0,1-7.48-1.033,22.855,22.855,0,0,0-5.1-1.106l-.551-.273a19.993,19.993,0,0,1-9.26-9.82c-.094-.213-.179-.427-.265-.632a21.551,21.551,0,0,0,2.438-3.236v1.785h0v.038c2.434-4.3,9.5-5.281,10.165-10.191a5.115,5.115,0,0,0,.047-.675v-.525c-.09-1.37-.559-2.737-.649-4.12a7.9,7.9,0,0,1,0-1.191v.026c.316-3.813,3.189-7.13,4.5-10.831a12.984,12.984,0,0,0,.687-3.082v-.03c.034-.316.056-.636.064-.956v-.9a14.422,14.422,0,0,0-4.76-10.417c-2.434-2.113-5.648-3.441-7.335-6.2-.786-1.281-1.17-2.8-2.028-4.039-1.614-2.34-4.577-3.292-7.382-3.629s-5.687-.226-8.368-1.106c-1.9-.623-3.629-1.729-5.55-2.284a10.618,10.618,0,0,0-11.4,4.111c-1.012,1.477-1.674,3.245-3.04,4.4-2.8,2.365-7.54,1.341-9.99,4.064-1.345,1.5-1.5,3.539-1.336,5.623v.077a4.73,4.73,0,0,0,.047.482v.226a.7.7,0,0,0,.03.243c.085.747.192,1.49.286,2.207a2.87,2.87,0,0,0,.038.329l.077.67a4.677,4.677,0,0,0,.043.487c.017.162.03.427.043.606a4.223,4.223,0,0,0,.03.478,32.943,32.943,0,0,1-3.5,16.437c-2.31,4.53-5.742,8.705-6.34,13.765a14.828,14.828,0,0,0-.068,2.5v.295c0,.1.026.3.038.448s.034.346.055.517a2.318,2.318,0,0,0,.038.295c.03.226.064.453.1.683l.026.145c.606,3.45,1.981,6.831,2.711,10.315a27.9,27.9,0,0,1,.546,3.9.055.055,0,0,0,0,.026c.026.427.047.833.06,1.251V299.9a27.1,27.1,0,0,1-3.556,1.093c-2.135.307-8.4,5.858-7.941,7.258s-2.8,11.1-2.89,11.395h0l-5.123,35.436s-2.72,2.621-1.87,4.316-.167,4.624-.167,4.624-4.594,2-3.573,3.236.555,3.544-.145,5.085-1.849,4.316,0,4.777.316,6.477.316,6.477,6.443-.743,5.977,3.082c-.154,1.217,4.5,4.564,6.447,5.9V411a56.288,56.288,0,0,1-7.629-2.591c-3.966-1.849-26.248-5.392-31.132,5.243s6.716,24.814,9.615,26.355a19.787,19.787,0,0,1,3.36,3.236c.611,1.08,4.12,1.388,4.12,1.388a26.789,26.789,0,0,1,4.577,2.617c.675.683,6.255,2.455,12.868,3.842h0s-5.341,12.3,3.373,11.284,12.958-5.3,19.1-5.3c2.455,0,7.015-.346,11.6-.756a30.832,30.832,0,0,1,3.416.807,43.893,43.893,0,0,0,7.933,1.708s6.869,3.7,10.533,2.771a2.327,2.327,0,0,0,.828-.427h.085a4.8,4.8,0,0,0,2.207-1.891c4.581.47,9.82,1.136,11.766,1.9,3.8,1.464,30.945-.564,30.945-.564s17.539.346,22.564,1.866,3.24-15.519-6.033-17.436a38.049,38.049,0,0,0-7.518-.743,16.872,16.872,0,0,0,1.755-2.135c3.339-.3,5.55-.491,5.55-.491s8.85-4.316,13.888-6.938a31.689,31.689,0,0,0,8.539-6.78s4.423-2.775,6.255-3.842,2.745-4.624,2.745-4.624C575.7,388.046,540.451,392.213,540.451,392.213Zm-39.74-39.441v-1.554c.5.35.423.9,0,1.55Zm.145,10.9c.371.487.73.931.986,1.281.986,1.281-.8,1.879-.67,4,.03.474.073,1.136.115,1.87h0c-.188-3.061-.342-5.58-.431-7.155Z" transform="translate(-235.077 -160.312)"/><path class="h" d="M421.455,658.178s-8.539-1.985-12.514-3.817-26.248-5.341-31.132,5.192,6.716,24.566,9.615,26.095,31.132-19.387,31.132-19.387l22.269,9.393,4.269-14.576Z" transform="translate(-235.112 -406.181)"/><rect class="h" width="96.945" height="33.724" rx="16.862" transform="translate(195.766 254.896)"/><path class="i" d="M600.645,689.72a16.826,16.826,0,0,1-2.809,9.324,17.077,17.077,0,0,1-2.135,2.6,16.809,16.809,0,0,1-11.924,4.94H520.564a16.864,16.864,0,0,1,0-33.728h63.217A16.864,16.864,0,0,1,600.645,689.72Z" transform="translate(-307.934 -417.964)"/><path class="j" d="M520.817,714.66s-9.721,2.5-17.654,2.387-45.038,15.306-45.038,15.306-5.341,12.176,3.373,11.169,12.958-5.234,19.1-5.234,25.471-2.135,25.471-2.135l18.6-13.739Z" transform="translate(-280.889 -441.918)"/><path class="j" d="M559.941,387.064,542.5,390.5l-1.131.226s-13.786-3.663-14.243-3.971-12.97-17.167-12.97-17.167,6.327.068,11.3-2.8c.179-.1.354-.213.529-.32a11.015,11.015,0,0,0,4.7-5.759c.09-.252.167-.512.239-.786a15.491,15.491,0,0,0-.145-7.506c-1.708-7.117,2.22-9.077,7.424-8.906,7.518.248,17.752,4.94,17.752,4.94a20.864,20.864,0,0,0,1.61,6.959c.081.2.171.427.265.623a19.87,19.87,0,0,0,9.26,9.713l.551.273c.555.265,1.14.517,1.746.743C582.679,371.805,559.941,387.064,559.941,387.064Z" transform="translate(-313.929 -229.225)"/><path class="i" d="M579.638,356.041a21.992,21.992,0,0,1-27.145,4.675,14.792,14.792,0,0,0,.094-8.291c-4.12-17.4,25.189-3.966,25.189-3.966A21.145,21.145,0,0,0,579.638,356.041Z" transform="translate(-335.722 -229.228)"/><path class="j" d="M570.373,307.147a21.825,21.825,0,0,1-3.33,11.626,21.513,21.513,0,0,1-2.438,3.206,21.851,21.851,0,0,1-14.883,7.087c-.427.03-.884.043-1.328.043a21.975,21.975,0,1,1,21.975-21.975Z" transform="translate(-320.954 -195.789)"/><path class="i" d="M559.941,416.974,542.5,420.411l-1.131.226s-13.786-3.663-14.243-3.971S514.16,399.5,514.16,399.5s6.327.068,11.3-2.8c.179-.1.354-.213.529-.32a20.467,20.467,0,0,0,14.875,6.5,21.479,21.479,0,0,0,3.117-.226c2.451-.376,4.923-.619,7.39-.854,4.726-.5,11.954-1.93,15.75-6.105l.551.273c.555.265,1.14.517,1.746.743C582.679,401.716,559.941,416.974,559.941,416.974Z" transform="translate(-313.929 -259.135)"/><path class="b" d="M551.971,461.855c.149,3.36,2.6,41.2,2.6,41.2H478.414l.517-23.828.427-19.059.137-6.255.611-21.667L477.9,430.3l-12-10.571h0c.09-.282,3.343-9.926,2.89-11.284s5.8-6.865,7.941-7.173a27.8,27.8,0,0,0,3.578-1.089c3.6-1.281,8.4-3.125,8.932-2.835.747.4,8.236-.295,8.539-.324h0a20.426,20.426,0,0,0,15.4,7.1,20.92,20.92,0,0,0,3.1-.248c2.451-.376,4.923-.619,7.39-.875,4.965-.517,12.684-2.075,16.3-6.746a23.107,23.107,0,0,1,5.1,1.093,30.287,30.287,0,0,0,7.48,1.025,37.957,37.957,0,0,1,5.8,2.135,40.551,40.551,0,0,0,5.495,2.135s3.509.914,4.427,9.764,1.844,13.888,1.844,13.888l-18.145,15.716S551.822,458.482,551.971,461.855Z" transform="translate(-286.273 -259.456)"/><path class="j" d="M417.115,518.5l2.668,4.274,9.995,3.522,6.869-12.526-6.332-4.274-10.148-3.966-5.8,3.356Z" transform="translate(-237.484 -289.699)"/><path class="h" d="M663.882,637.059s14.191-1.067,19.994-7.629,20.446-10.071,20.446-10.071,35.252-4.12,21.347,27.012c0,0-.914,3.509-2.745,4.577s-6.255,3.817-6.255,3.817l-54.149-4.73Z" transform="translate(-398.948 -387.201)"/><path class="i" d="M654.6,695.473a16.826,16.826,0,0,1-2.809,9.324c-9.111.807-29.288,2.7-33.51,3.881-5.187,1.439-15.686-1.067-16.834-1.349l-.107-.026s-2.024-6.139-2.989-10.067c-.427-1.785-.653-3.112-.371-3.211.918-.3,9.312-2.6,9.158-1.281S632.33,682.9,632.33,682.9l.777,9.768C635.681,695.614,654.6,691.234,654.6,695.473Z" transform="translate(-361.893 -423.718)"/><path class="h" d="M681.937,687.918l-1.067,3.971a31.633,31.633,0,0,1-8.539,6.711c-5.038,2.6-13.888,6.87-13.888,6.87s-32.5,2.745-38,4.269-16.941-1.375-16.941-1.375-4.269-12.97-3.356-13.278,9.307-2.592,9.158-1.281S634.5,683.96,634.5,683.96Z" transform="translate(-363.131 -424.325)"/><path class="j" d="M579.92,753.592s15.976,1.114,19.776,2.562,30.945-.555,30.945-.555,17.539.342,22.564,1.844,3.24-15.37-6.033-17.261-22.342.892-22.342.892-14.746-1.9-16.535-2.135-13.568.107-13.568.107Z" transform="translate(-351.613 -455.785)"/><path class="i" d="M432.87,674.72s21.116,1.9,26.923,5.362Z" transform="translate(-267.345 -419.03)"/><path class="i" d="M710.476,642.28s-16.535,4.022-23.016,9.939Z" transform="translate(-413.24 -400.44)"/><path class="i" d="M435.75,663.47c.337.111,9.721,1.341,9.5,2.233S435.75,663.47,435.75,663.47Z" transform="translate(-268.995 -412.583)"/><path class="i" d="M401.21,705.917l1.221,4.581a19.776,19.776,0,0,1,3.356,3.2c.611,1.067,4.12,1.375,4.12,1.375a26.116,26.116,0,0,1,4.581,2.592c.918.914,10.831,3.817,20.143,5.038s26.551,3.509,30.214,4.731a43.982,43.982,0,0,0,7.937,1.678s6.865,3.663,10.528,2.749,9.918-17.551,9.918-17.551-24.109-5.644-24.874-7.476-23.96-10.375-23.96-10.375l-13.735.324Z" transform="translate(-249.201 -431.489)"/><path class="h" d="M399.06,696.528l1.221,4.581a19.762,19.762,0,0,1,3.36,3.2c.611,1.067,4.12,1.375,4.12,1.375a25.773,25.773,0,0,1,4.577,2.6c.914.918,10.836,3.813,20.143,5.034s26.556,3.509,30.219,4.73a44.11,44.11,0,0,0,7.932,1.674s6.87,3.659,10.533,2.745,9.918-17.552,9.918-17.552-24.114-5.644-24.873-7.476-34.8-15.716-34.8-15.716L420.74,679.28Z" transform="translate(-247.969 -421.644)"/><path class="b" d="M452.624,447.67l-2.668,1.528-5.123,35.1s-2.72,2.6-1.87,4.269-.167,4.577-.167,4.577-4.594,1.985-3.573,3.206.555,3.509-.145,5.034-1.849,4.269,0,4.73.316,6.4.316,6.4,6.443-.734,5.977,3.048c-.192,1.528,7.284,6.4,7.284,6.4s-8.5-15.412,10.537-13.278L464.826,500s1.635-4.893,0-6.4.367-8.774.367-8.774l.359-31.512Z" transform="translate(-270.329 -288.917)"/><path class="i" d="M462.44,553.84c.337.559,10.614,1.708,11.284,3.531S462.44,553.84,462.44,553.84Z" transform="translate(-284.29 -349.759)"/><path class="i" d="M454.85,569.322s1.4-4.359,4.7-3.578S454.85,569.322,454.85,569.322Z" transform="translate(-279.94 -356.527)"/><path class="i" d="M450.67,581.929s2.455-5.811,5.806-5.362S450.67,581.929,450.67,581.929Z" transform="translate(-277.545 -362.769)"/><path class="j" d="M672.609,579.227l-1.072,6.4s-10.985,20.147-12.97,20.45-12.808-13.427-12.808-13.427l-2.9-13.432,11.412-2.165,5.068-5.008S672.148,573.275,672.609,579.227Z" transform="translate(-387.682 -360.194)"/><path class="b" d="M678.682,456.258l4.12,2.9V474.57s3.206-.307,2.442,1.375-2.288,2.592-.914,4.12,1.067,4.423-.154,4.73-3.356,1.524-1.375,2.288,3.206,2.135,3.206,3.053a5.464,5.464,0,0,1-.611,3.356c-.764,1.067-1.524,3.509-.611,4.427s-.764,5.644-.764,5.644,2.9,7.48.154,9.615c0,0-1.221,4.269-1.375,4.577,0,0,1.926-14.853-17.274-8.573,0,0-.354-5.661-.487-7.757s1.657-2.711.67-3.962-3.454-4.124-2.288-4.884.764-2.135.3-3.206-2.071-1.067-.61-2.365,2.327-2.515,1.469-3.125-2.348-2.6-1.161-3.514,1.221-14.191,1.221-14.191S669.528,446.644,678.682,456.258Z" transform="translate(-398.946 -292.314)"/><path class="i" d="M695.84,520.38s5.866-1.592,6.058,0S695.84,520.38,695.84,520.38Z" transform="translate(-418.042 -330.179)"/><path class="i" d="M680.4,530.2s8.044-2.011,9.047-.448S680.4,530.2,680.4,530.2Z" transform="translate(-409.194 -335.614)"/><path class="i" d="M676.21,540.79s12.065-1.678,12.847.781S676.21,540.79,676.21,540.79Z" transform="translate(-406.793 -341.96)"/><path class="i" d="M680.4,553.84c.448.111,11.617.892,11.839,3.014S680.4,553.84,680.4,553.84Z" transform="translate(-409.194 -349.759)"/><rect class="a" width="95.669" height="54.337" rx="10.47" transform="translate(181.463 210.959)"/><circle class="d" cx="3.527" cy="3.527" r="3.527" transform="translate(225.771 234.603)"/><path class="i" d="M507.72,491.94s9.171,7.01,16.262,1.669C523.982,493.609,511.994,494.7,507.72,491.94Z" transform="translate(-310.238 -314.286)"/><path class="i" d="M616.48,496.36s9.166,7.006,16.258,1.665C632.738,498.025,620.754,499.118,616.48,496.36Z" transform="translate(-372.564 -316.819)"/><path class="i" d="M544.163,307.2a21.825,21.825,0,0,1-3.33,11.626,33.483,33.483,0,0,0-4.953-17.351c-3.048-4.7-12.317-12.889-18.687-10.605a4.513,4.513,0,0,0-2.784,2.989c-.632,2.4,1.217,3.416,2.4,5.307a16.271,16.271,0,0,1,2.22,10.964,15.247,15.247,0,0,1-.32,1.52c-1,3.766-3.3,8.073-.931,11.16,1.652,2.135,5.2,2.895,5.687,5.55a3.238,3.238,0,0,1,.043.76c-.111,1.8-1.644,3.381-2.314,5.145-.786,2.079-.342,4.146.474,6.233,1.059,2.724,2.75,5.478,3.159,8.355s-.474,5.55-1.516,8.253a36.839,36.839,0,0,0-2.519,7.77c-.739,5.072,1.123,10.938-2.071,14.943a2.237,2.237,0,0,1-1.4.944c-2.045.213-1.708-3.463-3.343-4.7a14.432,14.432,0,0,1-.427,6.361c-.768,2-2.792,3.7-4.91,3.36l-.73-4.795a13.846,13.846,0,0,1-5.081,3.181,37.033,37.033,0,0,1,5.3-14.345c-5.375,2.587-8.509,8.189-11.305,13.457-1.742,3.292-3.548,6.887-2.937,10.562.248,1.5.892,2.925,1.033,4.432s-.406,3.27-1.81,3.842a3.273,3.273,0,0,1-3.539-1.1l-.154-.184c-.085-.111-.167-.226-.243-.342a5.73,5.73,0,0,1-.406-.726,14.043,14.043,0,0,1-.854-2.8l-.094-.427c-1.422-6.238-2.7-12.672-1.661-18.982.384-2.323,1.084-4.628,1-6.985a12.806,12.806,0,0,0-.8-3.885c-1.247-3.492-3.646-6.7-5.012-10.217a.3.3,0,0,1-.034-.077c-.717-1.861-1.072-4.188.256-5.683A11.217,11.217,0,0,1,484.14,349c2.656-1.729,3.842-5.012,4.333-8.146a27.7,27.7,0,0,0,.333-4.269c3.6-1.281,8.4-3.125,8.932-2.835.747.4,8.236-.295,8.539-.324a11.218,11.218,0,0,0,5.243-6.08c.09-.252.167-.512.239-.786a21.975,21.975,0,1,1,32.409-19.345Z" transform="translate(-294.744 -195.839)"/><path class="a" d="M518.711,277.793c-1.008,3.766-3.3,8.073-.926,11.164,1.652,2.135,5.2,2.89,5.678,5.55.38,2.135-1.5,3.894-2.263,5.9-1.81,4.795,2.912,9.508,3.629,14.584.781,5.508-3.232,10.524-4.03,16.027-.739,5.072,1.123,10.934-2.071,14.943a2.211,2.211,0,0,1-1.4.944c-2.045.218-1.708-3.458-3.343-4.7a14.432,14.432,0,0,1-.427,6.361c-.768,2-2.792,3.693-4.91,3.36l-.73-4.8a13.828,13.828,0,0,1-5.081,3.181,37.059,37.059,0,0,1,5.3-14.341c-5.375,2.587-8.5,8.189-11.3,13.453-1.746,3.292-3.548,6.891-2.942,10.567.248,1.5.892,2.92,1.033,4.432s-.406,3.266-1.81,3.842a3.335,3.335,0,0,1-3.693-1.281,9.628,9.628,0,0,1-1.507-3.877c-1.46-6.37-2.822-12.945-1.759-19.392.384-2.327,1.084-4.632,1-6.985-.184-5.153-3.988-9.393-5.841-14.187-.722-1.866-1.072-4.188.256-5.683a11.217,11.217,0,0,1,2.562-1.708c2.651-1.733,3.842-5.012,4.329-8.146a28.228,28.228,0,0,0-.286-10.2c-1.072-5.017-3.531-9.918-2.92-15.011.6-5.012,4.03-9.145,6.34-13.632a32.252,32.252,0,0,0,3.27-18.849c-.4-3.01-1.093-6.494.948-8.744,2.451-2.7,7.194-1.682,9.99-4.022,1.366-1.14,2.028-2.895,3.04-4.355a10.673,10.673,0,0,1,11.4-4.073c1.921.551,3.646,1.644,5.55,2.263,2.681.854,5.55.76,8.368,1.1s5.768,1.281,7.382,3.591c.854,1.23,1.242,2.728,2.028,4,1.686,2.732,4.9,4.047,7.335,6.144a14.234,14.234,0,0,1,4,15.2c-1.452,4.043-4.812,7.621-4.526,11.907.115,1.763.854,3.492.623,5.239-.675,4.863-7.732,5.832-10.17,10.093.2-6.985-1.144-14.179-4.957-20.032-3.048-4.7-12.317-12.894-18.687-10.609a4.53,4.53,0,0,0-2.784,2.989c-.632,2.4,1.217,3.415,2.4,5.307A16.138,16.138,0,0,1,518.711,277.793Z" transform="translate(-294.742 -162.9)"/><g class="k" transform="translate(185.95 81.379)"><path d="M494.794,375.758a27.985,27.985,0,0,0-.611-6.532c-.909-4.269-2.814-8.449-2.989-12.736-.248,4.773,1.985,9.393,2.989,14.089a28.03,28.03,0,0,1,.61,5.179Z" transform="translate(-486.707 -318.044)"/><path d="M524.549,480.071c.371-.679.756-1.353,1.17-2.011-5.371,2.587-8.5,8.189-11.3,13.457-1.618,3.044-3.279,6.357-3.031,9.747.2-2.907,1.635-5.742,3.031-8.377C517.005,488.016,519.883,482.867,524.549,480.071Z" transform="translate(-498.275 -387.711)"/><path d="M501.75,525.515a3.241,3.241,0,0,1-1.785,2.677,3.333,3.333,0,0,1-3.689-1.281,9.67,9.67,0,0,1-1.511-3.877,69.71,69.71,0,0,1-2.135-13.854c-.1,5.093.982,10.225,2.135,15.229a9.609,9.609,0,0,0,1.511,3.877,3.335,3.335,0,0,0,3.689,1.281c1.4-.576,1.955-2.331,1.814-3.842A.519.519,0,0,1,501.75,525.515Z" transform="translate(-487.537 -405.545)"/><path d="M567.618,334.2a15.489,15.489,0,0,1-.5,3.245c-.743,2.788-2.194,5.879-1.934,8.539.2-2.323,1.315-4.85,1.934-7.177A15.429,15.429,0,0,0,567.618,334.2Z" transform="translate(-529.103 -305.271)"/><path d="M513.556,275a32.046,32.046,0,0,0-.265-4.871c-.158-1.187-.359-2.451-.427-3.684a26.637,26.637,0,0,0,.427,5.059,31.957,31.957,0,0,1,.265,3.5Z" transform="translate(-499.125 -266.44)"/><path d="M577.307,384.047a.147.147,0,0,0-.03-.107c-.324,1.588-1.631,3.04-2.233,4.637a6.5,6.5,0,0,0-.376,2.989,6.139,6.139,0,0,1,.376-1.614C575.8,387.94,577.683,386.164,577.307,384.047Z" transform="translate(-534.532 -333.775)"/><path d="M487.178,457.655c-.188-5.153-3.988-9.393-5.845-14.187a9.727,9.727,0,0,1-.6-2.348,7.932,7.932,0,0,0,.6,3.723c1.827,4.73,5.525,8.893,5.823,13.931C487.178,458.4,487.191,458.027,487.178,457.655Z" transform="translate(-480.709 -366.542)"/><path d="M581.006,303.231c-3.053-4.7-12.317-12.894-18.687-10.609a4.534,4.534,0,0,0-2.788,2.989,3.232,3.232,0,0,0-.047,1.605.888.888,0,0,1,.047-.231A4.526,4.526,0,0,1,562.318,294c6.37-2.284,15.635,5.926,18.687,10.609,3.45,5.3,4.871,11.7,4.965,18.051C586.061,315.847,584.7,308.9,581.006,303.231Z" transform="translate(-525.806 -281.218)"/><path d="M631.778,341.158c-.67,4.85-7.685,5.828-10.148,10.063v1.4c2.434-4.269,9.5-5.23,10.165-10.093a5.791,5.791,0,0,0,0-1.439A.357.357,0,0,1,631.778,341.158Z" transform="translate(-561.465 -309.219)"/><path d="M648.443,295.911c-1.452,4.047-4.812,7.621-4.526,11.912v.188c.316-3.778,3.189-7.057,4.5-10.725a13.441,13.441,0,0,0,.747-5.226,13.053,13.053,0,0,1-.726,3.851Z" transform="translate(-574.227 -281.122)"/><path d="M563.439,492.355a2.22,2.22,0,0,1-1.4.948c-2.045.218-1.708-3.458-3.343-4.7.043.487.081.978.107,1.469,1.52,1.315,1.238,4.812,3.236,4.6a2.2,2.2,0,0,0,1.4-.944c1.823-2.288,2-5.179,1.951-8.18C565.343,488.052,564.98,490.438,563.439,492.355Z" transform="translate(-525.403 -392.003)"/><path d="M543.295,503.627c-.777,2-2.792,3.7-4.914,3.36q-.363-2.4-.726-4.8a13.927,13.927,0,0,1-4.829,3.087c-.094.487-.184.978-.256,1.469a13.841,13.841,0,0,0,5.085-3.181q.363,2.4.726,4.8c2.135.333,4.137-1.358,4.914-3.36a10.939,10.939,0,0,0,.559-4.342A9.235,9.235,0,0,1,543.295,503.627Z" transform="translate(-510.429 -400.662)"/><path d="M574.386,447.86a24.393,24.393,0,0,0-.184,3.889,19.463,19.463,0,0,1,.184-2.515c.764-5.247,4.44-10.05,4.107-15.255C578.2,438.685,575.082,443.078,574.386,447.86Z" transform="translate(-534.279 -362.451)"/></g><path class="b" d="M871.626,637s-2.9,13.5,10,15.105l.8-1.5S872.437,641.214,871.626,637Z" transform="translate(-518.619 -397.415)"/><path class="b" d="M891.919,641.405l-2.989.636-.3.064s-8.005-6.5-7.9-21.005a36.3,36.3,0,0,0,3.821,6.05C887.713,631.346,891.321,636.952,891.919,641.405Z" transform="translate(-523.994 -388.303)"/><path class="b" d="M899.745,636.1a1.891,1.891,0,0,1-1.614.209c-7.685-1.8-5.1-26.9-5.1-26.9.427.2.892,3.416,2.664,7.514C898.8,624.178,902.217,634.279,899.745,636.1Z" transform="translate(-530.805 -381.604)"/><path class="b" d="M931.621,637s.5,13.5-12.4,15.105l-.8-1.5S930.823,641.214,931.621,637Z" transform="translate(-545.594 -397.415)"/><path class="b" d="M922.434,621.1c.094,14.516-10.306,21.005-10.306,21.005l-.3-.064-2.989-.636c.593-4.453,4.21-10.059,7.378-14.255a32.445,32.445,0,0,1,6.216-6.05Z" transform="translate(-540.104 -388.303)"/><path class="b" d="M909.29,634.8a4.774,4.774,0,0,1-1.708,1.315h0a3.292,3.292,0,0,1-.628.209c-1.9.427-2.562-.922-2.451-3.245.179-4.137,2.779-11.31,5.123-16.651a20.754,20.754,0,0,1,4.837-6.989C914.439,609.419,914.324,628.968,909.29,634.8Z" transform="translate(-537.613 -381.621)"/><path class="b" d="M905.045,588.77s-8.6,30.509-1.2,35.111S906.945,591.473,905.045,588.77Z" transform="translate(-535.52 -369.776)"/><path class="i" d="M871.626,637s-2.9,13.5,10,15.105l.8-1.5S872.437,641.214,871.626,637Z" transform="translate(-518.619 -397.415)"/><path class="i" d="M891.919,641.405l-2.989.636-.3.064s-8.005-6.5-7.9-21.005a36.3,36.3,0,0,0,3.821,6.05C887.713,631.346,891.321,636.952,891.919,641.405Z" transform="translate(-523.994 -388.303)"/><path class="i" d="M899.745,636.1a1.891,1.891,0,0,1-1.614.209c-7.685-1.8-5.1-26.9-5.1-26.9.427.2.892,3.416,2.664,7.514C898.8,624.178,902.217,634.279,899.745,636.1Z" transform="translate(-530.805 -381.604)"/><path class="i" d="M931.621,637s.5,13.5-12.4,15.105l-.8-1.5S930.823,641.214,931.621,637Z" transform="translate(-545.594 -397.415)"/><path class="i" d="M922.434,621.1c.094,14.516-10.306,21.005-10.306,21.005l-.3-.064-2.989-.636c.593-4.453,4.21-10.059,7.378-14.255a32.445,32.445,0,0,1,6.216-6.05Z" transform="translate(-540.104 -388.303)"/><path class="i" d="M909.29,634.8a4.774,4.774,0,0,1-1.708,1.315h0a3.292,3.292,0,0,1-.628.209c-1.9.427-2.562-.922-2.451-3.245.179-4.137,2.779-11.31,5.123-16.651a20.754,20.754,0,0,1,4.837-6.989C914.439,609.419,914.324,628.968,909.29,634.8Z" transform="translate(-537.613 -381.621)"/><path class="i" d="M905.045,588.77s-8.6,30.509-1.2,35.111S906.945,591.473,905.045,588.77Z" transform="translate(-535.52 -369.776)"/><path class="b" d="M871.9,637s-1.708,13.5,11.2,15.105l.8-1.5S872.711,641.214,871.9,637Z" transform="translate(-518.892 -397.415)"/><path class="b" d="M893.113,641.405l-2.989.636-.3.064s-9.2-6.5-9.1-21.005c0,0,2.357,2.527,5.021,6.05C888.908,631.346,892.515,636.952,893.113,641.405Z" transform="translate(-523.989 -388.303)"/><path class="i" d="M899.853,649.525l-2.989.636c-2.848-2.5-3.975-9.017-4.385-14.892C895.648,639.467,899.255,645.073,899.853,649.525Z" transform="translate(-530.729 -396.423)"/><path class="b" d="M901.371,636.1a1.891,1.891,0,0,1-1.614.209c-7.706-1.8-6.3-26.9-6.3-26.9.427.2,2.092,3.416,3.842,7.514C900.427,624.178,903.843,634.279,901.371,636.1Z" transform="translate(-531.23 -381.604)"/><path class="b" d="M933.231,637s1.708,13.5-11.2,15.105l-.8-1.5S932.433,641.214,933.231,637Z" transform="translate(-547.204 -397.415)"/><path class="b" d="M924.044,621.1c.094,14.516-9.107,21.005-9.107,21.005l-.3-.064-2.989-.636c.6-4.453,4.21-10.059,7.378-14.255C921.683,623.619,924.044,621.1,924.044,621.1Z" transform="translate(-541.714 -388.303)"/><path class="i" d="M919.015,635.27c-.384,5.482-1.388,11.527-3.821,14.332a4.905,4.905,0,0,1-.555.559l-2.989-.636C912.226,645.073,915.847,639.467,919.015,635.27Z" transform="translate(-541.715 -396.423)"/><path class="b" d="M912.094,634.8a4.773,4.773,0,0,1-1.708,1.315h0a3.324,3.324,0,0,1-.632.209c-1.9.427-2.562-.922-2.451-3.245.184-4.137,2.779-11.31,5.123-16.651,1.682-3.868,3.228-6.8,3.638-6.989C916.044,609.419,917.128,628.968,912.094,634.8Z" transform="translate(-539.217 -381.621)"/><path class="i" d="M906.081,646.184a2.134,2.134,0,0,1-1.217-.389c-3.625-2.258-3.7-10.733-2.835-18.785C905.137,634.264,908.553,644.365,906.081,646.184Z" transform="translate(-535.941 -391.69)"/><path class="i" d="M912.11,644.181c-.427.9-.978,1.379-1.708,1.315h0a2.45,2.45,0,0,1-1.033-.388,5.5,5.5,0,0,1-2.049-2.647c.184-4.137,2.779-11.31,5.123-16.651C913.254,633.234,913.532,641.129,912.11,644.181Z" transform="translate(-539.233 -391.002)"/><path class="b" d="M906.274,588.77s-7.4,30.509,0,35.111S908.173,591.473,906.274,588.77Z" transform="translate(-536.748 -369.776)"/><path class="l" d="M857.5,591.66H826.69v5.1h4.7l.115.6,1.883,9.9H851.3l1.883-9.9.115-.6h4.2Z" transform="translate(-473.768 -339.057)"/><path class="i" d="M857.468,591.66H826.66v5.1h4.7l.115.6,1.883,9.9h17.91l1.883-9.9.115-.6h4.2Z" transform="translate(-473.751 -339.057)"/><path class="l" d="M862.279,598.69l-.517,2.7-1.883,9.9h-17.91l-1.883-9.9-.517-2.7Z" transform="translate(-481.149 -343.086)"/><path class="i" d="M862.279,598.69l-.517,2.7H840.087l-.517-2.7Z" transform="translate(-481.149 -343.086)"/><rect class="l" width="30.808" height="5.102" transform="translate(354.122 252.603)"/><path class="b" d="M292.392,586.408a7.877,7.877,0,0,0-1.042,1.964c-.064.171-.128.367-.192.555a1.514,1.514,0,0,0-.363-.124,5.042,5.042,0,0,0-1.631-.141c0-.213.021-.427.03-.67.068-2.416-.218-5.776-2.519-4.355-2.207,1.375-.632,3.655.794,5.123.124.128.243.243.363.359-1.281.935-1.546,3.082-1.763,5.332s-2.135,4.7-3.39,6.105c-.124.141-.243.269-.359.389a4.6,4.6,0,0,0-3.68-.948l-.171-.623c-1.025-3.7-3.155-10.114-5.87-11.527l.359-.453c1.153-1.511,2.451-3.753.534-4.325s-2.092,1.943-1.985,3.842a6.442,6.442,0,0,0,.056.67,2.831,2.831,0,0,0-2.011.978c-.09-.111-.188-.226-.295-.35-1.554-1.84-4.41-4.748-5.273-2.562-.8,2.049,1.708,4.7,3.475,6.259l.111.094c-1.187,4.816,3.988,8.735,6.78,10.452.124.081.243.154.359.222-3.842,4.53-6.221,13.026-6.221,13.026l10.784,1.96s7.143-6.161,6.229-11.954h.073c7.134-1.43,8.757-9.038,7.646-13.555l.124-.051a8.111,8.111,0,0,0,3.3-2.5C298.629,586.834,294.441,583.7,292.392,586.408Z" transform="translate(-170.474 -366.461)"/><path class="i" d="M292.392,586.408a7.877,7.877,0,0,0-1.042,1.964c-.064.171-.128.367-.192.555a1.514,1.514,0,0,0-.363-.124,5.042,5.042,0,0,0-1.631-.141c0-.213.021-.427.03-.67.068-2.416-.218-5.776-2.519-4.355-2.207,1.375-.632,3.655.794,5.123.124.128.243.243.363.359-1.281.935-1.546,3.082-1.763,5.332s-2.135,4.7-3.39,6.105c-.124.141-.243.269-.359.389a4.6,4.6,0,0,0-3.68-.948l-.171-.623c-1.025-3.7-3.155-10.114-5.87-11.527l.359-.453c1.153-1.511,2.451-3.753.534-4.325s-2.092,1.943-1.985,3.842a6.442,6.442,0,0,0,.056.67,2.831,2.831,0,0,0-2.011.978c-.09-.111-.188-.226-.295-.35-1.554-1.84-4.41-4.748-5.273-2.562-.8,2.049,1.708,4.7,3.475,6.259l.111.094c-1.187,4.816,3.988,8.735,6.78,10.452.124.081.243.154.359.222-3.842,4.53-6.221,13.026-6.221,13.026l10.784,1.96s7.143-6.161,6.229-11.954h.073c7.134-1.43,8.757-9.038,7.646-13.555l.124-.051a8.111,8.111,0,0,0,3.3-2.5C298.629,586.834,294.441,583.7,292.392,586.408Z" transform="translate(-170.474 -366.461)"/><path class="b" d="M271.845,592.07l-1.259,3.689A20.349,20.349,0,0,1,269,594.478c-1.768-1.546-4.269-4.21-3.475-6.259.854-2.2,3.719.7,5.277,2.562C271.427,591.515,271.845,592.07,271.845,592.07Z" transform="translate(-171.36 -369.007)"/><path class="b" d="M284.772,587.454a18.234,18.234,0,0,1-1.225,1.443,18.9,18.9,0,0,1-.226-1.938c-.1-1.887.094-4.393,1.985-3.842S285.925,585.943,284.772,587.454Z" transform="translate(-181.631 -366.492)"/><path class="b" d="M319.94,588.447c-.043,1.213-.158,2.182-.158,2.182a16.013,16.013,0,0,1-1.571-1.4c-1.426-1.477-2.989-3.757-.79-5.123C319.723,582.67,320,586.03,319.94,588.447Z" transform="translate(-200.559 -366.904)"/><path class="b" d="M334.3,592.8a8.112,8.112,0,0,1-3.3,2.5,8.93,8.93,0,0,1-1.11.4l-1.481-2.083a14.95,14.95,0,0,1,.615-2.024,7.741,7.741,0,0,1,1.042-1.964C332.106,586.9,336.29,590.039,334.3,592.8Z" transform="translate(-207.477 -369.665)"/><path class="i" d="M275.672,595.26c.623.734,1.042,1.281,1.042,1.281l-1.259,3.689a20.333,20.333,0,0,1-1.584-1.281,7.224,7.224,0,0,1,1.417-3.24Q275.48,595.478,275.672,595.26Z" transform="translate(-176.228 -373.495)"/><path class="i" d="M284.8,592.715a18.239,18.239,0,0,1-1.225,1.443,18.893,18.893,0,0,1-.226-1.938A2.5,2.5,0,0,1,284.8,592.715Z" transform="translate(-181.66 -371.753)"/><path class="b" d="M285.472,608.231l-3.129,1.379a18.744,18.744,0,0,1-1.669-.944c-3.292-2.024-9.909-7.117-5.473-13.124s8.137,4.765,9.593,10.033C285.237,607.151,285.472,608.231,285.472,608.231Z" transform="translate(-176.14 -372.642)"/><path class="i" d="M320.74,595.517a2.562,2.562,0,0,1,1.729-.777c-.043,1.213-.158,2.182-.158,2.182A16.01,16.01,0,0,1,320.74,595.517Z" transform="translate(-203.087 -373.197)"/><path class="i" d="M330.992,599.336a8.921,8.921,0,0,1-1.11.4l-1.481-2.083a14.945,14.945,0,0,1,.615-2.024A5.339,5.339,0,0,1,330.992,599.336Z" transform="translate(-207.477 -373.707)"/><path class="b" d="M307.81,613.3c-.171.034-.35.068-.525.094-10.5,1.6-3.462-4.069-3.462-4.069s.474-.427,1.114-1.144c1.281-1.4,3.172-3.842,3.39-6.105.329-3.415.709-6.6,4.726-5.657C316.993,597.338,317.745,611.308,307.81,613.3Z" transform="translate(-192.07 -374.062)"/><rect class="l" width="20.058" height="5.273" transform="translate(95.49 265.373)"/><rect class="l" width="26.206" height="18.405" transform="translate(92.301 248.231)"/><rect class="i" width="20.058" height="5.273" transform="translate(95.49 265.373)"/><rect class="i" width="26.206" height="18.405" transform="translate(92.301 248.231)"/><rect class="l" width="20.058" height="5.273" transform="translate(96.805 265.373)"/><path class="i" d="M294.13,621.42c.427,1.575.679,2.656.679,2.656l-3.129,1.379a18.748,18.748,0,0,1-1.669-.944A7.991,7.991,0,0,1,294.13,621.42Z" transform="translate(-185.477 -388.486)"/><path class="i" d="M307.81,629.309c-.171.034-.35.068-.525.094-10.5,1.6-3.462-4.069-3.462-4.069s.474-.427,1.114-1.144A6.955,6.955,0,0,1,307.81,629.309Z" transform="translate(-192.07 -390.074)"/><path class="b" d="M276.29,638.485s5.879-21.04,14.119-14.559-3.351,16.484-3.351,16.484Z" transform="translate(-177.615 -389.212)"/><circle class="i" cx="0.657" cy="0.657" r="0.657" transform="translate(100.985 225.543)"/><circle class="i" cx="0.657" cy="0.657" r="0.657" transform="translate(100.93 228.617)"/><circle class="i" cx="0.657" cy="0.657" r="0.657" transform="translate(120.048 226.145)"/><circle class="i" cx="0.657" cy="0.657" r="0.657" transform="translate(104.665 241.912)"/><circle class="i" cx="0.657" cy="0.657" r="0.657" transform="translate(118.677 231.256)"/><circle class="i" cx="0.657" cy="0.657" r="0.657" transform="translate(111.863 238.07)"/><circle class="i" cx="0.657" cy="0.657" r="0.657" transform="translate(103.239 226.858)"/><circle class="i" cx="0.657" cy="0.657" r="0.657" transform="translate(118.238 228.122)"/><circle class="i" cx="0.657" cy="0.657" r="0.657" transform="translate(115.983 233.233)"/><circle class="i" cx="0.657" cy="0.657" r="0.657" transform="translate(109.063 241.421)"/><circle class="i" cx="0.657" cy="0.657" r="0.657" transform="translate(107.633 238.177)"/><circle class="i" cx="0.657" cy="0.657" r="0.657" transform="translate(104.226 230.872)"/><rect class="i" width="20.058" height="1.925" transform="translate(96.805 265.373)"/><rect class="l" width="26.206" height="18.405" transform="translate(93.62 248.231)"/><circle class="i" cx="0.657" cy="0.657" r="0.657" transform="translate(109.942 244.389)"/><circle class="i" cx="0.657" cy="0.657" r="0.657" transform="translate(105.985 245.213)"/></g></svg>