<svg xmlns="http://www.w3.org/2000/svg" width="935.149" height="289.714" viewBox="0 0 935.149 289.714"><defs><style>.a{fill:#2f2e41;}</style></defs><path class="a" d="M846.4,830.04s272.415,72.5,188.806,0C877.4,851.477,538.462,886.3,427.931,888.3,317.954,894.646,116,668.1,116,668.1l104.825-45.21c23.277,1.37,40.883-12.38,62.078-18.73,16.583-4.97,36.217-5.38,55.043-5.44,30.348-.09,61.253.5,89.985,5.94a194.416,194.416,0,0,1,26.4,6.85c17.8,6.04,32.735,14.52,40.667,25.16,4.792,6.42,8.238,14.29,19.706,17.04,6.389,1.54,13.693.99,20.585.42q36.316-3.03,72.631-6.05c17.911-1.5,37.6-2.8,52.889,2.61,23.582,8.34,23.6,27.25,19.634,42.66-3.984,15.41-7.609,33.59,12.85,44.19,24.8,12.86,64.7,4.83,98.223,7.52,31.968,2.832,58.179,15.639,67.39,32.93C867.557,795.16,857.686,813.16,846.4,830.04Z" transform="translate(-116 -598.712)"/></svg>