<?xml version="1.0" standalone="no"?>
<!DOCTYPE svg PUBLIC "-//W3C//DTD SVG 20010904//EN"
 "http://www.w3.org/TR/2001/REC-SVG-20010904/DTD/svg10.dtd">
<svg version="1.0" xmlns="http://www.w3.org/2000/svg"
 width="981.000000pt" height="982.000000pt" viewBox="0 0 981.000000 982.000000"
 preserveAspectRatio="xMidYMid meet">
<metadata>
Created by potrace 1.15, written by Peter Selinger 2001-2017
</metadata>
<g transform="translate(0.000000,982.000000) scale(0.100000,-0.100000)"
fill="rgba(0,0,0,.54)" stroke="none">
<path d="M4485 9804 c-111 -13 -404 -58 -520 -80 -436 -85 -826 -219 -1253
-433 -330 -165 -592 -330 -841 -531 -699 -563 -1194 -1229 -1521 -2045 -178
-444 -307 -985 -330 -1385 -13 -214 -12 -619 0 -837 23 -389 166 -983 343
-1418 461 -1136 1314 -2046 2422 -2581 956 -462 2046 -599 3087 -389 1182 238
2223 897 2953 1870 548 730 867 1542 961 2450 25 234 25 755 1 975 -125 1133
-586 2118 -1369 2926 -417 429 -820 720 -1372 990 -557 272 -1132 436 -1661
474 -155 11 -829 21 -900 14z m735 -314 c325 -16 511 -45 835 -129 386 -101
796 -268 1140 -465 160 -92 429 -276 572 -391 925 -742 1511 -1762 1694 -2949
39 -257 44 -937 9 -1225 -44 -351 -177 -839 -325 -1190 -196 -465 -497 -943
-808 -1284 l-53 -58 -38 98 c-77 199 -234 464 -392 663 -96 121 -380 400 -504
496 -487 378 -1080 618 -1770 718 -307 45 -981 48 -1305 6 -142 -19 -436 -79
-586 -120 -486 -133 -880 -329 -1249 -620 -124 -98 -397 -369 -493 -490 -140
-175 -335 -524 -410 -732 -5 -14 -16 -7 -60 40 -120 127 -263 312 -394 507
-391 582 -647 1266 -737 1970 -41 319 -46 766 -11 1065 148 1295 801 2434
1839 3205 520 386 1171 680 1784 804 455 92 707 108 1262 81z"/>
<path d="M4705 8044 c-299 -44 -603 -161 -804 -311 -100 -75 -286 -257 -376
-368 -172 -211 -297 -503 -340 -792 -20 -133 -20 -386 -1 -513 65 -418 284
-815 595 -1074 250 -209 539 -340 871 -397 96 -17 401 -17 505 0 491 77 919
346 1188 746 64 94 155 271 202 389 77 197 107 458 87 749 -17 234 -52 363
-157 582 -240 501 -681 846 -1232 966 -78 16 -141 21 -303 24 -113 2 -218 1
-235 -1z"/>
</g>
</svg>
