<svg xmlns="http://www.w3.org/2000/svg" width="540.431" height="406.188" viewBox="0 0 540.431 406.188"><defs><style>.a,.c{fill:#ff6484;}.a{opacity:0.4;}.b{fill:#3f3d56;}.d{opacity:0.1;}.e{fill:#2f2e41;}.f{fill:#575a89;}.g{fill:#ffb9b9;}.h{fill:#a0616a;}.i{fill:#f2f2f2;}.j{fill:#57b894;}</style></defs><g transform="translate(0.003)"><circle class="a" cx="12.949" cy="12.949" r="12.949" transform="translate(443.17 130.264)"/><circle class="a" cx="18.46" cy="18.46" r="18.46" transform="translate(164.631 48.001)"/><circle class="a" cx="12.949" cy="12.949" r="12.949" transform="translate(135.977 62.327)"/><path class="b" d="M925.7,584.724c-10.232,11.2-10.6,27.52-10.6,27.52s16.218-1.844,26.45-13.046,10.6-27.52,10.6-27.52S935.935,573.522,925.7,584.724Z" transform="translate(-458.739 -296.702)"/><path class="c" d="M927.785,579.071c-3.1,14.852-16.111,24.7-16.111,24.7s-7.995-14.23-4.9-29.082,16.111-24.7,16.111-24.7S930.88,564.219,927.785,579.071Z" transform="translate(-455.04 -287.826)"/><path class="b" d="M527.7,233.581V410.635l-59.018,48.754H166.746V273.782l88.1-40.2Z" transform="translate(-68.241 -95.592)"/><path class="d" d="M527.7,233.581v.709L506.51,248.472l-37.831,25.31H166.746l88.1-40.2Z" transform="translate(-68.241 -95.592)"/><path class="d" d="M736.861,233.581V410.635l-59.018,48.754.428-186.035,37.4-24.882,20.845-14.891Z" transform="translate(-277.406 -95.592)"/><path class="e" d="M515.7,269.512H331.8l13.685-7.7h176.2Z" transform="translate(-135.79 -107.146)"/><path class="e" d="M1030.326,738.332s3.565,14.908.324,15.557-19.122.439-23.011,1.087-11.992-.439-11.992-3.356,8.427-4.862,8.427-4.862,11.992-6.482,12.316-6.806S1030.326,738.332,1030.326,738.332Z" transform="translate(-491.702 -364.905)"/><path class="f" d="M1036.838,588.535s-.972,11.019-.972,11.992.972,16.2,0,16.853.648,5.186.648,6.806,5.186,28.521,3.889,38.892,1.945,9.4.972,10.371-.972.972-.972,2.917-10.371,3.565-10.371,3.565L1018.69,608.3l5.834-21.39Z" transform="translate(-501.132 -302.938)"/><path class="d" d="M1036.838,588.535s-.972,11.019-.972,11.992.972,16.2,0,16.853.648,5.186.648,6.806,5.186,28.521,3.889,38.892,1.945,9.4.972,10.371-.972.972-.972,2.917-10.371,3.565-10.371,3.565L1018.69,608.3l5.834-21.39Z" transform="translate(-501.132 -302.938)"/><path class="e" d="M1022.422,744.865s3.241,11.667,0,12.316-19.122-.742-23.011-.094-11.992.742-11.992-2.174,8.427-4.862,8.427-4.862,11.992-6.482,12.316-6.806S1022.422,744.865,1022.422,744.865Z" transform="translate(-488.335 -366.9)"/><path class="f" d="M1032.131,567.713s3.889,9.4-.648,14.26-9.723,14.584-9.723,15.233,9.075,65.144,7.778,69.357-.972,6.806-.648,7.454-3.241,4.213-7.13,4.213-9.723-2.917-10.371-5.51.972-24.956.648-29.169a48.835,48.835,0,0,0-2.593-11.668c-.648-1.3-4.213-2.593-4.861-6.482s-5.834-53.476-4.213-55.1S1032.131,567.713,1032.131,567.713Z" transform="translate(-493.507 -295.08)"/><circle class="g" cx="11.019" cy="11.019" r="11.019" transform="translate(502.975 176.052)"/><path class="g" d="M1013.849,431.161s-2.269,11.992-.648,13.288-12.316,3.241-12.316,3.241-1.62-15.881-1.945-17.5S1013.849,431.161,1013.849,431.161Z" transform="translate(-493.048 -238.581)"/><path class="c" d="M994.667,452.522s3.889-11.343,19.77-8.1c0,0,2.917.972,1.945,1.945s-1.945.972-.648,1.945,2.917,0,1.945.972,8.751,6.806,8.1,17.825,2.269,26.576,0,29.169,1.62,13.936.972,16.2,3.889,5.186,1.945,6.158-36.947,6.806-37.919,0-.324-1.945-1.3-3.565-1.3-4.537-.648-8.1,2.269-12.316,1.62-15.557,0-30.465,1.945-33.706A16.818,16.818,0,0,0,994.667,452.522Z" transform="translate(-488.776 -244.384)"/><path class="g" d="M1005.519,591.951s4.861,18.474-1.3,18.474-5.834-19.122-5.834-19.122Z" transform="translate(-492.823 -304.734)"/><path class="e" d="M1004.43,412.3c0,.94,1.361,1.536,3.471,1.672h0a17.653,17.653,0,0,0,2.684-.052c1.348-.123,1.906,1.144,2.136,2.816.376,2.758-.149,6.625.457,7.231.836.836,6.932,0,8.838-1.9a1.762,1.762,0,0,0,.561-1.018,5.415,5.415,0,0,1,1.627-3.024c1.125-1.228,2.726-2.59,4.531-4.754,3.241-3.889,0-4.213-.972-7.13s-2.593-3.889-2.593-5.834-7.454-3.565-13.612-3.241-4.861,8.1-4.861,8.1-.366.94-.8,2.152a33.8,33.8,0,0,0-1.439,4.673,2.369,2.369,0,0,0-.026.3Z" transform="translate(-495.296 -225.225)"/><path class="d" d="M1003.36,466.765s11.019-.648,11.992,15.557.648,31.437.648,31.762-4.537,31.113-8.751,31.113-7.454-.648-8.427-2.269,2.593-24.956,2.593-24.956,1.621-24.631-.972-32.41S997.529,467.737,1003.36,466.765Z" transform="translate(-492.933 -253.765)"/><path class="c" d="M1000.62,464.022s11.019-.648,11.992,15.557.648,31.437.648,31.762-4.537,31.113-8.751,31.113-7.454-.648-8.427-2.269,2.593-24.956,2.593-24.956,1.621-24.631-.972-32.41S994.787,464.994,1000.62,464.022Z" transform="translate(-491.812 -252.643)"/><path class="h" d="M688.283,188.811s-4.8-13.606-8.271-9.338,5.336,11.472,5.336,11.472Z" transform="translate(-362.199 -135.855)"/><path class="f" d="M713.924,173.273l-2.889,1.071s-1.38,6.133-.846,7.2.8.267,0,2.4-3.2,7.737-3.468,8.537-15.474-5.069-15.474-8c0,0-3.2,3.735-4.8,4.535,0,0,17.608,12.806,20.009,14.407s3.735.8,5.869-1.067,11.205-17.342,11.205-17.342Z" transform="translate(-365.162 -133.657)"/><path class="e" d="M700.823,332.41s.267,2.935.8,3.2,4.535,6.937,0,8.271-7.2.8-8.271,1.334-19.743,1.6-20.009-1.334,9.071-3.468,9.071-3.468,8.537-5.6,9.871-8.537S700.823,332.41,700.823,332.41Z" transform="translate(-359.798 -198.082)"/><path class="e" d="M798.809,342.628s6.4,10.939,4.8,12.272-17.19,6.2-19.476,6.4c-2.935.267-5.069-2.134-2.668-3.468s7.47-6.937,7.47-8.8v-4.8Z" transform="translate(-403.625 -202.965)"/><path class="e" d="M773.135,221.6s5.6,6.937-3.2,18.142L755.26,258.414s9.071,14.407,9.338,21.877,2.134,5.869,2.668,9.071,2.935,1.6,1.067,4-8.8,4.535-10.939,2.668a6.614,6.614,0,0,1-2.134-5.336c0-1.067-3.735-7.2-4-9.071S741.12,264.55,741.12,264.55s-3.2-9.071.534-14.14a53.592,53.592,0,0,0,6.2-12.258s-11.005,13.326-18.743,16.527c0,0-2.935.534-2.4,1.868s0,2.134-.8,3.468-6.4,16.808-8.271,20.81-1.067,6.4-3.2,7.737-11.739.267-11.739-1.067,1.334-4.8,2.134-6.67,7.2-23.478,6.67-27.213.267-8.8,4.269-10.939S740.053,223.2,741.12,223.2,773.135,221.6,773.135,221.6Z" transform="translate(-371.816 -153.433)"/><circle class="h" cx="11.205" cy="11.205" r="11.205" transform="translate(336.489 3.866)"/><path class="h" d="M738.963,133.531s3.468,6.136,7.737,6.937-11.205,13.073-11.205,13.073-3.735-11.739-6.937-12.272S738.963,133.531,738.963,133.531Z" transform="translate(-382.197 -117.393)"/><path class="f" d="M727.992,162.406c0,3.468,10.4,13.34,10.4,13.34l9.871,8.271s.267,2.935,1.334,3.2,2.4.267,1.334,1.868-3.735,5.069-1.334,5.6a19.612,19.612,0,0,0,2.185.208c.64.037,1.393.072,2.238.1,1.974.069,4.445.115,7.121.1q1.141,0,2.321-.027c10.088-.2,21.773-1.361,20.818-5.184-1.6-6.4-.534-8.537-4-12.006s-9.071-15.474-9.071-15.474-11.205-18.942-20.543-18.942l-1.94-.51a4.442,4.442,0,0,0-4.848,1.862c-1.873,2.852-4.826,7.137-6.552,8.519-2.668,2.134-3.084.6-3.084.6S727.992,158.938,727.992,162.406Z" transform="translate(-382.165 -121.189)"/><path class="h" d="M765.064,244.628s-7.737,12.006-2.935,14.14,7.47-12.539,7.47-12.539Z" transform="translate(-395.493 -162.859)"/><path class="e" d="M730.146,120.018c-.43-.054-.566-.6-.638-1.024a5.757,5.757,0,0,0-4.385-4.828,6.208,6.208,0,0,0-2.613.211,9.913,9.913,0,0,0-3.352,1.65,5.529,5.529,0,0,1-1.675,1.052c-.42.123-2.206.917-2.623,1.051-.917.3-1.676,1.255-2.621,1.065-.9-.182-1.247-1.273-1.392-2.183-.331-2.074.856-5.168,2.036-6.9a7.324,7.324,0,0,1,3.926-2.57,28.21,28.21,0,0,1,5.445-1.082,17.608,17.608,0,0,1,7.462.32,7.125,7.125,0,0,1,5.009,5.125c.093.514.11,1.041.224,1.552a23.075,23.075,0,0,0,1.582,3.472,6.687,6.687,0,0,1-.2,5.421c-.665,1.338-1.822,2.623-1.573,4.1l-2.059-1.623a1.5,1.5,0,0,1-.687-1.75l.3-2.578a2.268,2.268,0,0,0-.134-1.394C731.261,117.5,730.863,120.108,730.146,120.018Z" transform="translate(-375.126 -106.213)"/><path class="d" d="M770.318,187.407l-2.513,10.45c2.535.091,5.888.139,9.442.069.9-2.689,1.753-5.493,2.409-8.118,2.4-9.6-1.6-24.278-3.735-31.215s-7.47-8.8-7.47-8.8a24.327,24.327,0,0,0-6.136,3.2C758.846,155.392,770.318,187.407,770.318,187.407Z" transform="translate(-395.944 -124.046)"/><path class="d" d="M770.037,190.581l-2.617,10.88c.64.037,1.393.072,2.238.1,1.974.069,4.445.115,7.121.1.963-2.857,1.894-5.872,2.6-8.679,2.4-9.6-1.6-24.278-3.735-31.215s-6.8.667-6.8.667,1.868-4.535-1.6-2.134S770.037,190.581,770.037,190.581Z" transform="translate(-397.798 -127.754)"/><path class="f" d="M766.644,148.886s5.336,1.868,7.47,8.8,6.136,21.61,3.735,31.215a179.889,179.889,0,0,1-7.47,21.61s-5.069-3.735-6.937-2.935l5.069-21.077s-11.472-32.015-8-34.417a24.33,24.33,0,0,1,6.136-3.2Z" transform="translate(-395.205 -123.677)"/><path class="i" d="M498.854,162.643,425.041,8.828,301.62,68.055l45.391,94.588Z" transform="translate(-123.438 -3.613)"/><rect class="b" width="72.711" height="4.513" transform="matrix(0.902, -0.433, 0.433, 0.902, 211.072, 97.05)"/><rect class="b" width="72.711" height="4.513" transform="matrix(0.902, -0.433, 0.433, 0.902, 228.428, 133.218)"/><rect class="b" width="18.052" height="18.052" transform="matrix(0.902, -0.433, 0.433, 0.902, 289.629, 52.122)"/><rect class="b" width="18.052" height="18.052" transform="matrix(0.902, -0.433, 0.433, 0.902, 306.985, 88.29)"/><path class="j" d="M507.959,55.924l-6.7,19.071-9.036-3.176-1.236,3.518,12.542,4.408,7.95-22.584Z" transform="translate(-200.934 -22.887)"/><path class="j" d="M537.338,117.146l-6.7,19.071-9.035-3.175-1.236,3.517,12.541,4.408,7.951-22.584Z" transform="translate(-212.958 -47.942)"/><g transform="translate(-0.003 175.878)"><rect class="i" width="34.101" height="34.101" transform="translate(40.472 153.061) rotate(167.942)"/><path class="g" d="M203.3,591.492s-12.249,8.749-8.166,12.249,12.249-10.5,12.249-10.5Z" transform="translate(-163.75 -480.689)"/><path class="g" d="M292.033,613.578s-2.333,29.164-2.916,33.247-1.167,40.829-2.333,44.912-2.333,14-2.333,14h-7s.583-18.082-1.167-25.081-1.167-26.248-1.167-26.248-3.5-34.413-1.75-39.08S292.033,613.578,292.033,613.578Z" transform="translate(-195.909 -489.359)"/><path class="e" d="M284.252,767.239s2.916,1.75,2.916,2.916-.583,4.083,0,5.25,4.666,5.833,2.333,7-12.832,0-12.832,0,.583-8.166,1.167-8.749-.583-6.416-.583-6.416Z" transform="translate(-197.46 -552.612)"/><path class="g" d="M227.685,612.912s-.741,29.248-.59,33.369-3.126,40.726-2.394,44.909.851,14.166.851,14.166l6.961.735s1.318-18.043,3.793-24.82,3.915-25.98,3.915-25.98,7.093-33.856,5.842-38.68S227.685,612.912,227.685,612.912Z" transform="translate(-176.149 -489.408)"/><path class="e" d="M224.341,766.842s-3.084,1.434-3.206,2.594.151,4.122-.551,5.22-5.253,5.311-3.055,6.716,12.761,1.347,12.761,1.347.277-8.182-.242-8.823,1.254-6.319,1.254-6.319Z" transform="translate(-173.014 -552.45)"/><path class="e" d="M264.4,540.15s4.666.583,6.416,10.5,8.166,35,2.916,36.747-21,5.25-21.581,4.083-1.75-4.083-1.75-4.083,1.75,5.25-.583,5.25-25.081-3.5-24.5-5.25,1.75-14.582,1.75-14.582,3.5-21.581,7-25.081a9.565,9.565,0,0,0,2.916-7.583Z" transform="translate(-176.441 -459.677)"/><path class="g" d="M300.086,531.815s-7.583-1.75-8.749.583,2.916,5.833,4.666,5.833,4.666-1.75,4.666-1.75Z" transform="translate(-203.378 -456.008)"/><circle class="g" cx="10.499" cy="10.499" r="10.499" transform="translate(70.46 5.23)"/><path class="g" d="M263.335,439.612s-1.75,8.166-.583,8.166-8.749,5.25-8.749,5.25l-7.583-1.167-2.333-3.5s12.249-8.166,12.249-12.832S263.335,439.612,263.335,439.612Z" transform="translate(-184.126 -416.301)"/><path class="c" d="M249.6,456.4a8.55,8.55,0,0,1,2.333-1.167H256.6c.583,0,8.166,1.75,8.166,1.75l4.666,26.248s-8.166,13.415-2.333,23.914c0,0-1.75-1.167-9.916-.583s-22.748,2.333-23.331,2.333-.583-4.666,0-5.833-.583-.583-.583-3.5-1.75-8.166-1.75-8.166l-8.166-29.747s10.5-5.833,12.249-5.25,7,2.333,8.166,1.75A53.972,53.972,0,0,1,249.6,456.4Z" transform="translate(-175.641 -424.928)"/><path class="c" d="M290.492,458.759l1.75-.583s3.5-.583,7.583,2.916,19.248,14,19.248,14,5.833,4.666,4.083,9.916-4.666,18.082-13.415,17.5c0,0-5.25,7-8.166,5.833s-5.25-5.833-3.5-6.416,6.416-6.416,6.416-6.416l-5.833-11.082h-1.75l-6.416-3.5Z" transform="translate(-203.117 -426.115)"/><path class="c" d="M221.043,465.112l-4.666.583s-4.083,1.75-3.5,9.332-3.5,42-1.75,46.079c0,0-5.833,19.831-4.666,20.415s8.166,4.083,7.583,1.75,6.416-18.665,6.416-18.665,8.166-8.749,4.666-21v-9.916Z" transform="translate(-168.665 -428.968)"/><path class="e" d="M273.73,429.809l-7.415,1.615-.953-3.651.366,3.779-11.962,2.606-.526-2.016.2,2.086-7.662,1.669-1.639-15.733c-1.685-6.456,4.465-13.337,10.921-15.022l2.864-.747c4.742-1.238,13.361-.112,14.6,4.629C270.359,417.292,266.667,426.355,273.73,429.809Z" transform="translate(-184.033 -403.93)"/></g></g></svg>