<svg xmlns="http://www.w3.org/2000/svg" width="150.806" height="153.271" viewBox="0 0 150.806 153.271"><defs><style>.a{fill:#fff;}.a,.b{stroke:#2f2e41;stroke-width:4px;}.b,.d{fill:none;}.c{stroke:none;}</style></defs><g transform="translate(-1514.616 -646.026) rotate(-30)"><g class="a" transform="translate(962.6 1439.138)"><ellipse class="c" cx="53.367" cy="19.784" rx="53.367" ry="19.784"/><ellipse class="d" cx="53.367" cy="19.784" rx="51.367" ry="17.784"/></g><g class="a" transform="translate(962 1422.352)"><ellipse class="c" cx="53.367" cy="19.784" rx="53.367" ry="19.784"/><ellipse class="d" cx="53.367" cy="19.784" rx="51.367" ry="17.784"/></g><g class="a" transform="translate(962 1402.568)"><ellipse class="c" cx="53.367" cy="19.784" rx="53.367" ry="19.784"/><ellipse class="d" cx="53.367" cy="19.784" rx="51.367" ry="17.784"/></g><g class="a" transform="translate(962 1382.784)"><ellipse class="c" cx="53.367" cy="19.784" rx="53.367" ry="19.784"/><ellipse class="d" cx="53.367" cy="19.784" rx="51.367" ry="17.784"/></g><g class="a" transform="translate(962 1363)"><ellipse class="c" cx="53.367" cy="19.784" rx="53.367" ry="19.784"/><ellipse class="d" cx="53.367" cy="19.784" rx="51.367" ry="17.784"/></g><line class="b" x2="0.6" y2="76.738" transform="translate(1066.633 1384.584)"/><path class="b" d="M0,0,.6,76.738" transform="translate(964.031 1382.95)"/></g></svg>