<svg xmlns="http://www.w3.org/2000/svg" xmlns:xlink="http://www.w3.org/1999/xlink" width="226.964" height="131.145" viewBox="0 0 226.964 131.145"><defs><style>.a{fill:none;stroke:#2f2e41;stroke-width:4px;}.b{filter:url(#a);}</style><filter id="a" x="81.855" y="53.261" width="63.254" height="77.812" filterUnits="userSpaceOnUse"><feOffset dy="6" input="SourceAlpha"/><feGaussianBlur result="b"/><feFlood flood-color="#888" flood-opacity="0.161"/><feComposite operator="in" in2="b"/><feComposite in="SourceGraphic"/></filter></defs><g transform="translate(-709.696 -1331.498)"><path class="a" d="M-4208.986-5370.375l35.589-19.9,34.37,19.9v39.983l-34.37,19.486-35.589-19.486Z" transform="translate(4997.185 6724.07)"/><path class="a" d="M-4208.986-5370.375l35.589-19.9,34.37,19.9v39.983l-34.37,19.486-35.589-19.486Z" transform="translate(4920.683 6771.259)"/><g class="b" transform="matrix(1, 0, 0, 1, 709.7, 1331.5)"><path class="a" d="M-4208.986-5373.419l30.143-16.852,29.111,16.852v33.865l-29.111,16.5-30.143-16.5Z" transform="translate(4292.84 5445.83)"/></g><path class="a" d="M-4208.986-5370.375l35.589-19.9,34.37,19.9v39.983l-34.37,19.486-35.589-19.486Z" transform="translate(5073.688 6771.259)"/></g></svg>