<?xml version="1.0" standalone="no"?>
<!DOCTYPE svg PUBLIC "-//W3C//DTD SVG 20010904//EN"
 "http://www.w3.org/TR/2001/REC-SVG-20010904/DTD/svg10.dtd">
<svg version="1.0" xmlns="http://www.w3.org/2000/svg"
 width="512.000000pt" height="512.000000pt" viewBox="0 0 512.000000 512.000000"
 preserveAspectRatio="xMidYMid meet">
<metadata>
Created by potrace 1.15, written by Peter Selinger 2001-2017
</metadata>
<g transform="translate(0.000000,512.000000) scale(0.100000,-0.100000)"
fill="#000000" stroke="none">
<path d="M2260 4993 c-101 -11 -283 -47 -389 -78 -875 -252 -1513 -992 -1636
-1899 -20 -144 -22 -430 -5 -571 43 -362 168 -701 366 -997 l72 -108 -155
-616 c-84 -339 -152 -618 -150 -621 3 -2 288 107 633 242 l629 246 120 -40
c276 -92 473 -125 760 -125 437 0 818 105 1185 326 300 180 578 454 760 747
424 683 461 1538 98 2254 -341 671 -996 1135 -1741 1232 -108 14 -446 19 -547
8z m535 -118 c235 -31 507 -117 715 -227 629 -332 1050 -926 1156 -1633 20
-136 23 -432 5 -565 -66 -493 -280 -930 -626 -1275 -591 -592 -1455 -794
-2235 -524 -80 28 -154 52 -165 55 -12 3 -238 -80 -570 -209 -303 -119 -551
-214 -553 -212 -1 1 58 246 133 544 l135 543 -28 36 c-123 155 -257 412 -326
623 -77 234 -108 432 -108 684 0 347 68 642 223 961 98 203 226 383 392 553
366 374 805 590 1332 654 87 11 415 6 520 -8z"/>
<path d="M2330 4579 c-861 -77 -1560 -743 -1686 -1609 -25 -172 -15 -481 20
-646 62 -293 201 -584 388 -813 l44 -54 -98 -345 c-54 -190 -96 -347 -95 -349
2 -1 164 61 361 138 l358 140 112 -49 c256 -114 482 -161 770 -162 308 0 556
56 831 190 882 429 1283 1481 913 2395 -205 505 -633 907 -1146 1075 -256 83
-506 112 -772 89z m-305 -869 l41 0 58 -162 c33 -90 79 -210 104 -268 67 -158
67 -153 -16 -246 -38 -44 -86 -95 -106 -113 -23 -22 -36 -44 -36 -60 0 -65
239 -357 418 -512 133 -115 268 -209 300 -209 16 0 57 31 123 92 54 51 109 98
121 105 30 17 63 9 183 -42 55 -23 173 -68 262 -101 l161 -59 7 -122 7 -122
-36 -49 c-58 -80 -163 -172 -234 -205 -64 -30 -64 -30 -200 -24 -307 13 -601
142 -930 406 -453 366 -727 863 -711 1292 3 77 9 104 31 149 34 69 115 160
193 218 l60 44 80 -6 c44 -3 98 -6 120 -6z"/>
</g>
</svg>
